<?xml version="1.0" encoding="UTF-8"?>
<svg id="Layer_1" xmlns="http://www.w3.org/2000/svg" version="1.1" viewBox="0 0 733.99 203.26">
  <!-- Generator: Adobe Illustrator 29.7.1, SVG Export Plug-In . SVG Version: 2.1.1 Build 8)  -->
  <defs>
    <style>
      .st0 {
        fill: #fff;
      }
    </style>
  </defs>
  <path class="st0" d="M166.68,52.6l2.52-23.67h4.5l2.52,23.67v1.07h-9.53v-1.07ZM167.11,16.19h8.67v8.57h-8.67v-8.57Z"/>
  <path class="st0" d="M182.95,35.04v-.11c0-10.66,8.03-19.38,19.54-19.38,7.01,0,11.35,2.36,14.78,5.78l-5.25,6.05c-2.95-2.62-5.78-4.23-9.58-4.23-6.32,0-10.87,5.25-10.87,11.67v.11c0,6.42,4.44,11.78,10.87,11.78,4.28,0,6.91-1.66,9.85-4.39l5.25,5.3c-3.86,4.12-8.08,6.69-15.37,6.69-11.03,0-19.22-8.51-19.22-19.28Z"/>
  <path class="st0" d="M221.56,45.42v-.11c0-6.21,4.77-9.16,11.56-9.16,2.95,0,4.93.48,7.01,1.18v-.48c0-3.43-2.09-5.25-6.16-5.25-3.16,0-5.3.54-7.92,1.55l-2.04-6.21c3.16-1.34,6.26-2.3,11.14-2.3,4.5,0,7.6,1.12,9.69,3.21,2.14,2.14,3.11,5.3,3.11,9.16v16.65h-7.87v-3.11c-1.98,2.2-4.66,3.64-8.67,3.64-5.41,0-9.85-3.05-9.85-8.78ZM240.24,43.55v-1.45c-1.45-.64-3.21-1.07-5.19-1.07-3.48,0-5.62,1.39-5.62,3.96v.11c0,2.2,1.82,3.48,4.44,3.48,3.86,0,6.37-2.03,6.37-5.03Z"/>
  <path class="st0" d="M254.96,24.97h8.14v5.78c1.66-3.91,4.28-6.53,9.16-6.32v8.51h-.43c-5.41,0-8.73,3.21-8.73,10.12v10.6h-8.14v-28.7Z"/>
  <path class="st0" d="M276.97,59.35l2.78-6.1c3,1.66,5.84,2.62,9.69,2.62,5.57,0,8.19-2.68,8.19-7.82v-1.39c-2.41,2.95-5.03,4.66-9.37,4.66-6.69,0-12.74-4.82-12.74-13.39v-.11c0-8.57,6.16-13.39,12.74-13.39,4.44,0,7.07,1.87,9.26,4.28v-3.75h8.14v22.22c0,5.09-1.23,8.89-3.64,11.3-2.73,2.73-6.8,3.86-12.37,3.86-4.71,0-9.05-1.07-12.69-3ZM297.64,37.93v-.11c0-3.91-3-6.64-7.01-6.64s-6.96,2.73-6.96,6.64v.11c0,4.02,2.94,6.64,6.96,6.64s7.01-2.73,7.01-6.64Z"/>
  <path class="st0" d="M311.23,45.42v-.11c0-6.21,4.77-9.16,11.57-9.16,2.94,0,4.93.48,7.01,1.18v-.48c0-3.43-2.09-5.25-6.16-5.25-3.16,0-5.3.54-7.92,1.55l-2.04-6.21c3.16-1.34,6.27-2.3,11.14-2.3,4.5,0,7.6,1.12,9.69,3.21,2.14,2.14,3.11,5.3,3.11,9.16v16.65h-7.87v-3.11c-1.98,2.2-4.66,3.64-8.67,3.64-5.41,0-9.85-3.05-9.85-8.78ZM329.92,43.55v-1.45c-1.45-.64-3.21-1.07-5.19-1.07-3.48,0-5.62,1.39-5.62,3.96v.11c0,2.2,1.82,3.48,4.44,3.48,3.85,0,6.37-2.03,6.37-5.03Z"/>
  <path class="st0" d="M359.31,39.48v-.11c0-8.19,5.84-14.94,14.19-14.94,9.58,0,13.98,7.44,13.98,15.58,0,.64-.05,1.34-.11,2.14h-19.97c.8,3.69,3.37,5.62,7.01,5.62,2.73,0,4.66-.86,6.96-2.95l4.66,4.12c-2.73,3.37-6.53,5.35-11.73,5.35-8.62,0-14.99-6.05-14.99-14.83ZM379.55,37.07c-.48-3.64-2.62-6.1-6.05-6.1s-5.57,2.41-6.21,6.1h12.26Z"/>
  <path class="st0" d="M403.96,33.38l5.41-8.41h8.51l-9.69,14.03,10.12,14.67h-8.73l-5.78-8.94-5.78,8.94h-8.51l10.07-14.56-9.69-14.14h8.73l5.35,8.41Z"/>
  <path class="st0" d="M423.34,14.58h8.57v7.23h-8.57v-7.23ZM423.56,24.97h8.14v28.7h-8.14v-28.7Z"/>
  <path class="st0" d="M440.69,45.53v-13.6h-3.43v-6.96h3.43v-7.34h8.14v7.34h6.75v6.96h-6.75v12.26c0,1.87.86,2.78,2.62,2.78,1.45,0,2.78-.32,4.02-1.02v6.53c-1.71,1.02-3.69,1.66-6.42,1.66-4.93,0-8.35-1.98-8.35-8.62Z"/>
  <path class="st0" d="M459.38,39.48v-.11c0-8.25,6.64-14.94,15.58-14.94s15.47,6.53,15.47,14.83v.11c0,8.25-6.64,14.94-15.58,14.94s-15.47-6.53-15.47-14.83ZM482.4,39.48v-.11c0-4.23-3.05-7.92-7.55-7.92s-7.44,3.53-7.44,7.82v.11c0,4.23,3.05,7.92,7.55,7.92s7.44-3.53,7.44-7.82Z"/>
  <path class="st0" d="M494.07,49.87l3.48-5.35c3.16,2.3,6.32,3.43,9.05,3.43,2.36,0,3.43-.86,3.43-2.14v-.11c0-1.77-2.78-2.3-5.94-3.32-4.02-1.12-8.57-3.05-8.57-8.62v-.11c0-5.84,4.71-9.1,10.49-9.1,3.64,0,7.55,1.23,10.71,3.32l-3.11,5.62c-2.84-1.66-5.68-2.68-7.76-2.68s-3,.86-3,1.98v.11c0,1.5,2.73,2.46,5.84,3.43,4.02,1.29,8.67,3.27,8.67,8.51v.11c0,6.37-4.77,9.26-10.98,9.26-4.07,0-8.46-1.34-12.31-4.34Z"/>
  <path class="st0" d="M521.48,45.42v-.11c0-6.21,4.77-9.16,11.56-9.16,2.95,0,4.93.48,7.01,1.18v-.48c0-3.43-2.09-5.25-6.16-5.25-3.16,0-5.3.54-7.92,1.55l-2.04-6.21c3.16-1.34,6.26-2.3,11.14-2.3,4.5,0,7.6,1.12,9.69,3.21,2.14,2.14,3.11,5.3,3.11,9.16v16.65h-7.87v-3.11c-1.98,2.2-4.66,3.64-8.67,3.64-5.41,0-9.85-3.05-9.85-8.78ZM540.17,43.55v-1.45c-1.45-.64-3.21-1.07-5.19-1.07-3.48,0-5.62,1.39-5.62,3.96v.11c0,2.2,1.82,3.48,4.44,3.48,3.86,0,6.37-2.03,6.37-5.03Z"/>
  <path class="st0" d="M555.16,17.26v-1.07h9.53v1.07l-2.52,23.67h-4.5l-2.52-23.67ZM555.59,45.1h8.67v8.57h-8.67v-8.57Z"/>
  <path class="st0" d="M20.76,87.57h22.32v4.73h-17.03v7.83h15.09v4.77h-15.09v8.04h17.24v4.73h-22.53v-30.1Z"/>
  <path class="st0" d="M49.23,86.28h5.25v31.39h-5.25v-31.39Z"/>
  <path class="st0" d="M61.35,86.54h5.59v4.95h-5.59v-4.95ZM61.53,94.97h5.25v22.7h-5.25v-22.7Z"/>
  <path class="st0" d="M73.52,121.93l1.93-3.91c2.45,1.5,4.99,2.37,8.08,2.37,4.64,0,7.18-2.32,7.18-6.92v-1.72c-1.89,2.41-4.26,4.13-8,4.13-5.38,0-10.32-3.96-10.32-10.62v-.09c0-6.71,4.99-10.66,10.32-10.66,3.83,0,6.19,1.76,7.96,3.87v-3.4h5.2v18.06c0,3.78-.95,6.62-2.88,8.56-2.06,2.06-5.2,3.05-9.33,3.05-3.78,0-7.18-.9-10.15-2.71ZM90.77,105.2v-.09c0-3.66-3.05-6.19-6.66-6.19s-6.45,2.45-6.45,6.19v.09c0,3.7,2.88,6.23,6.45,6.23s6.66-2.54,6.66-6.23Z"/>
  <path class="st0" d="M101.17,106.4v-.09c0-6.54,4.6-11.83,11.09-11.83,7.22,0,10.88,5.68,10.88,12.21,0,.47-.04.95-.09,1.46h-16.68c.56,3.74,3.14,5.76,6.54,5.76,2.58,0,4.3-.95,6.15-2.71l3.05,2.71c-2.19,2.58-5.12,4.26-9.29,4.26-6.54,0-11.65-4.77-11.65-11.78ZM117.98,104.73c-.34-3.31-2.32-5.98-5.76-5.98-3.22,0-5.42,2.41-5.89,5.98h11.65Z"/>
  <path class="st0" d="M140.04,106.4v-.09c0-6.54,4.6-11.83,11.09-11.83,7.22,0,10.88,5.68,10.88,12.21,0,.47-.04.95-.09,1.46h-16.68c.56,3.74,3.14,5.76,6.54,5.76,2.58,0,4.3-.95,6.15-2.71l3.05,2.71c-2.19,2.58-5.12,4.26-9.29,4.26-6.54,0-11.65-4.77-11.65-11.78ZM156.86,104.73c-.34-3.31-2.32-5.98-5.76-5.98-3.22,0-5.42,2.41-5.89,5.98h11.65Z"/>
  <path class="st0" d="M167.52,86.28h5.25v31.39h-5.25v-31.39Z"/>
  <path class="st0" d="M192.42,94.97h5.25v5.12c1.42-3.44,4.04-5.72,8.04-5.55v5.5h-.3c-4.6,0-7.74,2.97-7.74,8.99v8.64h-5.25v-22.7Z"/>
  <path class="st0" d="M210.3,86.54h5.59v4.95h-5.59v-4.95ZM210.48,94.97h5.25v22.7h-5.25v-22.7Z"/>
  <path class="st0" d="M223.59,111.39v-11.95h-2.88v-4.47h2.88v-6.23h5.2v6.23h6.11v4.47h-6.11v11.14c0,2.02,1.03,2.84,2.79,2.84,1.12,0,2.19-.26,3.23-.77v4.26c-1.33.73-2.67,1.16-4.69,1.16-3.83,0-6.54-1.68-6.54-6.67Z"/>
  <path class="st0" d="M240.15,94.97h5.25v3.44c1.46-2.02,3.44-3.91,6.92-3.91,3.27,0,5.59,1.59,6.79,4,1.85-2.41,4.21-4,7.65-4,4.99,0,7.96,3.14,7.96,8.69v14.49h-5.2v-12.9c0-3.61-1.68-5.55-4.6-5.55s-4.86,1.98-4.86,5.63v12.81h-5.2v-12.94c0-3.57-1.68-5.5-4.6-5.5s-4.86,2.15-4.86,5.63v12.81h-5.25v-22.7Z"/>
  <path class="st0" d="M279.75,106.45v-.09c0-6.49,5.16-11.87,12.13-11.87s12.08,5.29,12.08,11.78v.09c0,6.41-5.16,11.82-12.17,11.82s-12.04-5.29-12.04-11.74ZM298.75,106.45v-.09c0-4-2.88-7.31-6.97-7.31s-6.84,3.27-6.84,7.22v.09c0,3.96,2.92,7.27,6.92,7.27,4.26,0,6.88-3.27,6.88-7.18Z"/>
  <path class="st0" d="M339.26,113.89c-1.68,2.37-4.09,4.26-7.74,4.26-5.33,0-10.54-4.21-10.54-11.78v-.09c0-7.57,5.12-11.78,10.54-11.78,3.7,0,6.15,1.85,7.74,4v-3.53h5.2v29.58h-5.2v-10.66ZM339.35,106.36v-.09c0-4.39-3.1-7.27-6.58-7.27s-6.54,2.79-6.54,7.27v.09c0,4.39,2.97,7.27,6.54,7.27s6.58-2.92,6.58-7.27Z"/>
  <path class="st0" d="M350.74,109.41v-14.45h5.2v12.9c0,3.57,1.76,5.5,4.86,5.5s5.12-2.02,5.12-5.59v-12.81h5.25v22.7h-5.25v-3.53c-1.5,2.19-3.61,4-7.09,4-5.16,0-8.08-3.4-8.08-8.73Z"/>
  <path class="st0" d="M376.41,106.4v-.09c0-6.54,4.6-11.83,11.09-11.83,7.22,0,10.88,5.68,10.88,12.21,0,.47-.04.95-.09,1.46h-16.68c.56,3.74,3.14,5.76,6.54,5.76,2.58,0,4.3-.95,6.15-2.71l3.05,2.71c-2.19,2.58-5.12,4.26-9.29,4.26-6.54,0-11.65-4.77-11.65-11.78ZM393.22,104.73c-.34-3.31-2.32-5.98-5.76-5.98-3.22,0-5.42,2.41-5.89,5.98h11.65Z"/>
  <path class="st0" d="M417.6,111.39v-11.95h-2.88v-4.47h2.88v-6.23h5.2v6.23h6.11v4.47h-6.11v11.14c0,2.02,1.03,2.84,2.79,2.84,1.12,0,2.19-.26,3.22-.77v4.26c-1.33.73-2.67,1.16-4.69,1.16-3.83,0-6.54-1.68-6.54-6.67Z"/>
  <path class="st0" d="M432.31,106.4v-.09c0-6.54,4.6-11.83,11.09-11.83,7.22,0,10.88,5.68,10.88,12.21,0,.47-.04.95-.09,1.46h-16.68c.56,3.74,3.14,5.76,6.54,5.76,2.58,0,4.3-.95,6.15-2.71l3.05,2.71c-2.19,2.58-5.12,4.26-9.29,4.26-6.54,0-11.65-4.77-11.65-11.78ZM449.12,104.73c-.34-3.31-2.32-5.98-5.76-5.98-3.23,0-5.42,2.41-5.89,5.98h11.65Z"/>
  <path class="st0" d="M472.39,86.28h5.25v12.17c1.5-2.11,3.53-3.96,7.09-3.96,5.16,0,8.08,3.4,8.08,8.69v14.49h-5.2v-12.9c0-3.57-1.76-5.55-4.86-5.55s-5.12,2.06-5.12,5.63v12.81h-5.25v-31.39Z"/>
  <path class="st0" d="M497.54,111.13v-.09c0-4.95,3.87-7.31,9.42-7.31,2.58,0,4.34.39,6.11.95v-.56c0-3.27-1.98-4.95-5.63-4.95-2.58,0-4.43.56-6.49,1.42l-1.42-4.08c2.54-1.07,4.99-1.85,8.6-1.85,3.4,0,5.89.86,7.53,2.54,1.68,1.68,2.45,4.04,2.45,7.01v13.46h-5.07v-2.84c-1.55,1.85-3.91,3.31-7.4,3.31-4.26,0-8.08-2.41-8.08-7.01ZM513.15,109.5v-1.55c-1.33-.52-3.1-.9-5.16-.9-3.4,0-5.33,1.38-5.33,3.78v.09c0,2.19,1.89,3.44,4.43,3.44,3.44,0,6.06-1.93,6.06-4.86Z"/>
  <path class="st0" d="M524.29,121.93l1.93-3.91c2.45,1.5,4.99,2.37,8.08,2.37,4.64,0,7.18-2.32,7.18-6.92v-1.72c-1.89,2.41-4.26,4.13-8,4.13-5.38,0-10.32-3.96-10.32-10.62v-.09c0-6.71,4.99-10.66,10.32-10.66,3.83,0,6.19,1.76,7.96,3.87v-3.4h5.2v18.06c0,3.78-.95,6.62-2.88,8.56-2.06,2.06-5.2,3.05-9.33,3.05-3.78,0-7.18-.9-10.15-2.71ZM541.53,105.2v-.09c0-3.66-3.05-6.19-6.66-6.19s-6.45,2.45-6.45,6.19v.09c0,3.7,2.88,6.23,6.45,6.23s6.66-2.54,6.66-6.23Z"/>
  <path class="st0" d="M551.63,111.13v-.09c0-4.95,3.87-7.31,9.42-7.31,2.58,0,4.34.39,6.11.95v-.56c0-3.27-1.98-4.95-5.63-4.95-2.58,0-4.43.56-6.49,1.42l-1.42-4.08c2.54-1.07,4.99-1.85,8.6-1.85,3.4,0,5.89.86,7.52,2.54,1.68,1.68,2.45,4.04,2.45,7.01v13.46h-5.07v-2.84c-1.55,1.85-3.91,3.31-7.4,3.31-4.26,0-8.08-2.41-8.08-7.01ZM567.24,109.5v-1.55c-1.33-.52-3.1-.9-5.16-.9-3.4,0-5.33,1.38-5.33,3.78v.09c0,2.19,1.89,3.44,4.43,3.44,3.44,0,6.06-1.93,6.06-4.86Z"/>
  <path class="st0" d="M589.17,94.97h5.59l6.11,16.68,6.15-16.68h5.46l-9.29,22.88h-4.69l-9.33-22.88Z"/>
  <path class="st0" d="M616.99,86.54h5.59v4.95h-5.59v-4.95ZM617.16,94.97h5.25v22.7h-5.25v-22.7Z"/>
  <path class="st0" d="M634.41,114.14v3.53h-5.25v-31.39h5.25v12.47c1.68-2.37,4-4.26,7.74-4.26,5.33,0,10.53,4.21,10.53,11.78v.09c0,7.57-5.16,11.78-10.53,11.78-3.79,0-6.15-1.89-7.74-4ZM647.39,106.36v-.09c0-4.39-3.01-7.27-6.49-7.27s-6.62,2.92-6.62,7.27v.09c0,4.34,3.05,7.27,6.62,7.27s6.49-2.79,6.49-7.27Z"/>
  <path class="st0" d="M658.01,94.97h5.25v5.12c1.42-3.44,4.04-5.72,8.04-5.55v5.5h-.3c-4.6,0-7.74,2.97-7.74,8.99v8.64h-5.25v-22.7Z"/>
  <path class="st0" d="M673.19,111.13v-.09c0-4.95,3.87-7.31,9.42-7.31,2.58,0,4.34.39,6.11.95v-.56c0-3.27-1.98-4.95-5.63-4.95-2.58,0-4.43.56-6.49,1.42l-1.42-4.08c2.54-1.07,4.99-1.85,8.6-1.85,3.4,0,5.89.86,7.53,2.54,1.68,1.68,2.45,4.04,2.45,7.01v13.46h-5.07v-2.84c-1.55,1.85-3.91,3.31-7.4,3.31-4.26,0-8.08-2.41-8.08-7.01ZM688.8,109.5v-1.55c-1.33-.52-3.1-.9-5.16-.9-3.4,0-5.33,1.38-5.33,3.78v.09c0,2.19,1.89,3.44,4.43,3.44,3.44,0,6.06-1.93,6.06-4.86Z"/>
  <path class="st0" d="M699.94,94.97h5.25v5.12c1.42-3.44,4.04-5.72,8.04-5.55v5.5h-.3c-4.6,0-7.74,2.97-7.74,8.99v8.64h-5.25v-22.7Z"/>
  <path class="st0" d="M132.22,158.97h5.42l-9.03,23.31c-1.85,4.69-3.83,6.41-7.48,6.41-2.19,0-3.78-.52-5.37-1.42l1.76-3.83c.99.52,1.98.86,3.05.86,1.5,0,2.36-.65,3.22-2.58l-9.46-22.75h5.59l6.36,16.86,5.93-16.86Z"/>
  <path class="st0" d="M153.76,170.4v-.09c0-6.54,4.6-11.83,11.09-11.83,7.22,0,10.88,5.68,10.88,12.21,0,.47-.04.95-.09,1.46h-16.68c.56,3.74,3.14,5.76,6.54,5.76,2.58,0,4.3-.95,6.15-2.71l3.05,2.71c-2.19,2.58-5.12,4.26-9.29,4.26-6.54,0-11.65-4.77-11.65-11.78ZM170.57,168.73c-.34-3.31-2.32-5.98-5.76-5.98-3.23,0-5.42,2.41-5.89,5.98h11.65Z"/>
  <path class="st0" d="M179.82,170.36v-.09c0-7.57,5.12-11.78,10.54-11.78,3.7,0,6.15,1.85,7.74,4v-12.21h5.2v31.39h-5.2v-3.78c-1.68,2.37-4.09,4.26-7.74,4.26-5.33,0-10.54-4.21-10.54-11.78ZM198.18,170.36v-.09c0-4.39-3.1-7.27-6.58-7.27s-6.54,2.79-6.54,7.27v.09c0,4.39,2.97,7.27,6.54,7.27s6.58-2.92,6.58-7.27Z"/>
  <path class="st0" d="M210.09,158.97h5.25v22.7h-5.25v-22.7ZM215.16,149.03l4.73,2.11-5.29,4.94h-3.91l4.47-7.05Z"/>
  <path class="st0" d="M223.2,175.39v-11.95h-2.88v-4.47h2.88v-6.23h5.2v6.23h6.11v4.47h-6.11v11.14c0,2.02,1.03,2.84,2.79,2.84,1.12,0,2.19-.26,3.22-.77v4.26c-1.33.73-2.67,1.16-4.69,1.16-3.83,0-6.54-1.68-6.54-6.67Z"/>
  <path class="st0" d="M238.25,175.13v-.09c0-4.95,3.87-7.31,9.42-7.31,2.58,0,4.34.39,6.11.95v-.56c0-3.27-1.98-4.95-5.63-4.95-2.58,0-4.43.56-6.49,1.42l-1.42-4.08c2.54-1.07,4.99-1.85,8.6-1.85,3.4,0,5.89.86,7.53,2.54,1.68,1.68,2.45,4.04,2.45,7.01v13.46h-5.07v-2.84c-1.55,1.85-3.91,3.31-7.4,3.31-4.26,0-8.08-2.41-8.08-7.01ZM253.86,173.5v-1.55c-1.33-.52-3.1-.9-5.16-.9-3.4,0-5.33,1.38-5.33,3.78v.09c0,2.19,1.89,3.44,4.43,3.44,3.44,0,6.06-1.93,6.06-4.86Z"/>
  <path class="st0" d="M265.3,150.28h5.25v31.39h-5.25v-31.39Z"/>
  <path class="st0" d="M276.09,170.45v-.09c0-6.49,5.16-11.87,12.13-11.87s12.08,5.29,12.08,11.78v.09c0,6.41-5.16,11.82-12.17,11.82s-12.04-5.29-12.04-11.74ZM295.1,170.45v-.09c0-4-2.88-7.31-6.97-7.31s-6.84,3.27-6.84,7.22v.09c0,3.96,2.92,7.27,6.92,7.27,4.26,0,6.88-3.27,6.88-7.18Z"/>
  <path class="st0" d="M317.24,170.45v-.09c0-6.45,4.99-11.87,11.83-11.87,4.26,0,6.88,1.59,9.07,3.91l-3.27,3.48c-1.59-1.68-3.27-2.84-5.85-2.84-3.78,0-6.58,3.27-6.58,7.22v.09c0,4.04,2.79,7.27,6.79,7.27,2.45,0,4.21-1.12,5.89-2.79l3.14,3.1c-2.24,2.54-4.86,4.26-9.29,4.26-6.75,0-11.74-5.29-11.74-11.74Z"/>
  <path class="st0" d="M341.15,170.45v-.09c0-6.49,5.16-11.87,12.13-11.87s12.08,5.29,12.08,11.78v.09c0,6.41-5.16,11.82-12.17,11.82s-12.04-5.29-12.04-11.74ZM360.16,170.45v-.09c0-4-2.88-7.31-6.97-7.31s-6.84,3.27-6.84,7.22v.09c0,3.96,2.92,7.27,6.92,7.27,4.26,0,6.88-3.27,6.88-7.18Z"/>
  <path class="st0" d="M370.61,158.97h5.25v3.44c1.46-2.02,3.44-3.91,6.92-3.91,3.27,0,5.59,1.59,6.79,4,1.85-2.41,4.21-4,7.65-4,4.99,0,7.96,3.14,7.96,8.69v14.49h-5.2v-12.9c0-3.61-1.68-5.55-4.6-5.55s-4.86,1.98-4.86,5.63v12.81h-5.2v-12.94c0-3.57-1.68-5.5-4.6-5.5s-4.86,2.15-4.86,5.63v12.81h-5.25v-22.7Z"/>
  <path class="st0" d="M410.21,170.45v-.09c0-6.49,5.16-11.87,12.13-11.87s12.08,5.29,12.08,11.78v.09c0,6.41-5.16,11.82-12.17,11.82s-12.04-5.29-12.04-11.74ZM429.21,170.45v-.09c0-4-2.88-7.31-6.97-7.31s-6.84,3.27-6.84,7.22v.09c0,3.96,2.92,7.27,6.92,7.27,4.26,0,6.88-3.27,6.88-7.18Z"/>
  <path class="st0" d="M469.72,177.89c-1.68,2.37-4.08,4.26-7.74,4.26-5.33,0-10.53-4.21-10.53-11.78v-.09c0-7.57,5.12-11.78,10.53-11.78,3.7,0,6.15,1.85,7.74,4v-3.53h5.2v29.58h-5.2v-10.66ZM469.81,170.36v-.09c0-4.39-3.1-7.27-6.58-7.27s-6.54,2.79-6.54,7.27v.09c0,4.39,2.97,7.27,6.54,7.27s6.58-2.92,6.58-7.27Z"/>
  <path class="st0" d="M481.2,173.41v-14.45h5.2v12.9c0,3.57,1.76,5.5,4.86,5.5s5.12-2.02,5.12-5.59v-12.81h5.25v22.7h-5.25v-3.53c-1.51,2.19-3.61,4-7.1,4-5.16,0-8.08-3.4-8.08-8.73Z"/>
  <path class="st0" d="M508.2,150.54h5.59v4.95h-5.59v-4.95ZM508.38,158.97h5.25v22.7h-5.25v-22.7Z"/>
  <path class="st0" d="M519.17,170.4v-.09c0-6.54,4.6-11.83,11.09-11.83,7.22,0,10.88,5.68,10.88,12.21,0,.47-.04.95-.09,1.46h-16.68c.56,3.74,3.14,5.76,6.54,5.76,2.58,0,4.3-.95,6.15-2.71l3.05,2.71c-2.19,2.58-5.12,4.26-9.29,4.26-6.54,0-11.65-4.77-11.65-11.78ZM535.98,168.73c-.34-3.31-2.32-5.98-5.76-5.98-3.22,0-5.42,2.41-5.89,5.98h11.65Z"/>
  <path class="st0" d="M546.34,158.97h5.25v5.12c1.42-3.44,4.04-5.72,8.04-5.55v5.5h-.3c-4.6,0-7.74,2.97-7.74,8.99v8.64h-5.25v-22.7Z"/>
  <path class="st0" d="M561.52,175.13v-.09c0-4.95,3.87-7.31,9.42-7.31,2.58,0,4.34.39,6.11.95v-.56c0-3.27-1.98-4.95-5.63-4.95-2.58,0-4.43.56-6.49,1.42l-1.42-4.08c2.54-1.07,4.99-1.85,8.6-1.85,3.4,0,5.89.86,7.52,2.54,1.68,1.68,2.45,4.04,2.45,7.01v13.46h-5.07v-2.84c-1.55,1.85-3.91,3.31-7.4,3.31-4.26,0-8.08-2.41-8.08-7.01ZM577.13,173.5v-1.55c-1.33-.52-3.1-.9-5.16-.9-3.4,0-5.33,1.38-5.33,3.78v.09c0,2.19,1.89,3.44,4.43,3.44,3.44,0,6.06-1.93,6.06-4.86Z"/>
  <path class="st0" d="M586.46,178.7l2.32-3.53c2.54,1.85,5.07,2.79,7.44,2.79,2.24,0,3.53-.95,3.53-2.45v-.09c0-1.72-2.41-2.36-5.07-3.18-3.31-.9-7.09-2.32-7.09-6.62v-.09c0-4.34,3.57-6.97,8.08-6.97,2.88,0,5.93.99,8.34,2.58l-2.06,3.7c-2.19-1.33-4.52-2.15-6.41-2.15-2.02,0-3.18.99-3.18,2.24v.09c0,1.63,2.45,2.41,5.12,3.22,3.27,1.03,7.05,2.54,7.05,6.62v.09c0,4.77-3.7,7.14-8.43,7.14-3.27,0-6.75-1.12-9.63-3.4Z"/>
  <path class="st0" d="M609.51,175.74h5.72v5.93h-5.72v-5.93Z"/>
</svg>