<?xml version="1.0" encoding="UTF-8"?>
<svg id="Layer_1" xmlns="http://www.w3.org/2000/svg" version="1.1" viewBox="0 0 689.85 378.52">
  <!-- Generator: Adobe Illustrator 29.7.1, SVG Export Plug-In . SVG Version: 2.1.1 Build 8)  -->
  <defs>
    <style>
      .st0 {
        fill: #fff;
      }
    </style>
  </defs>
  <path class="st0" d="M89.92,67.26v-.09c0-5.46,3.78-7.74,8.47-8.64l.47-2.62h4.39l.99,6.97-.21.21c-5.46.21-7.53,1.63-7.53,3.91v.09c0,1.93,1.42,3.05,3.96,3.05s4.43-.95,6.45-2.97l3.96,4.34c-2.54,2.75-5.85,4.64-10.54,4.64-6.19,0-10.41-3.18-10.41-8.9ZM97.71,45.68h6.97v6.88h-6.97v-6.88Z"/>
  <path class="st0" d="M125.66,45.46h6.11l12.9,30.31h-6.92l-2.75-6.75h-12.73l-2.75,6.75h-6.75l12.9-30.31ZM132.62,63.18l-4-9.76-4,9.76h8Z"/>
  <path class="st0" d="M178.16,72.47c-1.59,2.19-3.74,3.74-7.18,3.74-5.38,0-10.49-4.21-10.49-11.91v-.09c0-7.7,5.03-11.91,10.49-11.91,3.48,0,5.63,1.59,7.18,3.44v-3.01h6.54v29.93h-6.54v-10.19ZM178.24,64.3v-.09c0-3.83-2.54-6.36-5.59-6.36s-5.63,2.49-5.63,6.36v.09c0,3.83,2.58,6.36,5.63,6.36s5.59-2.54,5.59-6.36Z"/>
  <path class="st0" d="M190.37,67.65v-14.92h6.54v12.86c0,3.1,1.42,4.69,3.96,4.69s4.08-1.59,4.08-4.69v-12.86h6.54v23.05h-6.54v-3.27c-1.5,1.93-3.48,3.7-6.75,3.7-4.99,0-7.83-3.23-7.83-8.56Z"/>
  <path class="st0" d="M216.21,64.38v-.09c0-6.58,4.69-12,11.39-12,7.7,0,11.22,5.98,11.22,12.51,0,.52-.04,1.08-.09,1.72h-16.04c.64,2.97,2.71,4.51,5.63,4.51,2.19,0,3.74-.69,5.59-2.37l3.74,3.31c-2.19,2.71-5.25,4.3-9.42,4.3-6.92,0-12.04-4.86-12.04-11.91ZM232.47,62.45c-.39-2.92-2.11-4.9-4.86-4.9s-4.47,1.93-4.99,4.9h9.85ZM229.71,42.58l5.63,2.45-5.59,5.16h-4.82l4.77-7.61Z"/>
  <path class="st0" d="M254.78,72.72l2.79-4.3c2.54,1.85,5.07,2.75,7.27,2.75,1.89,0,2.75-.69,2.75-1.72v-.09c0-1.42-2.24-1.85-4.77-2.67-3.23-.9-6.88-2.45-6.88-6.92v-.09c0-4.69,3.78-7.31,8.43-7.31,2.92,0,6.06.99,8.6,2.67l-2.49,4.51c-2.28-1.33-4.56-2.15-6.23-2.15s-2.41.69-2.41,1.59v.09c0,1.2,2.19,1.98,4.69,2.75,3.23,1.03,6.97,2.62,6.97,6.84v.09c0,5.12-3.83,7.44-8.81,7.44-3.27,0-6.79-1.08-9.89-3.48Z"/>
  <path class="st0" d="M278,67.65v-14.92h6.54v12.86c0,3.1,1.42,4.69,3.96,4.69s4.08-1.59,4.08-4.69v-12.86h6.54v23.05h-6.54v-3.27c-1.5,1.93-3.48,3.7-6.75,3.7-4.99,0-7.83-3.23-7.83-8.56Z"/>
  <path class="st0" d="M303.84,64.38v-.09c0-6.58,4.69-12,11.4-12,7.7,0,11.22,5.98,11.22,12.51,0,.52-.04,1.08-.09,1.72h-16.04c.65,2.97,2.71,4.51,5.63,4.51,2.19,0,3.74-.69,5.59-2.37l3.74,3.31c-2.19,2.71-5.25,4.3-9.42,4.3-6.92,0-12.04-4.86-12.04-11.91ZM320.1,62.45c-.39-2.92-2.11-4.9-4.86-4.9s-4.47,1.93-4.99,4.9h9.85Z"/>
  <path class="st0" d="M331.32,52.73h6.54v3.27c1.5-1.94,3.48-3.7,6.75-3.7,4.99,0,7.83,3.23,7.83,8.56v14.92h-6.54v-12.86c0-3.1-1.42-4.69-3.96-4.69s-4.08,1.59-4.08,4.69v12.86h-6.54v-23.05Z"/>
  <path class="st0" d="M356.73,69.15v-.09c0-4.99,3.83-7.35,9.29-7.35,2.36,0,3.96.39,5.63.95v-.39c0-2.75-1.68-4.21-4.95-4.21-2.54,0-4.26.43-6.36,1.25l-1.63-4.99c2.54-1.08,5.03-1.85,8.94-1.85,3.61,0,6.11.9,7.78,2.58,1.72,1.72,2.49,4.26,2.49,7.35v13.37h-6.32v-2.49c-1.59,1.76-3.74,2.92-6.97,2.92-4.34,0-7.91-2.45-7.91-7.05ZM371.74,67.65v-1.16c-1.16-.52-2.58-.86-4.17-.86-2.79,0-4.51,1.12-4.51,3.18v.09c0,1.76,1.46,2.79,3.57,2.79,3.1,0,5.12-1.63,5.12-4.04Z"/>
  <path class="st0" d="M397.54,69.24v-10.92h-2.75v-5.59h2.75v-5.89h6.54v5.89h5.42v5.59h-5.42v9.85c0,1.5.69,2.24,2.11,2.24,1.16,0,2.24-.26,3.22-.82v5.25c-1.38.82-2.97,1.33-5.16,1.33-3.96,0-6.71-1.59-6.71-6.92Z"/>
  <path class="st0" d="M414.14,67.65v-14.92h6.54v12.86c0,3.1,1.42,4.69,3.96,4.69s4.08-1.59,4.08-4.69v-12.86h6.54v23.05h-6.54v-3.27c-1.5,1.93-3.48,3.7-6.75,3.7-4.99,0-7.83-3.23-7.83-8.56Z"/>
  <path class="st0" d="M453.35,60.81v-.09c0-8.56,6.67-15.57,15.78-15.57,5.38,0,8.73,1.46,11.82,4.13l-4.17,5.03c-2.28-1.94-4.43-3.05-7.87-3.05-4.82,0-8.64,4.26-8.64,9.37v.09c0,5.5,3.78,9.55,9.12,9.55,2.45,0,4.56-.6,6.23-1.81v-4.3h-6.66v-5.72h13.07v13.07c-3.1,2.62-7.35,4.77-12.86,4.77-9.37,0-15.82-6.54-15.82-15.48Z"/>
  <path class="st0" d="M487.06,60.81v-.09c0-8.56,6.75-15.57,16.04-15.57s15.95,6.92,15.95,15.48v.09c0,8.56-6.75,15.57-16.04,15.57s-15.95-6.92-15.95-15.48ZM512.13,60.81v-.09c0-5.16-3.78-9.46-9.12-9.46s-9.03,4.21-9.03,9.37v.09c0,5.16,3.78,9.46,9.12,9.46s9.03-4.21,9.03-9.37Z"/>
  <path class="st0" d="M533.33,45.46h6.11l12.9,30.31h-6.92l-2.75-6.75h-12.73l-2.75,6.75h-6.75l12.9-30.31ZM540.3,63.18l-4-9.76-4,9.76h8Z"/>
  <path class="st0" d="M560.12,51.78h-9.16v-6.11h24.94v6.11h-9.16v23.99h-6.62v-23.99Z"/>
  <path class="st0" d="M584.85,58.58l.21-.21c5.46-.22,7.52-1.63,7.52-3.91v-.09c0-1.94-1.42-3.05-3.96-3.05s-4.43.95-6.45,2.97l-3.96-4.34c2.54-2.75,5.85-4.64,10.54-4.64,6.19,0,10.41,3.18,10.41,8.9v.09c0,5.46-3.78,7.74-8.47,8.64l-.47,2.62h-4.39l-.99-6.97ZM584.42,68.9h6.97v6.88h-6.97v-6.88Z"/>
  <path class="st0" d="M154.72,97.87h3.03l13.08,28.91h-3.48l-3.36-7.58h-15.62l-3.4,7.58h-3.32l13.08-28.91ZM162.71,116.28l-6.52-14.64-6.56,14.64h13.08Z"/>
  <path class="st0" d="M187.68,103.49c0-3.32,1.39-4.92,4.51-5.62l.49,1.44c-2.09.78-2.87,1.8-2.75,3.57h1.52v4.31h-3.77v-3.69ZM195.88,103.49c0-3.32,1.39-4.92,4.51-5.62l.49,1.44c-2.09.78-2.87,1.8-2.75,3.57h1.48v4.31h-3.73v-3.69Z"/>
  <path class="st0" d="M205.76,112.51v-.08c0-7.87,5.78-14.84,14.39-14.84,4.84,0,7.83,1.39,10.7,3.81l-2.09,2.46c-2.17-1.93-4.71-3.28-8.73-3.28-6.36,0-10.91,5.37-10.91,11.77v.08c0,6.85,4.39,11.93,11.36,11.93,3.28,0,6.31-1.27,8.28-2.87v-7.13h-8.73v-2.91h11.85v11.44c-2.67,2.42-6.64,4.39-11.52,4.39-9.02,0-14.6-6.56-14.6-14.76Z"/>
  <path class="st0" d="M238.93,96.85h3.16v29.93h-3.16v-29.93Z"/>
  <path class="st0" d="M248.11,116.28v-.08c0-6.03,4.63-11.07,11.07-11.07s11.03,5,11.03,10.99v.08c0,6.03-4.72,11.07-11.11,11.07s-10.99-5-10.99-10.99ZM266.97,116.28v-.08c0-4.55-3.4-8.28-7.87-8.28s-7.75,3.73-7.75,8.2v.08c0,4.55,3.36,8.24,7.83,8.24s7.79-3.73,7.79-8.16Z"/>
  <path class="st0" d="M275.91,105.58h3.16v5.54c1.56-3.53,4.63-6.03,8.65-5.9v3.4h-.25c-4.63,0-8.4,3.32-8.4,9.72v8.45h-3.16v-21.2Z"/>
  <path class="st0" d="M292.6,97.46h3.61v3.49h-3.61v-3.49ZM292.8,105.58h3.16v21.2h-3.16v-21.2Z"/>
  <path class="st0" d="M301.7,120.63v-.08c0-4.43,3.69-6.85,9.06-6.85,2.75,0,4.59.37,6.52.9v-.74c0-3.81-2.34-5.78-6.31-5.78-2.5,0-4.47.62-6.44,1.56l-.94-2.58c2.34-1.11,4.59-1.76,7.71-1.76s5.29.78,6.85,2.34c1.44,1.43,2.17,3.53,2.17,6.19v12.96h-3.03v-3.2c-1.48,1.93-3.89,3.65-7.67,3.65s-7.91-2.21-7.91-6.6ZM317.32,118.99v-2.05c-1.6-.45-3.61-.9-6.23-.9-3.98,0-6.19,1.72-6.19,4.39v.08c0,2.67,2.5,4.22,5.33,4.22,3.94,0,7.09-2.38,7.09-5.74Z"/>
  <path class="st0" d="M340.53,108.37h-2.91v-2.75h2.91v-1.84c0-2.42.62-4.22,1.85-5.45,1.11-1.11,2.62-1.64,4.55-1.64,1.48,0,2.46.16,3.49.53v2.75c-1.15-.33-1.97-.53-3.08-.53-2.46,0-3.69,1.52-3.69,4.51v1.72h6.72v2.71h-6.68v18.41h-3.16v-18.41Z"/>
  <path class="st0" d="M354.06,118.74v-13.16h3.16v12.38c0,3.94,2.09,6.4,5.86,6.4s6.36-2.67,6.36-6.64v-12.14h3.12v21.2h-3.12v-3.69c-1.43,2.3-3.61,4.14-7.26,4.14-5.08,0-8.12-3.44-8.12-8.49Z"/>
  <path class="st0" d="M380.75,121.16v-12.79h-2.95v-2.79h2.95v-6.4h3.16v6.4h6.72v2.79h-6.72v12.38c0,2.62,1.43,3.53,3.57,3.53,1.11,0,1.97-.21,3.07-.74v2.71c-1.11.62-2.29.9-3.81.9-3.44,0-5.99-1.68-5.99-5.99Z"/>
  <path class="st0" d="M399.36,122.72v4.06h-3.16v-29.93h3.16v13c1.76-2.5,4.18-4.72,8.12-4.72,5.08,0,10.13,4.02,10.13,10.99v.08c0,6.89-5,11.03-10.13,11.03-3.94,0-6.48-2.09-8.12-4.51ZM414.37,116.24v-.08c0-5.04-3.4-8.2-7.46-8.2s-7.67,3.36-7.67,8.16v.08c0,4.92,3.73,8.2,7.67,8.2s7.46-3.03,7.46-8.16Z"/>
  <path class="st0" d="M422.11,116.28v-.08c0-6.03,4.63-11.07,11.07-11.07s11.03,5,11.03,10.99v.08c0,6.03-4.72,11.07-11.11,11.07s-10.99-5-10.99-10.99ZM440.97,116.28v-.08c0-4.55-3.4-8.28-7.87-8.28s-7.75,3.73-7.75,8.2v.08c0,4.55,3.36,8.24,7.83,8.24s7.79-3.73,7.79-8.16Z"/>
  <path class="st0" d="M450.2,96.85h3.16v29.93h-3.16v-29.93Z"/>
  <path class="st0" d="M459.38,116.24v-.08c0-6.11,4.26-11.03,10.17-11.03,6.27,0,9.88,5,9.88,11.19,0,.45,0,.66-.04,1.03h-16.81c.45,4.59,3.69,7.17,7.46,7.17,2.95,0,4.92-1.19,6.68-2.99l1.97,1.76c-2.13,2.42-4.67,3.98-8.73,3.98-5.78,0-10.58-4.47-10.58-11.03ZM476.23,115.01c-.33-3.81-2.5-7.22-6.77-7.22-3.73,0-6.44,3.12-6.89,7.22h13.65Z"/>
  <path class="st0" d="M484.97,105.58h3.16v5.54c1.56-3.53,4.63-6.03,8.65-5.9v3.4h-.25c-4.63,0-8.41,3.32-8.41,9.72v8.45h-3.16v-21.2Z"/>
  <path class="st0" d="M498.95,120.63v-.08c0-4.43,3.69-6.85,9.06-6.85,2.75,0,4.59.37,6.52.9v-.74c0-3.81-2.34-5.78-6.31-5.78-2.5,0-4.47.62-6.44,1.56l-.94-2.58c2.34-1.11,4.59-1.76,7.71-1.76s5.29.78,6.85,2.34c1.44,1.43,2.17,3.53,2.17,6.19v12.96h-3.04v-3.2c-1.48,1.93-3.89,3.65-7.67,3.65s-7.91-2.21-7.91-6.6ZM514.57,118.99v-2.05c-1.6-.45-3.61-.9-6.23-.9-3.98,0-6.19,1.72-6.19,4.39v.08c0,2.67,2.5,4.22,5.33,4.22,3.94,0,7.09-2.38,7.09-5.74Z"/>
  <path class="st0" d="M522.85,105.95c2.09-.78,2.91-1.8,2.75-3.57h-1.48v-4.31h3.77v3.69c0,3.32-1.43,4.92-4.55,5.62l-.49-1.44ZM531.05,105.95c2.09-.78,2.91-1.8,2.75-3.57h-1.48v-4.31h3.73v3.69c0,3.32-1.39,4.92-4.51,5.62l-.49-1.44Z"/>
  <path class="st0" d="M540.89,130.34c2.09-.78,2.91-1.8,2.75-3.57h-1.48v-4.3h3.77v3.69c0,3.32-1.44,4.92-4.55,5.62l-.49-1.43Z"/>
  <path class="st0" d="M114.47,154.49c0-3.32,1.39-4.92,4.51-5.62l.49,1.44c-2.09.78-2.87,1.8-2.75,3.57h1.52v4.31h-3.77v-3.69ZM122.67,154.49c0-3.32,1.39-4.92,4.51-5.62l.49,1.44c-2.09.78-2.87,1.8-2.75,3.57h1.48v4.31h-3.73v-3.69Z"/>
  <path class="st0" d="M132.56,163.51v-.08c0-8.12,6.11-14.84,14.51-14.84,5.21,0,8.36,1.8,11.19,4.55l-2.21,2.38c-2.46-2.3-5.08-3.94-9.02-3.94-6.36,0-11.11,5.17-11.11,11.77v.08c0,6.64,4.76,11.85,11.11,11.85,3.94,0,6.52-1.52,9.27-4.14l2.13,2.09c-2.95,3.03-6.31,5.04-11.48,5.04-8.28,0-14.39-6.52-14.39-14.76Z"/>
  <path class="st0" d="M161.99,167.28v-.08c0-6.03,4.63-11.07,11.07-11.07s11.03,5,11.03,10.99v.08c0,6.03-4.71,11.07-11.11,11.07s-10.99-5-10.99-10.99ZM180.85,167.28v-.08c0-4.55-3.4-8.28-7.87-8.28s-7.75,3.73-7.75,8.2v.08c0,4.55,3.36,8.24,7.83,8.24s7.79-3.73,7.79-8.16Z"/>
  <path class="st0" d="M189.79,156.58h3.16v3.69c1.44-2.3,3.61-4.14,7.26-4.14,5.08,0,8.12,3.44,8.12,8.49v13.16h-3.16v-12.38c0-3.94-2.09-6.4-5.86-6.4s-6.36,2.67-6.36,6.64v12.14h-3.16v-21.2Z"/>
  <path class="st0" d="M216.24,159.37h-2.91v-2.75h2.91v-1.84c0-2.42.62-4.22,1.84-5.45,1.11-1.11,2.62-1.64,4.55-1.64,1.48,0,2.46.16,3.48.53v2.75c-1.15-.33-1.97-.53-3.08-.53-2.46,0-3.69,1.52-3.69,4.51v1.72h6.72v2.71h-6.68v18.41h-3.16v-18.41ZM230.18,148.46h3.61v3.49h-3.61v-3.49ZM230.42,156.58h3.12v21.2h-3.12v-21.2Z"/>
  <path class="st0" d="M239.32,171.63v-.08c0-4.43,3.69-6.85,9.06-6.85,2.75,0,4.59.37,6.52.9v-.74c0-3.81-2.34-5.78-6.31-5.78-2.5,0-4.47.62-6.44,1.56l-.94-2.58c2.34-1.11,4.59-1.76,7.71-1.76s5.29.78,6.85,2.34c1.44,1.43,2.17,3.53,2.17,6.19v12.96h-3.03v-3.2c-1.48,1.93-3.9,3.65-7.67,3.65s-7.91-2.21-7.91-6.6ZM254.94,169.99v-2.05c-1.6-.45-3.61-.9-6.23-.9-3.98,0-6.19,1.72-6.19,4.39v.08c0,2.67,2.5,4.22,5.33,4.22,3.94,0,7.09-2.38,7.09-5.74Z"/>
  <path class="st0" d="M264.66,156.58h3.16v3.69c1.43-2.3,3.61-4.14,7.26-4.14,5.08,0,8.12,3.44,8.12,8.49v13.16h-3.16v-12.38c0-3.94-2.09-6.4-5.86-6.4s-6.35,2.67-6.35,6.64v12.14h-3.16v-21.2Z"/>
  <path class="st0" d="M288.68,175.77l14.06-16.52h-13.57v-2.67h17.88v2.01l-14.1,16.52h14.1v2.67h-18.37v-2.01Z"/>
  <path class="st0" d="M311.11,171.63v-.08c0-4.43,3.69-6.85,9.06-6.85,2.75,0,4.59.37,6.52.9v-.74c0-3.81-2.34-5.78-6.31-5.78-2.5,0-4.47.62-6.44,1.56l-.94-2.58c2.34-1.11,4.59-1.76,7.71-1.76s5.29.78,6.85,2.34c1.44,1.43,2.17,3.53,2.17,6.19v12.96h-3.03v-3.2c-1.48,1.93-3.89,3.65-7.67,3.65s-7.91-2.21-7.91-6.6ZM326.73,169.99v-2.05c-1.6-.45-3.61-.9-6.23-.9-3.98,0-6.19,1.72-6.19,4.39v.08c0,2.67,2.5,4.22,5.33,4.22,3.94,0,7.09-2.38,7.09-5.74Z"/>
  <path class="st0" d="M348.83,148.46h3.61v3.49h-3.61v-3.49ZM349.03,156.58h3.16v21.2h-3.16v-21.2Z"/>
  <path class="st0" d="M359.53,156.58h3.16v3.69c1.43-2.3,3.61-4.14,7.26-4.14,5.08,0,8.12,3.44,8.12,8.49v13.16h-3.16v-12.38c0-3.94-2.09-6.4-5.86-6.4s-6.35,2.67-6.35,6.64v12.14h-3.16v-21.2Z"/>
  <path class="st0" d="M381.88,156.58h3.48l7.13,17.59,7.17-17.59h3.4l-9.23,21.36h-2.79l-9.18-21.36Z"/>
  <path class="st0" d="M405.49,167.24v-.08c0-6.11,4.26-11.03,10.17-11.03,6.27,0,9.88,5,9.88,11.19,0,.45,0,.66-.04,1.03h-16.81c.45,4.59,3.69,7.17,7.46,7.17,2.95,0,4.92-1.19,6.68-2.99l1.97,1.76c-2.13,2.42-4.67,3.98-8.73,3.98-5.78,0-10.58-4.47-10.58-11.03ZM422.34,166.01c-.33-3.81-2.5-7.22-6.77-7.22-3.73,0-6.44,3.12-6.89,7.22h13.65Z"/>
  <path class="st0" d="M431.07,156.58h3.16v3.69c1.43-2.3,3.61-4.14,7.26-4.14,5.08,0,8.12,3.44,8.12,8.49v13.16h-3.16v-12.38c0-3.94-2.09-6.4-5.86-6.4s-6.35,2.67-6.35,6.64v12.14h-3.16v-21.2Z"/>
  <path class="st0" d="M455.02,167.28v-.08c0-6.03,4.63-11.07,10.87-11.07,4.02,0,6.48,1.64,8.49,3.77l-2.09,2.21c-1.68-1.76-3.53-3.2-6.44-3.2-4.3,0-7.58,3.61-7.58,8.2v.08c0,4.59,3.36,8.24,7.79,8.24,2.75,0,4.8-1.35,6.48-3.16l2.01,1.89c-2.13,2.42-4.67,4.1-8.65,4.1-6.23,0-10.87-5.04-10.87-10.99Z"/>
  <path class="st0" d="M479.82,148.46h3.61v3.49h-3.61v-3.49ZM480.03,156.58h3.16v21.2h-3.16v-21.2Z"/>
  <path class="st0" d="M493.68,173.72v4.06h-3.16v-29.93h3.16v13c1.76-2.5,4.18-4.72,8.12-4.72,5.08,0,10.13,4.02,10.13,10.99v.08c0,6.89-5,11.03-10.13,11.03-3.94,0-6.48-2.09-8.12-4.51ZM508.69,167.24v-.08c0-5.04-3.4-8.2-7.46-8.2s-7.67,3.36-7.67,8.16v.08c0,4.92,3.73,8.2,7.67,8.2s7.46-3.03,7.46-8.16Z"/>
  <path class="st0" d="M518.03,147.85h3.16v29.93h-3.16v-29.93Z"/>
  <path class="st0" d="M527.22,167.24v-.08c0-6.11,4.26-11.03,10.17-11.03,6.27,0,9.88,5,9.88,11.19,0,.45,0,.66-.04,1.03h-16.81c.45,4.59,3.69,7.17,7.46,7.17,2.95,0,4.92-1.19,6.68-2.99l1.97,1.76c-2.13,2.42-4.67,3.98-8.73,3.98-5.78,0-10.58-4.47-10.58-11.03ZM544.07,166.01c-.33-3.81-2.5-7.22-6.77-7.22-3.73,0-6.44,3.12-6.89,7.22h13.65Z"/>
  <path class="st0" d="M551.37,156.95c2.09-.78,2.91-1.8,2.75-3.57h-1.48v-4.31h3.77v3.69c0,3.32-1.44,4.92-4.55,5.62l-.49-1.44ZM559.57,156.95c2.09-.78,2.91-1.8,2.75-3.57h-1.48v-4.31h3.73v3.69c0,3.32-1.39,4.92-4.51,5.62l-.49-1.44Z"/>
  <path class="st0" d="M569.41,181.34c2.09-.78,2.91-1.8,2.75-3.57h-1.48v-4.3h3.77v3.69c0,3.32-1.43,4.92-4.55,5.62l-.49-1.43Z"/>
  <path class="st0" d="M110.27,218.28v-.08c0-6.03,4.63-11.07,11.07-11.07s11.03,5,11.03,10.99v.08c0,6.03-4.71,11.07-11.11,11.07s-10.99-5-10.99-10.99ZM129.13,218.28v-.08c0-4.55-3.4-8.28-7.87-8.28s-7.75,3.73-7.75,8.2v.08c0,4.55,3.36,8.24,7.83,8.24s7.79-3.73,7.79-8.16Z"/>
  <path class="st0" d="M148.77,222.63v-.08c0-4.43,3.69-6.85,9.06-6.85,2.75,0,4.59.37,6.52.9v-.74c0-3.81-2.34-5.78-6.31-5.78-2.5,0-4.47.62-6.44,1.56l-.94-2.58c2.34-1.11,4.59-1.76,7.71-1.76s5.29.78,6.85,2.34c1.43,1.43,2.17,3.53,2.17,6.19v12.96h-3.03v-3.2c-1.48,1.93-3.89,3.65-7.67,3.65s-7.91-2.21-7.91-6.6ZM164.39,220.99v-2.05c-1.6-.45-3.61-.9-6.23-.9-3.98,0-6.19,1.72-6.19,4.39v.08c0,2.67,2.5,4.22,5.33,4.22,3.94,0,7.09-2.38,7.09-5.74Z"/>
  <path class="st0" d="M185.84,205.49c0-3.32,1.39-4.92,4.51-5.62l.49,1.44c-2.09.78-2.87,1.8-2.75,3.57h1.52v4.31h-3.77v-3.69ZM194.04,205.49c0-3.32,1.39-4.92,4.51-5.62l.49,1.44c-2.09.78-2.87,1.8-2.75,3.57h1.48v4.31h-3.73v-3.69Z"/>
  <path class="st0" d="M205.19,200.08h20.75v2.95h-17.51v9.8h15.66v2.95h-15.66v10.04h17.71v2.95h-20.95v-28.7Z"/>
  <path class="st0" d="M230.36,226.07l1.6-2.25c2.3,1.76,4.84,2.71,7.34,2.71s4.39-1.27,4.39-3.36v-.08c0-2.09-2.5-2.95-5.29-3.73-3.28-.98-7.01-2.05-7.01-5.99v-.08c0-3.65,3.03-6.07,7.22-6.07,2.62,0,5.45.9,7.63,2.34l-1.43,2.38c-1.97-1.27-4.18-2.05-6.27-2.05-2.5,0-4.1,1.31-4.1,3.08v.08c0,2.01,2.62,2.79,5.45,3.65,3.28.98,6.81,2.25,6.81,6.07v.08c0,4.02-3.32,6.35-7.54,6.35-3.08,0-6.35-1.19-8.77-3.12Z"/>
  <path class="st0" d="M252.54,207.58h3.16v4.26c1.76-2.5,4.18-4.72,8.12-4.72,5.08,0,10.13,4.02,10.13,10.99v.08c0,6.89-5,11.03-10.13,11.03-3.94,0-6.48-2.09-8.12-4.51v10.62h-3.16v-27.76ZM270.71,218.24v-.08c0-5.04-3.4-8.2-7.46-8.2s-7.67,3.36-7.67,8.16v.08c0,4.92,3.73,8.2,7.67,8.2s7.46-3.03,7.46-8.16Z"/>
  <path class="st0" d="M280.05,207.58h3.16v21.2h-3.16v-21.2ZM284.28,198.44l3.28,1.52-4.67,4.43h-2.46l3.85-5.95Z"/>
  <path class="st0" d="M290.55,207.58h3.16v5.54c1.56-3.53,4.63-6.03,8.65-5.9v3.4h-.25c-4.63,0-8.41,3.32-8.41,9.72v8.45h-3.16v-21.2Z"/>
  <path class="st0" d="M307.23,199.46h3.61v3.49h-3.61v-3.49ZM307.44,207.58h3.16v21.2h-3.16v-21.2Z"/>
  <path class="st0" d="M319.04,223.16v-12.79h-2.95v-2.79h2.95v-6.4h3.16v6.4h6.72v2.79h-6.72v12.38c0,2.62,1.44,3.53,3.57,3.53,1.11,0,1.97-.21,3.08-.74v2.71c-1.11.62-2.3.9-3.81.9-3.44,0-5.99-1.68-5.99-5.99Z"/>
  <path class="st0" d="M334.17,220.74v-13.16h3.16v12.38c0,3.94,2.09,6.4,5.86,6.4s6.36-2.67,6.36-6.64v-12.14h3.12v21.2h-3.12v-3.69c-1.44,2.3-3.61,4.14-7.26,4.14-5.08,0-8.12-3.44-8.12-8.49Z"/>
  <path class="st0" d="M371.81,232.47l1.44-2.46c2.46,1.76,5.08,2.71,8.16,2.71,4.71,0,7.71-2.58,7.71-7.54v-2.5c-1.85,2.46-4.43,4.47-8.32,4.47-5.08,0-9.96-3.85-9.96-9.92v-.08c0-6.19,4.88-10,9.96-10,3.98,0,6.52,1.97,8.28,4.26v-3.81h3.16v17.51c0,3.28-.94,5.74-2.71,7.5-1.93,1.93-4.67,2.83-8.08,2.83s-6.81-.98-9.63-2.95ZM389.19,217.17v-.08c0-4.35-3.77-7.18-7.79-7.18s-7.34,2.79-7.34,7.13v.08c0,4.26,3.4,7.22,7.34,7.22s7.79-2.91,7.79-7.17Z"/>
  <path class="st0" d="M397.97,218.28v-.08c0-6.03,4.63-11.07,11.07-11.07s11.03,5,11.03,10.99v.08c0,6.03-4.72,11.07-11.11,11.07s-10.99-5-10.99-10.99ZM416.83,218.28v-.08c0-4.55-3.4-8.28-7.87-8.28s-7.75,3.73-7.75,8.2v.08c0,4.55,3.36,8.24,7.83,8.24s7.79-3.73,7.79-8.16Z"/>
  <path class="st0" d="M426.05,198.85h3.16v29.93h-3.16v-29.93Z"/>
  <path class="st0" d="M435.23,218.24v-.08c0-6.11,4.26-11.03,10.17-11.03,6.27,0,9.88,5,9.88,11.19,0,.45,0,.66-.04,1.03h-16.81c.45,4.59,3.69,7.17,7.46,7.17,2.95,0,4.92-1.19,6.68-2.99l1.97,1.76c-2.13,2.42-4.67,3.98-8.73,3.98-5.78,0-10.58-4.47-10.58-11.03ZM452.09,217.01c-.33-3.81-2.5-7.22-6.77-7.22-3.73,0-6.44,3.12-6.89,7.22h13.65Z"/>
  <path class="st0" d="M459.22,222.63v-.08c0-4.43,3.69-6.85,9.06-6.85,2.75,0,4.59.37,6.52.9v-.74c0-3.81-2.34-5.78-6.31-5.78-2.5,0-4.47.62-6.44,1.56l-.94-2.58c2.34-1.11,4.59-1.76,7.71-1.76s5.29.78,6.85,2.34c1.44,1.43,2.17,3.53,2.17,6.19v12.96h-3.03v-3.2c-1.48,1.93-3.89,3.65-7.67,3.65s-7.91-2.21-7.91-6.6ZM474.84,220.99v-2.05c-1.6-.45-3.61-.9-6.23-.9-3.98,0-6.19,1.72-6.19,4.39v.08c0,2.67,2.5,4.22,5.33,4.22,3.94,0,7.09-2.38,7.09-5.74Z"/>
  <path class="st0" d="M483.33,218.24v-.08c0-6.89,5.04-11.03,10.13-11.03,3.94,0,6.48,2.09,8.12,4.51v-12.79h3.16v29.93h-3.16v-4.26c-1.76,2.54-4.18,4.71-8.12,4.71-5.08,0-10.13-4.02-10.13-10.99ZM501.7,218.2v-.08c0-4.88-3.73-8.16-7.67-8.16s-7.46,3.03-7.46,8.16v.08c0,5.04,3.4,8.2,7.46,8.2s7.67-3.32,7.67-8.2Z"/>
  <path class="st0" d="M510.47,218.28v-.08c0-6.03,4.63-11.07,11.07-11.07s11.03,5,11.03,10.99v.08c0,6.03-4.71,11.07-11.11,11.07s-10.99-5-10.99-10.99ZM529.33,218.28v-.08c0-4.55-3.4-8.28-7.87-8.28s-7.75,3.73-7.75,8.2v.08c0,4.55,3.36,8.24,7.83,8.24s7.79-3.73,7.79-8.16Z"/>
  <path class="st0" d="M538.27,207.58h3.16v5.54c1.56-3.53,4.63-6.03,8.65-5.9v3.4h-.25c-4.63,0-8.41,3.32-8.41,9.72v8.45h-3.16v-21.2Z"/>
  <path class="st0" d="M554.87,207.95c2.09-.78,2.91-1.8,2.75-3.57h-1.48v-4.31h3.77v3.69c0,3.32-1.44,4.92-4.55,5.62l-.49-1.44ZM563.07,207.95c2.09-.78,2.91-1.8,2.75-3.57h-1.48v-4.31h3.73v3.69c0,3.32-1.39,4.92-4.51,5.62l-.49-1.44Z"/>
  <path class="st0" d="M574.14,224.47h3.77v4.3h-3.77v-4.3Z"/>
  <path class="st0" d="M35.87,307.67h16.7v2.38h-14.09v7.89h12.61v2.38h-12.61v8.09h14.26v2.38h-16.87v-23.1Z"/>
  <path class="st0" d="M56.13,328.6l1.29-1.82c1.85,1.42,3.89,2.18,5.91,2.18s3.53-1.02,3.53-2.71v-.07c0-1.68-2.01-2.38-4.26-3-2.64-.79-5.64-1.65-5.64-4.82v-.07c0-2.94,2.44-4.88,5.81-4.88,2.11,0,4.39.73,6.14,1.88l-1.16,1.91c-1.58-1.02-3.37-1.65-5.05-1.65-2.01,0-3.3,1.06-3.3,2.48v.07c0,1.62,2.11,2.24,4.39,2.94,2.64.79,5.48,1.82,5.48,4.88v.07c0,3.23-2.67,5.12-6.07,5.12-2.47,0-5.12-.96-7.06-2.51Z"/>
  <path class="st0" d="M72.93,322.33v-.07c0-4.85,3.73-8.91,8.75-8.91,3.23,0,5.21,1.32,6.83,3.04l-1.68,1.78c-1.35-1.42-2.84-2.57-5.18-2.57-3.46,0-6.11,2.9-6.11,6.6v.07c0,3.7,2.71,6.63,6.27,6.63,2.21,0,3.86-1.09,5.21-2.54l1.62,1.52c-1.72,1.95-3.76,3.3-6.96,3.3-5.02,0-8.75-4.06-8.75-8.85Z"/>
  <path class="st0" d="M92.82,313.71h2.54v4.46c1.25-2.84,3.73-4.85,6.96-4.75v2.74h-.2c-3.73,0-6.77,2.67-6.77,7.82v6.8h-2.54v-17.06Z"/>
  <path class="st0" d="M106.42,313.71h2.54v17.06h-2.54v-17.06ZM109.82,306.35l2.64,1.22-3.76,3.56h-1.98l3.1-4.79Z"/>
  <path class="st0" d="M117.41,327.51v3.27h-2.54v-24.09h2.54v10.46c1.42-2.01,3.37-3.8,6.53-3.8,4.09,0,8.15,3.24,8.15,8.85v.07c0,5.54-4.03,8.88-8.15,8.88-3.17,0-5.21-1.68-6.53-3.63ZM129.49,322.29v-.07c0-4.06-2.74-6.6-6.01-6.6s-6.17,2.71-6.17,6.57v.07c0,3.96,3,6.6,6.17,6.6s6.01-2.44,6.01-6.57Z"/>
  <path class="st0" d="M135.72,322.29v-.07c0-4.92,3.43-8.88,8.19-8.88,5.05,0,7.95,4.03,7.95,9.01,0,.36,0,.53-.03.83h-13.53c.36,3.7,2.97,5.78,6.01,5.78,2.38,0,3.96-.96,5.38-2.41l1.58,1.42c-1.72,1.95-3.76,3.2-7.03,3.2-4.65,0-8.51-3.6-8.51-8.88ZM149.29,321.3c-.26-3.07-2.01-5.81-5.45-5.81-3,0-5.18,2.51-5.54,5.81h10.99Z"/>
  <path class="st0" d="M156.55,306.68h2.54v24.09h-2.54v-24.09Z"/>
  <path class="st0" d="M163.94,322.33v-.07c0-4.85,3.73-8.91,8.91-8.91s8.88,4.03,8.88,8.85v.07c0,4.85-3.8,8.91-8.94,8.91s-8.85-4.03-8.85-8.85ZM179.12,322.33v-.07c0-3.66-2.74-6.67-6.34-6.67s-6.24,3-6.24,6.6v.07c0,3.66,2.71,6.63,6.3,6.63s6.27-3,6.27-6.57Z"/>
  <path class="st0" d="M194.92,325.83v-.07c0-3.56,2.97-5.51,7.29-5.51,2.21,0,3.7.3,5.25.73v-.59c0-3.07-1.88-4.65-5.08-4.65-2.01,0-3.6.5-5.18,1.25l-.76-2.08c1.88-.89,3.7-1.42,6.21-1.42s4.26.63,5.51,1.88c1.16,1.16,1.75,2.84,1.75,4.98v10.43h-2.44v-2.57c-1.19,1.55-3.14,2.94-6.17,2.94s-6.37-1.78-6.37-5.31ZM207.5,324.51v-1.65c-1.29-.36-2.9-.73-5.02-.73-3.2,0-4.98,1.39-4.98,3.53v.07c0,2.15,2.01,3.4,4.29,3.4,3.17,0,5.71-1.91,5.71-4.62Z"/>
  <path class="st0" d="M215.32,306.68h2.54v10c1.16-1.85,2.9-3.33,5.84-3.33,4.09,0,6.53,2.77,6.53,6.83v10.59h-2.54v-9.97c0-3.17-1.68-5.15-4.72-5.15s-5.12,2.15-5.12,5.35v9.77h-2.54v-24.09Z"/>
  <path class="st0" d="M234.59,322.33v-.07c0-4.85,3.73-8.91,8.91-8.91s8.88,4.03,8.88,8.85v.07c0,4.85-3.8,8.91-8.94,8.91s-8.85-4.03-8.85-8.85ZM249.77,322.33v-.07c0-3.66-2.74-6.67-6.34-6.67s-6.24,3-6.24,6.6v.07c0,3.66,2.71,6.63,6.3,6.63s6.27-3,6.27-6.57Z"/>
  <path class="st0" d="M256.96,313.71h2.54v4.46c1.25-2.84,3.73-4.85,6.96-4.75v2.74h-.2c-3.73,0-6.77,2.67-6.77,7.82v6.8h-2.54v-17.06Z"/>
  <path class="st0" d="M268.22,325.83v-.07c0-3.56,2.97-5.51,7.29-5.51,2.21,0,3.7.3,5.25.73v-.59c0-3.07-1.88-4.65-5.08-4.65-2.01,0-3.6.5-5.18,1.25l-.76-2.08c1.88-.89,3.7-1.42,6.21-1.42s4.26.63,5.51,1.88c1.16,1.16,1.75,2.84,1.75,4.98v10.43h-2.44v-2.57c-1.19,1.55-3.14,2.94-6.17,2.94s-6.37-1.78-6.37-5.31ZM280.79,324.51v-1.65c-1.29-.36-2.9-.73-5.02-.73-3.2,0-4.98,1.39-4.98,3.53v.07c0,2.15,2.01,3.4,4.29,3.4,3.17,0,5.71-1.91,5.71-4.62Z"/>
  <path class="st0" d="M311.28,313.71h2.71l-7.16,17.62c-1.45,3.53-3.13,4.82-5.68,4.82-1.42,0-2.48-.3-3.63-.86l.86-2.01c.83.43,1.58.63,2.67.63,1.55,0,2.48-.79,3.5-3.2l-7.76-17h2.81l6.21,14.23,5.48-14.23Z"/>
  <path class="st0" d="M327.91,313.71h2.54v3.43c1.42-2.01,3.37-3.8,6.54-3.8,4.09,0,8.15,3.24,8.15,8.85v.07c0,5.54-4.03,8.88-8.15,8.88-3.17,0-5.21-1.68-6.54-3.63v8.55h-2.54v-22.34ZM342.54,322.29v-.07c0-4.06-2.74-6.6-6.01-6.6s-6.17,2.71-6.17,6.57v.07c0,3.96,3,6.6,6.17,6.6s6.01-2.44,6.01-6.57Z"/>
  <path class="st0" d="M348.77,322.33v-.07c0-4.85,3.73-8.91,8.91-8.91s8.88,4.03,8.88,8.85v.07c0,4.85-3.79,8.91-8.94,8.91s-8.84-4.03-8.84-8.85ZM363.95,322.33v-.07c0-3.66-2.74-6.67-6.34-6.67s-6.24,3-6.24,6.6v.07c0,3.66,2.71,6.63,6.3,6.63s6.27-3,6.27-6.57Z"/>
  <path class="st0" d="M371.14,313.71h2.54v2.97c1.16-1.85,2.9-3.33,5.84-3.33,4.09,0,6.54,2.77,6.54,6.83v10.59h-2.54v-9.97c0-3.17-1.68-5.15-4.72-5.15s-5.12,2.15-5.12,5.35v9.77h-2.54v-17.06Z"/>
  <path class="st0" d="M392.36,326.25v-10.3h-2.38v-2.24h2.38v-5.15h2.54v5.15h5.41v2.24h-5.41v9.97c0,2.11,1.16,2.84,2.87,2.84.89,0,1.58-.17,2.47-.59v2.18c-.89.5-1.85.73-3.07.73-2.77,0-4.82-1.35-4.82-4.82Z"/>
  <path class="st0" d="M403.25,322.29v-.07c0-4.92,3.43-8.88,8.18-8.88,5.05,0,7.95,4.03,7.95,9.01,0,.36,0,.53-.03.83h-13.53c.36,3.7,2.97,5.78,6.01,5.78,2.38,0,3.96-.96,5.38-2.41l1.58,1.42c-1.72,1.95-3.76,3.2-7.03,3.2-4.65,0-8.51-3.6-8.51-8.88ZM416.82,321.3c-.26-3.07-2.01-5.81-5.45-5.81-3,0-5.18,2.51-5.54,5.81h10.99Z"/>
  <path class="st0" d="M433.97,306.68h2.54v24.09h-2.54v-24.09Z"/>
  <path class="st0" d="M441.37,322.33v-.07c0-4.85,3.73-8.91,8.91-8.91s8.88,4.03,8.88,8.85v.07c0,4.85-3.8,8.91-8.94,8.91s-8.85-4.03-8.85-8.85ZM456.55,322.33v-.07c0-3.66-2.74-6.67-6.34-6.67s-6.24,3-6.24,6.6v.07c0,3.66,2.71,6.63,6.3,6.63s6.27-3,6.27-6.57Z"/>
  <path class="st0" d="M462.32,328.6l1.29-1.82c1.85,1.42,3.89,2.18,5.91,2.18s3.53-1.02,3.53-2.71v-.07c0-1.68-2.01-2.38-4.26-3-2.64-.79-5.64-1.65-5.64-4.82v-.07c0-2.94,2.44-4.88,5.81-4.88,2.11,0,4.39.73,6.14,1.88l-1.16,1.91c-1.58-1.02-3.37-1.65-5.05-1.65-2.01,0-3.3,1.06-3.3,2.48v.07c0,1.62,2.11,2.24,4.39,2.94,2.64.79,5.48,1.82,5.48,4.88v.07c0,3.23-2.67,5.12-6.07,5.12-2.47,0-5.12-.96-7.06-2.51Z"/>
  <path class="st0" d="M488.79,325.83v-.07c0-3.56,2.97-5.51,7.29-5.51,2.21,0,3.7.3,5.25.73v-.59c0-3.07-1.88-4.65-5.08-4.65-2.01,0-3.6.5-5.18,1.25l-.76-2.08c1.88-.89,3.7-1.42,6.21-1.42s4.26.63,5.51,1.88c1.16,1.16,1.75,2.84,1.75,4.98v10.43h-2.44v-2.57c-1.19,1.55-3.14,2.94-6.17,2.94s-6.37-1.78-6.37-5.31ZM501.36,324.51v-1.65c-1.29-.36-2.9-.73-5.02-.73-3.2,0-4.98,1.39-4.98,3.53v.07c0,2.15,2.01,3.4,4.29,3.4,3.17,0,5.71-1.91,5.71-4.62Z"/>
  <path class="st0" d="M508.92,324.31v-10.59h2.54v9.97c0,3.17,1.68,5.15,4.72,5.15s5.12-2.15,5.12-5.35v-9.77h2.51v17.06h-2.51v-2.97c-1.16,1.85-2.91,3.33-5.84,3.33-4.09,0-6.54-2.77-6.54-6.83Z"/>
  <path class="st0" d="M528.52,322.29v-.07c0-5.54,4.06-8.88,8.15-8.88,3.17,0,5.21,1.68,6.54,3.63v-10.3h2.54v24.09h-2.54v-3.43c-1.42,2.05-3.37,3.8-6.54,3.8-4.09,0-8.15-3.23-8.15-8.85ZM543.3,322.26v-.07c0-3.93-3-6.57-6.17-6.57s-6.01,2.44-6.01,6.57v.07c0,4.06,2.74,6.6,6.01,6.6s6.17-2.67,6.17-6.6Z"/>
  <path class="st0" d="M551.65,313.71h2.54v17.06h-2.54v-17.06ZM555.05,306.35l2.64,1.22-3.76,3.56h-1.98l3.1-4.79Z"/>
  <path class="st0" d="M561.05,315.96h-2.34v-2.21h2.34v-1.49c0-1.95.5-3.4,1.49-4.39.89-.89,2.11-1.32,3.66-1.32,1.19,0,1.98.13,2.81.43v2.21c-.92-.26-1.58-.43-2.48-.43-1.98,0-2.97,1.22-2.97,3.63v1.39h5.41v2.18h-5.38v14.82h-2.54v-14.82Z"/>
  <path class="st0" d="M570.82,322.33v-.07c0-4.85,3.73-8.91,8.91-8.91s8.88,4.03,8.88,8.85v.07c0,4.85-3.79,8.91-8.94,8.91s-8.85-4.03-8.85-8.85ZM586,322.33v-.07c0-3.66-2.74-6.67-6.34-6.67s-6.24,3-6.24,6.6v.07c0,3.66,2.71,6.63,6.3,6.63s6.27-3,6.27-6.57Z"/>
  <path class="st0" d="M593.2,313.71h2.54v2.97c1.15-1.85,2.9-3.33,5.84-3.33,4.09,0,6.53,2.77,6.53,6.83v10.59h-2.54v-9.97c0-3.17-1.68-5.15-4.72-5.15s-5.12,2.15-5.12,5.35v9.77h-2.54v-17.06Z"/>
  <path class="st0" d="M612.47,322.33v-.07c0-4.85,3.73-8.91,8.91-8.91s8.88,4.03,8.88,8.85v.07c0,4.85-3.8,8.91-8.94,8.91s-8.85-4.03-8.85-8.85ZM627.65,322.33v-.07c0-3.66-2.74-6.67-6.34-6.67s-6.24,3-6.24,6.6v.07c0,3.66,2.71,6.63,6.3,6.63s6.27-3,6.27-6.57Z"/>
  <path class="st0" d="M633.42,328.6l1.29-1.82c1.85,1.42,3.89,2.18,5.91,2.18s3.53-1.02,3.53-2.71v-.07c0-1.68-2.01-2.38-4.26-3-2.64-.79-5.64-1.65-5.64-4.82v-.07c0-2.94,2.44-4.88,5.81-4.88,2.11,0,4.39.73,6.14,1.88l-1.15,1.91c-1.58-1.02-3.37-1.65-5.05-1.65-2.01,0-3.3,1.06-3.3,2.48v.07c0,1.62,2.11,2.24,4.39,2.94,2.64.79,5.48,1.82,5.48,4.88v.07c0,3.23-2.67,5.12-6.07,5.12-2.48,0-5.12-.96-7.06-2.51Z"/>
  <path class="st0" d="M650.95,327.31h3.04v3.46h-3.04v-3.46Z"/>
</svg>