<?xml version="1.0" encoding="UTF-8"?>
<svg id="Layer_1" xmlns="http://www.w3.org/2000/svg" version="1.1" viewBox="0 0 642.5 232.5">
  <!-- Generator: Adobe Illustrator 29.7.1, SVG Export Plug-In . SVG Version: 2.1.1 Build 8)  -->
  <defs>
    <style>
      .st0 {
        fill: #fff;
      }
    </style>
  </defs>
  <path class="st0" d="M105.29,42.04v-.09c0-8.98,6.71-16.42,16.05-16.42,5.76,0,9.21,2.04,12.38,5.03l-2.45,2.63c-2.68-2.54-5.67-4.35-9.98-4.35-7.03,0-12.29,5.71-12.29,13.02v.09c0,7.35,5.31,13.11,12.29,13.11,4.35,0,7.21-1.68,10.25-4.58l2.36,2.31c-3.31,3.36-6.94,5.58-12.7,5.58-9.16,0-15.92-7.21-15.92-16.33Z"/>
  <path class="st0" d="M139.76,34.37h3.49v6.12c1.72-3.9,5.12-6.71,9.57-6.53v3.76h-.27c-5.12,0-9.3,3.67-9.3,10.75v9.34h-3.49v-23.45Z"/>
  <path class="st0" d="M155.68,46.16v-.09c0-6.76,4.76-12.2,11.25-12.2,6.94,0,10.93,5.53,10.93,12.38,0,.45,0,.73-.05,1.13h-18.6c.5,5.08,4.08,7.94,8.25,7.94,3.22,0,5.49-1.32,7.39-3.31l2.18,1.95c-2.36,2.63-5.22,4.4-9.66,4.4-6.44,0-11.7-4.94-11.7-12.2ZM174.32,44.8c-.36-4.26-2.81-7.98-7.48-7.98-4.08,0-7.17,3.4-7.62,7.98h15.1Z"/>
  <path class="st0" d="M182.21,51.02v-.09c0-4.94,4.08-7.57,10.02-7.57,2.99,0,5.12.41,7.21,1v-.82c0-4.22-2.58-6.39-6.98-6.39-2.77,0-4.94.73-7.12,1.72l-1.04-2.86c2.58-1.18,5.12-1.95,8.53-1.95s5.85.86,7.57,2.58c1.59,1.59,2.4,3.86,2.4,6.85v14.33h-3.36v-3.54c-1.63,2.13-4.35,4.04-8.48,4.04-4.35,0-8.75-2.49-8.75-7.3ZM199.49,49.2v-2.27c-1.72-.5-4.04-1-6.89-1-4.4,0-6.85,1.9-6.85,4.85v.09c0,2.95,2.72,4.67,5.9,4.67,4.31,0,7.85-2.63,7.85-6.35Z"/>
  <path class="st0" d="M208.88,46.16v-.09c0-7.66,5.58-12.2,11.2-12.2,4.35,0,7.17,2.36,8.98,4.99v-14.15h3.49v33.11h-3.49v-4.72c-1.9,2.81-4.67,5.22-8.98,5.22-5.62,0-11.2-4.45-11.2-12.15ZM229.2,46.12v-.09c0-5.4-4.13-9.03-8.48-9.03s-8.25,3.36-8.25,9.03v.09c0,5.53,3.81,9.07,8.25,9.07s8.48-3.67,8.48-9.07Z"/>
  <path class="st0" d="M238.9,46.21v-.09c0-6.62,5.17-12.25,12.25-12.25s12.2,5.53,12.2,12.15v.09c0,6.62-5.22,12.25-12.29,12.25s-12.16-5.53-12.16-12.15ZM259.76,46.21v-.09c0-5.03-3.76-9.16-8.71-9.16s-8.57,4.13-8.57,9.07v.09c0,5.03,3.72,9.12,8.66,9.12s8.62-4.08,8.62-9.03Z"/>
  <path class="st0" d="M281.8,46.21v-.09c0-6.62,5.17-12.25,12.02-12.25,4.44,0,7.21,1.86,9.39,4.17l-2.31,2.45c-1.86-1.95-3.95-3.54-7.12-3.54-4.76,0-8.39,4.04-8.39,9.07v.09c0,5.08,3.72,9.12,8.62,9.12,2.99,0,5.31-1.5,7.17-3.49l2.22,2.09c-2.36,2.63-5.17,4.54-9.57,4.54-6.85,0-12.02-5.58-12.02-12.15Z"/>
  <path class="st0" d="M307.02,46.21v-.09c0-6.62,5.17-12.25,12.25-12.25s12.2,5.53,12.2,12.15v.09c0,6.62-5.22,12.25-12.29,12.25s-12.15-5.53-12.15-12.15ZM327.88,46.21v-.09c0-5.03-3.76-9.16-8.71-9.16s-8.57,4.13-8.57,9.07v.09c0,5.03,3.72,9.12,8.66,9.12s8.62-4.08,8.62-9.03Z"/>
  <path class="st0" d="M337.77,34.37h3.49v4.08c1.54-2.54,3.99-4.58,8.03-4.58,5.67,0,8.98,3.81,8.98,9.39v14.56h-3.49v-13.7c0-4.35-2.36-7.08-6.48-7.08s-7.03,2.95-7.03,7.35v13.42h-3.49v-23.45Z"/>
  <path class="st0" d="M377.86,46.16v-.09c0-6.76,4.76-12.2,11.25-12.2,6.94,0,10.93,5.53,10.93,12.38,0,.45,0,.73-.05,1.13h-18.6c.5,5.08,4.08,7.94,8.25,7.94,3.22,0,5.49-1.32,7.39-3.31l2.18,1.95c-2.36,2.63-5.22,4.4-9.66,4.4-6.44,0-11.7-4.94-11.7-12.2ZM396.5,44.8c-.36-4.26-2.81-7.98-7.48-7.98-4.08,0-7.17,3.4-7.62,7.98h15.1Z"/>
  <path class="st0" d="M406.47,24.71h3.49v33.11h-3.49V24.71Z"/>
  <path class="st0" d="M431.69,34.37h3.49v4.72c1.9-2.81,4.67-5.22,8.98-5.22,5.62,0,11.2,4.44,11.2,12.15v.09c0,7.66-5.53,12.2-11.2,12.2-4.35,0-7.17-2.36-8.98-4.99v11.75h-3.49v-30.7ZM451.78,46.16v-.09c0-5.53-3.81-9.07-8.25-9.07s-8.48,3.67-8.48,9.03v.09c0,5.44,4.13,9.07,8.48,9.07s8.25-3.36,8.25-9.03Z"/>
  <path class="st0" d="M460.35,46.21v-.09c0-6.62,5.17-12.25,12.25-12.25s12.2,5.53,12.2,12.15v.09c0,6.62-5.22,12.25-12.29,12.25s-12.15-5.53-12.15-12.15ZM481.21,46.21v-.09c0-5.03-3.76-9.16-8.71-9.16s-8.57,4.13-8.57,9.07v.09c0,5.03,3.72,9.12,8.66,9.12s8.62-4.08,8.62-9.03Z"/>
  <path class="st0" d="M489.74,46.16v-.09c0-7.66,5.58-12.2,11.2-12.2,4.35,0,7.17,2.36,8.98,4.99v-14.15h3.49v33.11h-3.49v-4.72c-1.9,2.81-4.67,5.22-8.98,5.22-5.62,0-11.2-4.45-11.2-12.15ZM510.06,46.12v-.09c0-5.4-4.13-9.03-8.48-9.03s-8.25,3.36-8.25,9.03v.09c0,5.53,3.81,9.07,8.25,9.07s8.48-3.67,8.48-9.07Z"/>
  <path class="st0" d="M519.76,46.16v-.09c0-6.76,4.76-12.2,11.25-12.2,6.94,0,10.93,5.53,10.93,12.38,0,.45,0,.73-.05,1.13h-18.6c.5,5.08,4.08,7.94,8.25,7.94,3.22,0,5.49-1.32,7.39-3.31l2.18,1.95c-2.36,2.63-5.22,4.4-9.66,4.4-6.44,0-11.7-4.94-11.7-12.2ZM538.4,44.8c-.36-4.26-2.81-7.98-7.48-7.98-4.08,0-7.17,3.4-7.62,7.98h15.1Z"/>
  <path class="st0" d="M548.06,34.37h3.49v6.12c1.72-3.9,5.12-6.71,9.57-6.53v3.76h-.27c-5.12,0-9.3,3.67-9.3,10.75v9.34h-3.49v-23.45Z"/>
  <path class="st0" d="M51.24,95.97v-.09c0-7.66,5.58-12.2,11.2-12.2,4.35,0,7.17,2.36,8.98,4.99v-14.15h3.49v33.11h-3.49v-4.72c-1.9,2.81-4.67,5.22-8.98,5.22-5.62,0-11.2-4.44-11.2-12.15ZM71.56,95.93v-.09c0-5.4-4.13-9.03-8.48-9.03s-8.25,3.36-8.25,9.03v.09c0,5.53,3.81,9.07,8.25,9.07s8.48-3.67,8.48-9.07Z"/>
  <path class="st0" d="M81.26,95.97v-.09c0-6.76,4.76-12.2,11.25-12.2,6.94,0,10.93,5.53,10.93,12.38,0,.45,0,.73-.05,1.13h-18.59c.5,5.08,4.08,7.94,8.25,7.94,3.22,0,5.49-1.32,7.39-3.31l2.18,1.95c-2.36,2.63-5.22,4.4-9.66,4.4-6.44,0-11.7-4.94-11.7-12.2ZM99.9,94.61c-.36-4.26-2.81-7.98-7.48-7.98-4.08,0-7.17,3.4-7.62,7.98h15.1Z"/>
  <path class="st0" d="M123.07,75.88h6.98v25.4h15.83v6.35h-22.81v-31.75Z"/>
  <path class="st0" d="M148.79,95.61v-.09c0-6.94,4.94-12.65,12.02-12.65,8.12,0,11.84,6.3,11.84,13.2,0,.54-.05,1.18-.09,1.81h-16.92c.68,3.13,2.86,4.76,5.94,4.76,2.31,0,3.99-.73,5.9-2.49l3.95,3.49c-2.27,2.81-5.53,4.54-9.93,4.54-7.3,0-12.7-5.13-12.7-12.56ZM165.93,93.57c-.41-3.08-2.22-5.17-5.12-5.17s-4.72,2.04-5.26,5.17h10.39Z"/>
  <path class="st0" d="M177.77,83.32h6.89v3.45c1.59-2.04,3.63-3.9,7.12-3.9,5.22,0,8.25,3.45,8.25,9.03v15.74h-6.89v-13.56c0-3.27-1.54-4.94-4.17-4.94s-4.31,1.68-4.31,4.94v13.56h-6.89v-24.31Z"/>
  <path class="st0" d="M204.84,95.61v-.09c0-6.98,5.62-12.65,13.2-12.65s13.11,5.58,13.11,12.56v.09c0,6.98-5.62,12.65-13.2,12.65s-13.11-5.58-13.11-12.56ZM224.34,95.61v-.09c0-3.58-2.58-6.71-6.39-6.71s-6.3,3.04-6.3,6.62v.09c0,3.58,2.58,6.71,6.39,6.71s6.3-3.04,6.3-6.62Z"/>
  <path class="st0" d="M232.6,83.32h7.3l5.44,16.28,5.49-16.28h7.17l-9.57,24.49h-6.26l-9.57-24.49Z"/>
  <path class="st0" d="M259.45,95.61v-.09c0-6.98,5.62-12.65,13.2-12.65s13.11,5.58,13.11,12.56v.09c0,6.98-5.62,12.65-13.2,12.65s-13.11-5.58-13.11-12.56ZM278.95,95.61v-.09c0-3.58-2.58-6.71-6.39-6.71s-6.3,3.04-6.3,6.62v.09c0,3.58,2.58,6.71,6.39,6.71s6.3-3.04,6.3-6.62Z"/>
  <path class="st0" d="M320.31,83.32h7.17l-9.34,24.9c-1.86,4.94-3.85,6.8-7.98,6.8-2.49,0-4.35-.63-6.12-1.68l2.31-4.99c.91.54,2.04.95,2.95.95,1.18,0,1.81-.36,2.4-1.59l-9.52-24.4h7.3l5.53,16.55,5.31-16.55Z"/>
  <path class="st0" d="M344.48,91.84v-.09c0-9.03,6.8-16.42,16.55-16.42,5.99,0,9.57,2,12.52,4.9l-4.44,5.13c-2.45-2.22-4.94-3.58-8.12-3.58-5.35,0-9.21,4.44-9.21,9.89v.09c0,5.44,3.76,9.98,9.21,9.98,3.63,0,5.85-1.45,8.35-3.72l4.45,4.49c-3.27,3.49-6.89,5.67-13.02,5.67-9.34,0-16.28-7.21-16.28-16.33Z"/>
  <path class="st0" d="M377,95.61v-.09c0-6.98,5.62-12.65,13.2-12.65s13.11,5.58,13.11,12.56v.09c0,6.98-5.62,12.65-13.2,12.65s-13.11-5.58-13.11-12.56ZM396.5,95.61v-.09c0-3.58-2.58-6.71-6.39-6.71s-6.3,3.04-6.3,6.62v.09c0,3.58,2.58,6.71,6.39,6.71s6.3-3.04,6.3-6.62Z"/>
  <path class="st0" d="M408.29,83.32h6.89v3.49c1.68-2.27,3.99-3.95,7.57-3.95,5.67,0,11.07,4.44,11.07,12.56v.09c0,8.12-5.31,12.56-11.07,12.56-3.67,0-5.94-1.68-7.57-3.63v10.43h-6.89v-31.57ZM426.93,95.52v-.09c0-4.04-2.72-6.71-5.94-6.71s-5.9,2.68-5.9,6.71v.09c0,4.04,2.68,6.71,5.9,6.71s5.94-2.63,5.94-6.71Z"/>
  <path class="st0" d="M439.04,74.52h7.26v6.12h-7.26v-6.12ZM439.22,83.32h6.89v24.31h-6.89v-24.31Z"/>
  <path class="st0" d="M452.91,74.52h6.89v33.11h-6.89v-33.11Z"/>
  <path class="st0" d="M465.11,95.61v-.09c0-6.98,5.62-12.65,13.2-12.65s13.11,5.58,13.11,12.56v.09c0,6.98-5.62,12.65-13.2,12.65s-13.11-5.58-13.11-12.56ZM484.61,95.61v-.09c0-3.58-2.58-6.71-6.39-6.71s-6.3,3.04-6.3,6.62v.09c0,3.58,2.58,6.71,6.39,6.71s6.3-3.04,6.3-6.62Z"/>
  <path class="st0" d="M497.54,100.73v-11.52h-2.9v-5.9h2.9v-6.21h6.89v6.21h5.71v5.9h-5.71v10.39c0,1.59.68,2.36,2.22,2.36,1.27,0,2.4-.32,3.4-.86v5.53c-1.45.86-3.13,1.41-5.44,1.41-4.22,0-7.08-1.68-7.08-7.3Z"/>
  <path class="st0" d="M523.43,94.79h-8.21v-6.26h8.21v-8.16h6.44v8.16h8.21v6.26h-8.21v8.16h-6.44v-8.16Z"/>
  <path class="st0" d="M544.98,75.88h12.97c7.57,0,12.15,4.49,12.15,10.98v.09c0,7.35-5.71,11.16-12.83,11.16h-5.31v9.52h-6.98v-31.75ZM557.49,91.89c3.49,0,5.53-2.09,5.53-4.81v-.09c0-3.13-2.18-4.81-5.67-4.81h-5.4v9.71h5.53Z"/>
  <path class="st0" d="M573.87,91.84v-.09c0-9.03,6.8-16.42,16.55-16.42,5.99,0,9.57,2,12.52,4.9l-4.44,5.13c-2.45-2.22-4.94-3.58-8.12-3.58-5.35,0-9.21,4.44-9.21,9.89v.09c0,5.44,3.76,9.98,9.21,9.98,3.63,0,5.85-1.45,8.35-3.72l4.45,4.49c-3.27,3.49-6.89,5.67-13.02,5.67-9.34,0-16.28-7.21-16.28-16.33Z"/>
  <path class="st0" d="M607.02,111.57c2.27-.82,3.22-2,3.04-3.95h-1.63v-4.76h4.17v4.08c0,3.67-1.59,5.44-5.03,6.21l-.54-1.59Z"/>
  <path class="st0" d="M61.49,164.6v-2.86c.54.09,1.22.14,1.72.14,1.59,0,2.68-.95,2.68-3.13v-24.76h3.49v24.81c0,4.13-2.18,6.03-5.71,6.03-.82,0-1.41-.05-2.18-.23ZM65.66,125.01h3.99v3.86h-3.99v-3.86Z"/>
  <path class="st0" d="M77.13,148.55v-14.56h3.49v13.7c0,4.35,2.36,7.08,6.48,7.08s7.03-2.95,7.03-7.35v-13.42h3.45v23.45h-3.45v-4.08c-1.59,2.54-3.99,4.58-8.03,4.58-5.67,0-8.98-3.81-8.98-9.39Z"/>
  <path class="st0" d="M105.43,133.99h3.49v4.08c1.54-2.54,3.99-4.58,8.03-4.58,5.67,0,8.98,3.81,8.98,9.39v14.56h-3.49v-13.7c0-4.35-2.36-7.08-6.49-7.08s-7.03,2.95-7.03,7.35v13.42h-3.49v-23.45Z"/>
  <path class="st0" d="M134.59,151.22v-14.15h-3.27v-3.08h3.27v-7.08h3.49v7.08h7.44v3.08h-7.44v13.7c0,2.86,1.59,3.9,3.95,3.9,1.18,0,2.18-.23,3.4-.82v2.99c-1.22.63-2.54,1-4.22,1-3.76,0-6.62-1.86-6.62-6.62Z"/>
  <path class="st0" d="M149.56,145.83v-.09c0-6.62,5.17-12.25,12.25-12.25s12.2,5.53,12.2,12.15v.09c0,6.62-5.22,12.25-12.29,12.25s-12.16-5.53-12.16-12.15ZM170.42,145.83v-.09c0-5.03-3.76-9.16-8.71-9.16s-8.57,4.13-8.57,9.07v.09c0,5.03,3.72,9.12,8.66,9.12s8.62-4.08,8.62-9.03Z"/>
  <path class="st0" d="M192.14,150.63v-.09c0-4.94,4.08-7.57,10.02-7.57,2.99,0,5.12.41,7.21,1v-.82c0-4.22-2.58-6.39-6.98-6.39-2.77,0-4.94.73-7.12,1.72l-1.04-2.86c2.58-1.18,5.12-1.95,8.53-1.95s5.85.86,7.57,2.58c1.59,1.59,2.4,3.86,2.4,6.85v14.33h-3.36v-3.54c-1.63,2.13-4.35,4.04-8.48,4.04-4.35,0-8.75-2.49-8.75-7.3ZM209.42,148.82v-2.27c-1.72-.5-4.04-1-6.89-1-4.4,0-6.85,1.9-6.85,4.85v.09c0,2.95,2.72,4.67,5.9,4.67,4.31,0,7.85-2.63,7.85-6.35Z"/>
  <path class="st0" d="M234.09,124.33h3.49v33.11h-3.49v-33.11Z"/>
  <path class="st0" d="M243.93,150.63v-.09c0-4.94,4.08-7.57,10.02-7.57,2.99,0,5.12.41,7.21,1v-.82c0-4.22-2.59-6.39-6.98-6.39-2.77,0-4.94.73-7.12,1.72l-1.04-2.86c2.59-1.18,5.13-1.95,8.53-1.95s5.85.86,7.57,2.58c1.59,1.59,2.4,3.86,2.4,6.85v14.33h-3.36v-3.54c-1.63,2.13-4.35,4.04-8.48,4.04-4.35,0-8.75-2.49-8.75-7.3ZM261.21,148.82v-2.27c-1.72-.5-4.04-1-6.89-1-4.4,0-6.85,1.9-6.85,4.85v.09c0,2.95,2.72,4.67,5.9,4.67,4.31,0,7.85-2.63,7.85-6.35Z"/>
  <path class="st0" d="M283.62,154.44l1.77-2.49c2.54,1.9,5.35,2.99,8.12,2.99s4.85-1.45,4.85-3.72v-.09c0-2.36-2.77-3.27-5.85-4.13-3.67-1.04-7.76-2.31-7.76-6.62v-.09c0-4.04,3.36-6.71,7.98-6.71,2.86,0,6.03,1,8.44,2.59l-1.59,2.63c-2.18-1.41-4.67-2.27-6.94-2.27-2.77,0-4.53,1.45-4.53,3.4v.09c0,2.22,2.9,3.08,6.03,4.04,3.63,1.09,7.53,2.49,7.53,6.71v.09c0,4.44-3.67,7.03-8.35,7.03-3.36,0-7.08-1.32-9.71-3.45Z"/>
  <path class="st0" d="M308.24,125.01h3.99v3.86h-3.99v-3.86ZM308.47,133.99h3.49v23.45h-3.49v-23.45Z"/>
  <path class="st0" d="M320.08,133.99h3.49v4.08c1.54-2.54,3.99-4.58,8.03-4.58,5.67,0,8.98,3.81,8.98,9.39v14.56h-3.49v-13.7c0-4.35-2.36-7.08-6.48-7.08s-7.03,2.95-7.03,7.35v13.42h-3.49v-23.45Z"/>
  <path class="st0" d="M346.56,145.83v-.09c0-6.62,5.17-12.25,12.02-12.25,4.44,0,7.21,1.86,9.39,4.17l-2.31,2.45c-1.86-1.95-3.95-3.54-7.12-3.54-4.76,0-8.39,4.04-8.39,9.07v.09c0,5.08,3.72,9.12,8.62,9.12,2.99,0,5.31-1.5,7.17-3.49l2.22,2.09c-2.36,2.63-5.17,4.54-9.57,4.54-6.85,0-12.02-5.58-12.02-12.15Z"/>
  <path class="st0" d="M373.91,133.99h3.49v6.12c1.72-3.9,5.12-6.71,9.57-6.53v3.76h-.27c-5.12,0-9.3,3.67-9.3,10.75v9.34h-3.49v-23.45Z"/>
  <path class="st0" d="M389.83,145.83v-.09c0-6.62,5.17-12.25,12.25-12.25s12.2,5.53,12.2,12.15v.09c0,6.62-5.22,12.25-12.29,12.25s-12.15-5.53-12.15-12.15ZM410.69,145.83v-.09c0-5.03-3.76-9.16-8.71-9.16s-8.57,4.13-8.57,9.07v.09c0,5.03,3.72,9.12,8.66,9.12s8.62-4.08,8.62-9.03Z"/>
  <path class="st0" d="M420.58,133.99h3.49v4.08c1.54-2.54,3.99-4.58,8.03-4.58,5.67,0,8.98,3.81,8.98,9.39v14.56h-3.49v-13.7c0-4.35-2.36-7.08-6.48-7.08s-7.03,2.95-7.03,7.35v13.42h-3.49v-23.45Z"/>
  <path class="st0" d="M448.61,125.01h3.99v3.86h-3.99v-3.86ZM448.83,133.99h3.49v23.45h-3.49v-23.45Z"/>
  <path class="st0" d="M459.08,155.21l15.56-18.28h-15.01v-2.95h19.77v2.22l-15.6,18.28h15.6v2.95h-20.32v-2.22Z"/>
  <path class="st0" d="M483.89,150.63v-.09c0-4.94,4.08-7.57,10.02-7.57,2.99,0,5.12.41,7.21,1v-.82c0-4.22-2.59-6.39-6.98-6.39-2.77,0-4.94.73-7.12,1.72l-1.04-2.86c2.59-1.18,5.13-1.95,8.53-1.95s5.85.86,7.57,2.58c1.59,1.59,2.4,3.86,2.4,6.85v14.33h-3.36v-3.54c-1.63,2.13-4.35,4.04-8.48,4.04-4.35,0-8.75-2.49-8.75-7.3ZM501.17,148.82v-2.27c-1.72-.5-4.04-1-6.89-1-4.4,0-6.85,1.9-6.85,4.85v.09c0,2.95,2.72,4.67,5.9,4.67,4.31,0,7.85-2.63,7.85-6.35Z"/>
  <path class="st0" d="M510.46,145.83v-.09c0-6.62,5.17-12.25,12.02-12.25,4.44,0,7.21,1.86,9.39,4.17l-2.31,2.45c-1.86-1.95-3.95-3.54-7.12-3.54-4.76,0-8.39,4.04-8.39,9.07v.09c0,5.08,3.72,9.12,8.62,9.12,2.99,0,5.31-1.5,7.17-3.49l2.22,2.09c-2.36,2.63-5.17,4.54-9.57,4.54-6.85,0-12.02-5.58-12.02-12.15Z"/>
  <path class="st0" d="M537.9,125.01h3.99v3.86h-3.99v-3.86ZM538.13,133.99h3.49v23.45h-3.49v-23.45Z"/>
  <path class="st0" d="M548.29,145.83v-.09c0-6.62,5.17-12.25,12.25-12.25s12.2,5.53,12.2,12.15v.09c0,6.62-5.22,12.25-12.29,12.25s-12.15-5.53-12.15-12.15ZM569.15,145.83v-.09c0-5.03-3.76-9.16-8.71-9.16s-8.57,4.13-8.57,9.07v.09c0,5.03,3.72,9.12,8.66,9.12s8.62-4.08,8.62-9.03ZM563.34,123.87l3.63,1.68-5.17,4.9h-2.72l4.26-6.58Z"/>
  <path class="st0" d="M579.03,133.99h3.49v4.08c1.54-2.54,3.99-4.58,8.03-4.58,5.67,0,8.98,3.81,8.98,9.39v14.56h-3.49v-13.7c0-4.35-2.36-7.08-6.48-7.08s-7.03,2.95-7.03,7.35v13.42h-3.49v-23.45Z"/>
  <path class="st0" d="M121.89,195.59v-.09c0-7.66,5.58-12.2,11.2-12.2,4.35,0,7.17,2.36,8.98,4.99v-14.15h3.49v33.11h-3.49v-4.72c-1.9,2.81-4.67,5.22-8.98,5.22-5.62,0-11.2-4.45-11.2-12.15ZM142.21,195.54v-.09c0-5.4-4.13-9.03-8.48-9.03s-8.25,3.36-8.25,9.03v.09c0,5.53,3.81,9.07,8.25,9.07s8.48-3.67,8.48-9.07Z"/>
  <path class="st0" d="M151.92,195.59v-.09c0-6.76,4.76-12.2,11.25-12.2,6.94,0,10.93,5.53,10.93,12.38,0,.45,0,.73-.05,1.13h-18.59c.5,5.08,4.08,7.94,8.25,7.94,3.22,0,5.49-1.32,7.39-3.31l2.18,1.95c-2.36,2.63-5.22,4.4-9.66,4.4-6.44,0-11.7-4.94-11.7-12.2ZM170.56,194.23c-.36-4.26-2.81-7.98-7.48-7.98-4.08,0-7.17,3.4-7.62,7.98h15.1Z"/>
  <path class="st0" d="M191.55,202.62l4.13-4.94c2.86,2.36,5.85,3.86,9.48,3.86,2.86,0,4.58-1.13,4.58-2.99v-.09c0-1.77-1.09-2.68-6.39-4.04-6.39-1.63-10.52-3.4-10.52-9.71v-.09c0-5.76,4.63-9.57,11.11-9.57,4.63,0,8.57,1.45,11.79,4.04l-3.63,5.26c-2.81-1.95-5.58-3.13-8.25-3.13s-4.08,1.22-4.08,2.77v.09c0,2.09,1.36,2.77,6.85,4.17,6.44,1.68,10.07,3.99,10.07,9.52v.09c0,6.3-4.81,9.84-11.66,9.84-4.81,0-9.66-1.68-13.47-5.08Z"/>
  <path class="st0" d="M222.03,182.93h6.89v3.45c1.59-2.04,3.67-3.9,7.17-3.9,3.17,0,5.58,1.41,6.85,3.86,2.13-2.49,4.67-3.86,7.98-3.86,5.13,0,8.21,3.08,8.21,8.93v15.83h-6.89v-13.56c0-3.27-1.45-4.94-4.04-4.94s-4.17,1.68-4.17,4.94v13.56h-6.89v-13.56c0-3.27-1.45-4.94-4.04-4.94s-4.17,1.68-4.17,4.94v13.56h-6.89v-24.31Z"/>
  <path class="st0" d="M263.66,200.26v-.09c0-5.31,4.04-7.76,9.8-7.76,2.45,0,4.22.41,5.94,1v-.41c0-2.86-1.77-4.44-5.22-4.44-2.63,0-4.49.5-6.71,1.32l-1.72-5.26c2.68-1.18,5.31-1.95,9.43-1.95,3.76,0,6.49,1,8.21,2.72,1.81,1.81,2.63,4.49,2.63,7.76v14.11h-6.67v-2.63c-1.68,1.86-3.99,3.08-7.35,3.08-4.58,0-8.35-2.63-8.35-7.44ZM279.49,198.67v-1.22c-1.18-.54-2.72-.91-4.4-.91-2.95,0-4.76,1.18-4.76,3.36v.09c0,1.86,1.54,2.95,3.76,2.95,3.22,0,5.4-1.77,5.4-4.26Z"/>
  <path class="st0" d="M291.96,182.93h6.89v4.9c1.41-3.36,3.67-5.53,7.76-5.35v7.21h-.36c-4.58,0-7.39,2.77-7.39,8.57v8.98h-6.89v-24.31Z"/>
  <path class="st0" d="M312.05,200.35v-11.52h-2.9v-5.9h2.9v-6.21h6.89v6.21h5.71v5.9h-5.71v10.39c0,1.59.68,2.36,2.22,2.36,1.27,0,2.4-.32,3.4-.86v5.53c-1.45.86-3.13,1.41-5.44,1.41-4.22,0-7.08-1.68-7.08-7.3Z"/>
  <path class="st0" d="M342.67,191.46v-.09c0-9.03,6.8-16.42,16.55-16.42,5.99,0,9.57,2,12.52,4.9l-4.44,5.12c-2.45-2.22-4.94-3.58-8.12-3.58-5.35,0-9.21,4.44-9.21,9.89v.09c0,5.44,3.76,9.98,9.21,9.98,3.63,0,5.85-1.45,8.35-3.72l4.45,4.49c-3.27,3.49-6.89,5.67-13.02,5.67-9.34,0-16.28-7.21-16.28-16.33Z"/>
  <path class="st0" d="M375.18,195.23v-.09c0-6.98,5.62-12.65,13.2-12.65s13.11,5.58,13.11,12.56v.09c0,6.98-5.62,12.65-13.2,12.65s-13.11-5.58-13.11-12.56ZM394.69,195.23v-.09c0-3.58-2.58-6.71-6.39-6.71s-6.3,3.04-6.3,6.62v.09c0,3.58,2.58,6.71,6.39,6.71s6.3-3.04,6.3-6.62Z"/>
  <path class="st0" d="M406.48,182.93h6.89v3.45c1.59-2.04,3.63-3.9,7.12-3.9,5.22,0,8.25,3.45,8.25,9.03v15.74h-6.89v-13.56c0-3.27-1.54-4.94-4.17-4.94s-4.31,1.68-4.31,4.94v13.56h-6.89v-24.31Z"/>
  <path class="st0" d="M434.73,182.93h6.89v3.45c1.59-2.04,3.63-3.9,7.12-3.9,5.22,0,8.25,3.45,8.25,9.03v15.74h-6.89v-13.56c0-3.27-1.54-4.94-4.17-4.94s-4.31,1.68-4.31,4.94v13.56h-6.89v-24.31Z"/>
  <path class="st0" d="M461.8,195.23v-.09c0-6.94,4.94-12.65,12.02-12.65,8.12,0,11.84,6.3,11.84,13.2,0,.54-.05,1.18-.09,1.81h-16.92c.68,3.13,2.86,4.76,5.94,4.76,2.31,0,3.99-.73,5.9-2.49l3.95,3.49c-2.27,2.81-5.53,4.54-9.93,4.54-7.3,0-12.7-5.12-12.7-12.56ZM478.95,193.18c-.41-3.08-2.22-5.17-5.12-5.17s-4.72,2.04-5.26,5.17h10.39Z"/>
  <path class="st0" d="M489.61,195.23v-.09c0-6.94,5.31-12.65,12.74-12.65,4.58,0,7.44,1.54,9.71,4.08l-4.22,4.54c-1.54-1.63-3.08-2.68-5.53-2.68-3.45,0-5.9,3.04-5.9,6.62v.09c0,3.72,2.4,6.71,6.17,6.71,2.31,0,3.9-1,5.58-2.58l4.04,4.08c-2.36,2.59-5.08,4.44-9.93,4.44-7.3,0-12.65-5.62-12.65-12.56Z"/>
  <path class="st0" d="M517.81,200.35v-11.52h-2.9v-5.9h2.9v-6.21h6.89v6.21h5.71v5.9h-5.71v10.39c0,1.59.68,2.36,2.22,2.36,1.27,0,2.4-.32,3.4-.86v5.53c-1.45.86-3.13,1.41-5.44,1.41-4.22,0-7.08-1.68-7.08-7.3Z"/>
  <path class="st0" d="M535.23,199.99h7.35v7.26h-7.35v-7.26Z"/>
</svg>