<?xml version="1.0" encoding="UTF-8"?>
<svg id="Layer_1" xmlns="http://www.w3.org/2000/svg" version="1.1" viewBox="0 0 642.5 232.5">
  <!-- Generator: Adobe Illustrator 29.7.1, SVG Export Plug-In . SVG Version: 2.1.1 Build 8)  -->
  <defs>
    <style>
      .st0 {
        fill: #fff;
      }
    </style>
  </defs>
  <path class="st0" d="M67.49,65.88v-.09c0-5.46,3.78-7.74,8.47-8.64l.47-2.62h4.39l.99,6.97-.21.21c-5.46.21-7.52,1.63-7.52,3.91v.09c0,1.93,1.42,3.05,3.96,3.05s4.43-.95,6.45-2.97l3.96,4.34c-2.54,2.75-5.85,4.64-10.54,4.64-6.19,0-10.41-3.18-10.41-8.9ZM75.27,44.3h6.97v6.88h-6.97v-6.88Z"/>
  <path class="st0" d="M103.22,44.08h6.11l12.9,30.31h-6.92l-2.75-6.75h-12.73l-2.75,6.75h-6.75l12.9-30.31ZM110.19,61.8l-4-9.76-4,9.76h8Z"/>
  <path class="st0" d="M155.72,71.09c-1.59,2.19-3.74,3.74-7.18,3.74-5.38,0-10.49-4.21-10.49-11.91v-.09c0-7.7,5.03-11.91,10.49-11.91,3.48,0,5.63,1.59,7.18,3.44v-3.01h6.54v29.93h-6.54v-10.19ZM155.81,62.92v-.09c0-3.83-2.54-6.36-5.59-6.36s-5.63,2.49-5.63,6.36v.09c0,3.83,2.58,6.36,5.63,6.36s5.59-2.54,5.59-6.36Z"/>
  <path class="st0" d="M167.94,66.27v-14.92h6.54v12.86c0,3.1,1.42,4.69,3.96,4.69s4.08-1.59,4.08-4.69v-12.86h6.54v23.05h-6.54v-3.27c-1.5,1.93-3.48,3.7-6.75,3.7-4.99,0-7.83-3.23-7.83-8.56Z"/>
  <path class="st0" d="M193.78,63v-.09c0-6.58,4.69-12,11.39-12,7.7,0,11.22,5.98,11.22,12.51,0,.52-.04,1.08-.09,1.72h-16.04c.64,2.97,2.71,4.51,5.63,4.51,2.19,0,3.74-.69,5.59-2.37l3.74,3.31c-2.19,2.71-5.25,4.3-9.42,4.3-6.92,0-12.04-4.86-12.04-11.91ZM210.03,61.07c-.39-2.92-2.11-4.9-4.86-4.9s-4.47,1.93-4.99,4.9h9.85ZM207.28,41.2l5.63,2.45-5.59,5.16h-4.82l4.77-7.61Z"/>
  <path class="st0" d="M232.35,71.34l2.79-4.3c2.54,1.85,5.07,2.75,7.27,2.75,1.89,0,2.75-.69,2.75-1.72v-.09c0-1.42-2.24-1.85-4.77-2.67-3.23-.9-6.88-2.45-6.88-6.92v-.09c0-4.69,3.78-7.31,8.43-7.31,2.92,0,6.06.99,8.6,2.67l-2.49,4.51c-2.28-1.33-4.56-2.15-6.23-2.15s-2.41.69-2.41,1.59v.09c0,1.2,2.19,1.98,4.69,2.75,3.23,1.03,6.97,2.62,6.97,6.84v.09c0,5.12-3.83,7.44-8.81,7.44-3.27,0-6.79-1.08-9.89-3.48Z"/>
  <path class="st0" d="M255.57,66.27v-14.92h6.54v12.86c0,3.1,1.42,4.69,3.96,4.69s4.08-1.59,4.08-4.69v-12.86h6.54v23.05h-6.54v-3.27c-1.5,1.93-3.48,3.7-6.75,3.7-4.99,0-7.83-3.23-7.83-8.56Z"/>
  <path class="st0" d="M281.41,63v-.09c0-6.58,4.69-12,11.4-12,7.7,0,11.22,5.98,11.22,12.51,0,.52-.04,1.08-.09,1.72h-16.04c.65,2.97,2.71,4.51,5.63,4.51,2.19,0,3.74-.69,5.59-2.37l3.74,3.31c-2.19,2.71-5.25,4.3-9.42,4.3-6.92,0-12.04-4.86-12.04-11.91ZM297.66,61.07c-.39-2.92-2.11-4.9-4.86-4.9s-4.47,1.93-4.99,4.9h9.85Z"/>
  <path class="st0" d="M308.89,51.35h6.54v3.27c1.5-1.94,3.48-3.7,6.75-3.7,4.99,0,7.83,3.23,7.83,8.56v14.92h-6.54v-12.86c0-3.1-1.42-4.69-3.96-4.69s-4.08,1.59-4.08,4.69v12.86h-6.54v-23.05Z"/>
  <path class="st0" d="M334.3,67.77v-.09c0-4.99,3.83-7.35,9.29-7.35,2.36,0,3.96.39,5.63.95v-.39c0-2.75-1.68-4.21-4.95-4.21-2.54,0-4.26.43-6.36,1.25l-1.63-4.99c2.54-1.08,5.03-1.85,8.94-1.85,3.61,0,6.11.9,7.78,2.58,1.72,1.72,2.49,4.26,2.49,7.35v13.37h-6.32v-2.49c-1.59,1.76-3.74,2.92-6.97,2.92-4.34,0-7.91-2.45-7.91-7.05ZM349.31,66.27v-1.16c-1.16-.52-2.58-.86-4.17-.86-2.79,0-4.51,1.12-4.51,3.18v.09c0,1.76,1.46,2.79,3.57,2.79,3.1,0,5.12-1.63,5.12-4.04Z"/>
  <path class="st0" d="M375.11,67.86v-10.92h-2.75v-5.59h2.75v-5.89h6.54v5.89h5.42v5.59h-5.42v9.85c0,1.5.69,2.24,2.11,2.24,1.16,0,2.24-.26,3.22-.82v5.25c-1.38.82-2.97,1.33-5.16,1.33-3.96,0-6.71-1.59-6.71-6.92Z"/>
  <path class="st0" d="M391.7,66.27v-14.92h6.54v12.86c0,3.1,1.42,4.69,3.96,4.69s4.08-1.59,4.08-4.69v-12.86h6.54v23.05h-6.54v-3.27c-1.5,1.93-3.48,3.7-6.75,3.7-4.99,0-7.83-3.23-7.83-8.56Z"/>
  <path class="st0" d="M430.92,59.43v-.09c0-8.56,6.67-15.57,15.78-15.57,5.38,0,8.73,1.46,11.82,4.13l-4.17,5.03c-2.28-1.94-4.43-3.05-7.87-3.05-4.82,0-8.64,4.26-8.64,9.37v.09c0,5.5,3.78,9.55,9.12,9.55,2.45,0,4.56-.6,6.23-1.81v-4.3h-6.66v-5.72h13.07v13.07c-3.1,2.62-7.35,4.77-12.86,4.77-9.37,0-15.82-6.54-15.82-15.48Z"/>
  <path class="st0" d="M464.63,59.43v-.09c0-8.56,6.75-15.57,16.04-15.57s15.95,6.92,15.95,15.48v.09c0,8.56-6.75,15.57-16.04,15.57s-15.95-6.92-15.95-15.48ZM489.7,59.43v-.09c0-5.16-3.78-9.46-9.12-9.46s-9.03,4.21-9.03,9.37v.09c0,5.16,3.78,9.46,9.12,9.46s9.03-4.21,9.03-9.37Z"/>
  <path class="st0" d="M510.9,44.08h6.11l12.9,30.31h-6.92l-2.75-6.75h-12.73l-2.75,6.75h-6.75l12.9-30.31ZM517.86,61.8l-4-9.76-4,9.76h8Z"/>
  <path class="st0" d="M537.69,50.4h-9.16v-6.11h24.94v6.11h-9.16v23.99h-6.62v-23.99Z"/>
  <path class="st0" d="M562.41,57.2l.21-.21c5.46-.22,7.52-1.63,7.52-3.91v-.09c0-1.94-1.42-3.05-3.96-3.05s-4.43.95-6.45,2.97l-3.96-4.34c2.54-2.75,5.85-4.64,10.54-4.64,6.19,0,10.41,3.18,10.41,8.9v.09c0,5.46-3.78,7.74-8.47,8.64l-.47,2.62h-4.39l-.99-6.97ZM561.98,67.52h6.97v6.88h-6.97v-6.88Z"/>
  <path class="st0" d="M61.66,100.81h9.96c9.02,0,15.25,6.19,15.25,14.27v.08c0,8.08-6.23,14.35-15.25,14.35h-9.96v-28.7ZM64.9,103.8v22.71h6.72c7.26,0,11.89-4.88,11.89-11.27v-.08c0-6.36-4.63-11.36-11.89-11.36h-6.72Z"/>
  <path class="st0" d="M91.88,118.97v-.08c0-6.11,4.26-11.03,10.17-11.03,6.27,0,9.88,5,9.88,11.19,0,.45,0,.66-.04,1.03h-16.81c.45,4.59,3.69,7.17,7.46,7.17,2.95,0,4.92-1.19,6.68-2.99l1.97,1.76c-2.13,2.42-4.67,3.98-8.73,3.98-5.78,0-10.58-4.47-10.58-11.03ZM108.73,117.74c-.33-3.81-2.5-7.22-6.76-7.22-3.73,0-6.44,3.12-6.89,7.22h13.65Z"/>
  <path class="st0" d="M115.7,126.8l1.6-2.25c2.3,1.76,4.84,2.71,7.34,2.71s4.39-1.27,4.39-3.36v-.08c0-2.09-2.5-2.95-5.29-3.73-3.28-.98-7.01-2.05-7.01-5.99v-.08c0-3.65,3.03-6.07,7.22-6.07,2.62,0,5.45.9,7.63,2.34l-1.44,2.38c-1.97-1.27-4.18-2.05-6.27-2.05-2.5,0-4.1,1.31-4.1,3.08v.08c0,2.01,2.62,2.79,5.45,3.65,3.28.98,6.81,2.25,6.81,6.07v.08c0,4.02-3.32,6.35-7.54,6.35-3.08,0-6.36-1.19-8.77-3.12Z"/>
  <path class="st0" d="M136.57,119.01v-.08c0-6.03,4.63-11.07,10.86-11.07,4.02,0,6.48,1.64,8.49,3.77l-2.09,2.21c-1.68-1.76-3.53-3.2-6.44-3.2-4.3,0-7.58,3.61-7.58,8.2v.08c0,4.59,3.36,8.24,7.79,8.24,2.75,0,4.8-1.35,6.48-3.16l2.01,1.89c-2.13,2.42-4.67,4.1-8.65,4.1-6.23,0-10.86-5.04-10.86-10.99Z"/>
  <path class="st0" d="M161.29,108.31h3.16v5.54c1.56-3.53,4.63-6.03,8.65-5.9v3.4h-.25c-4.63,0-8.4,3.32-8.4,9.72v8.45h-3.16v-21.2Z"/>
  <path class="st0" d="M178.18,108.31h3.16v21.2h-3.16v-21.2ZM182.41,99.17l3.28,1.52-4.67,4.43h-2.46l3.85-5.95Z"/>
  <path class="st0" d="M191.84,125.45v4.06h-3.16v-29.93h3.16v13c1.76-2.5,4.18-4.72,8.12-4.72,5.08,0,10.13,4.02,10.13,10.99v.08c0,6.89-5,11.03-10.13,11.03-3.94,0-6.48-2.09-8.12-4.51ZM206.84,118.97v-.08c0-5.04-3.4-8.2-7.46-8.2s-7.67,3.36-7.67,8.16v.08c0,4.92,3.73,8.2,7.67,8.2s7.46-3.03,7.46-8.16Z"/>
  <path class="st0" d="M214.59,118.97v-.08c0-6.11,4.26-11.03,10.17-11.03,6.27,0,9.88,5,9.88,11.19,0,.45,0,.66-.04,1.03h-16.81c.45,4.59,3.69,7.17,7.46,7.17,2.95,0,4.92-1.19,6.68-2.99l1.97,1.76c-2.13,2.42-4.67,3.98-8.73,3.98-5.78,0-10.58-4.47-10.58-11.03ZM231.44,117.74c-.33-3.81-2.5-7.22-6.76-7.22-3.73,0-6.44,3.12-6.89,7.22h13.65Z"/>
  <path class="st0" d="M240.46,99.58h3.16v29.93h-3.16v-29.93Z"/>
  <path class="st0" d="M249.64,119.01v-.08c0-6.03,4.63-11.07,11.07-11.07s11.03,5,11.03,10.99v.08c0,6.03-4.72,11.07-11.11,11.07s-10.99-5-10.99-10.99ZM268.5,119.01v-.08c0-4.55-3.4-8.28-7.87-8.28s-7.75,3.73-7.75,8.2v.08c0,4.55,3.36,8.24,7.83,8.24s7.79-3.73,7.79-8.16Z"/>
  <path class="st0" d="M288.43,118.97v-.08c0-6.11,4.26-11.03,10.17-11.03,6.27,0,9.88,5,9.88,11.19,0,.45,0,.66-.04,1.03h-16.81c.45,4.59,3.69,7.17,7.46,7.17,2.95,0,4.92-1.19,6.68-2.99l1.97,1.76c-2.13,2.42-4.67,3.98-8.73,3.98-5.78,0-10.58-4.47-10.58-11.03ZM305.28,117.74c-.33-3.81-2.5-7.22-6.77-7.22-3.73,0-6.44,3.12-6.89,7.22h13.65Z"/>
  <path class="st0" d="M314.01,108.31h3.16v3.69c1.44-2.3,3.61-4.14,7.26-4.14,5.08,0,8.12,3.44,8.12,8.49v13.16h-3.16v-12.38c0-3.94-2.09-6.4-5.86-6.4s-6.35,2.67-6.35,6.64v12.14h-3.16v-21.2Z"/>
  <path class="st0" d="M351.24,121.47v-13.16h3.16v12.38c0,3.94,2.09,6.4,5.86,6.4s6.36-2.67,6.36-6.64v-12.14h3.12v21.2h-3.12v-3.69c-1.43,2.3-3.61,4.14-7.26,4.14-5.08,0-8.12-3.44-8.12-8.49Z"/>
  <path class="st0" d="M376.82,108.31h3.16v3.69c1.43-2.3,3.61-4.14,7.26-4.14,5.08,0,8.12,3.44,8.12,8.49v13.16h-3.16v-12.38c0-3.94-2.09-6.4-5.86-6.4s-6.35,2.67-6.35,6.64v12.14h-3.16v-21.2Z"/>
  <path class="st0" d="M400.48,123.36v-.08c0-4.43,3.69-6.85,9.06-6.85,2.75,0,4.59.37,6.52.9v-.74c0-3.81-2.34-5.78-6.31-5.78-2.5,0-4.47.62-6.44,1.56l-.94-2.58c2.34-1.11,4.59-1.76,7.71-1.76s5.29.78,6.85,2.34c1.44,1.43,2.17,3.53,2.17,6.19v12.96h-3.04v-3.2c-1.48,1.93-3.89,3.65-7.67,3.65s-7.91-2.21-7.91-6.6ZM416.1,121.72v-2.05c-1.6-.45-3.61-.9-6.23-.9-3.98,0-6.19,1.72-6.19,4.39v.08c0,2.67,2.5,4.22,5.33,4.22,3.94,0,7.09-2.38,7.09-5.74Z"/>
  <path class="st0" d="M438.12,108.31h3.16v4.26c1.76-2.5,4.18-4.72,8.12-4.72,5.08,0,10.13,4.02,10.13,10.99v.08c0,6.89-5,11.03-10.13,11.03-3.94,0-6.48-2.09-8.12-4.51v10.62h-3.16v-27.76ZM456.28,118.97v-.08c0-5.04-3.4-8.2-7.46-8.2s-7.67,3.36-7.67,8.16v.08c0,4.92,3.73,8.2,7.67,8.2s7.46-3.03,7.46-8.16Z"/>
  <path class="st0" d="M463.74,123.36v-.08c0-4.43,3.69-6.85,9.06-6.85,2.75,0,4.59.37,6.52.9v-.74c0-3.81-2.34-5.78-6.31-5.78-2.5,0-4.47.62-6.44,1.56l-.94-2.58c2.34-1.11,4.59-1.76,7.71-1.76s5.29.78,6.85,2.34c1.44,1.43,2.17,3.53,2.17,6.19v12.96h-3.04v-3.2c-1.48,1.93-3.89,3.65-7.67,3.65s-7.91-2.21-7.91-6.6ZM479.36,121.72v-2.05c-1.6-.45-3.61-.9-6.23-.9-3.98,0-6.19,1.72-6.19,4.39v.08c0,2.67,2.5,4.22,5.33,4.22,3.94,0,7.09-2.38,7.09-5.74Z"/>
  <path class="st0" d="M489.37,99.58h3.16v29.93h-3.16v-29.93Z"/>
  <path class="st0" d="M498.26,123.36v-.08c0-4.43,3.69-6.85,9.06-6.85,2.75,0,4.59.37,6.52.9v-.74c0-3.81-2.34-5.78-6.31-5.78-2.5,0-4.47.62-6.44,1.56l-.94-2.58c2.34-1.11,4.59-1.76,7.71-1.76s5.29.78,6.85,2.34c1.44,1.43,2.17,3.53,2.17,6.19v12.96h-3.03v-3.2c-1.48,1.93-3.89,3.65-7.67,3.65s-7.91-2.21-7.91-6.6ZM513.89,121.72v-2.05c-1.6-.45-3.61-.9-6.23-.9-3.98,0-6.19,1.72-6.19,4.39v.08c0,2.67,2.5,4.22,5.33,4.22,3.94,0,7.09-2.38,7.09-5.74Z"/>
  <path class="st0" d="M526.76,125.45v4.06h-3.16v-29.93h3.16v13c1.76-2.5,4.18-4.72,8.12-4.72,5.08,0,10.13,4.02,10.13,10.99v.08c0,6.89-5,11.03-10.13,11.03-3.94,0-6.48-2.09-8.12-4.51ZM541.76,118.97v-.08c0-5.04-3.4-8.2-7.46-8.2s-7.67,3.36-7.67,8.16v.08c0,4.92,3.73,8.2,7.67,8.2s7.46-3.03,7.46-8.16Z"/>
  <path class="st0" d="M550.83,108.31h3.16v5.54c1.56-3.53,4.63-6.03,8.65-5.9v3.4h-.25c-4.63,0-8.4,3.32-8.4,9.72v8.45h-3.16v-21.2Z"/>
  <path class="st0" d="M564.81,123.36v-.08c0-4.43,3.69-6.85,9.06-6.85,2.75,0,4.59.37,6.52.9v-.74c0-3.81-2.34-5.78-6.31-5.78-2.5,0-4.47.62-6.44,1.56l-.94-2.58c2.34-1.11,4.59-1.76,7.71-1.76s5.29.78,6.85,2.34c1.43,1.43,2.17,3.53,2.17,6.19v12.96h-3.03v-3.2c-1.48,1.93-3.9,3.65-7.67,3.65s-7.91-2.21-7.91-6.6ZM580.43,121.72v-2.05c-1.6-.45-3.61-.9-6.23-.9-3.98,0-6.19,1.72-6.19,4.39v.08c0,2.67,2.5,4.22,5.33,4.22,3.94,0,7.09-2.38,7.09-5.74Z"/>
  <path class="st0" d="M49.59,163.42h3.36l-8.9,21.89c-1.8,4.39-3.9,5.99-7.05,5.99-1.76,0-3.08-.37-4.51-1.07l1.07-2.5c1.02.53,1.97.78,3.32.78,1.93,0,3.07-.98,4.35-3.98l-9.64-21.12h3.48l7.71,17.67,6.81-17.67Z"/>
  <path class="st0" d="M70.54,154.69h3.16v29.93h-3.16v-29.93Z"/>
  <path class="st0" d="M80.71,176.58v-13.16h3.16v12.38c0,3.94,2.09,6.4,5.86,6.4s6.36-2.67,6.36-6.64v-12.14h3.12v21.2h-3.12v-3.69c-1.44,2.3-3.61,4.14-7.26,4.14-5.08,0-8.12-3.44-8.12-8.49Z"/>
  <path class="st0" d="M104.98,174.08v-.08c0-6.11,4.26-11.03,10.17-11.03,6.27,0,9.88,5,9.88,11.19,0,.45,0,.66-.04,1.02h-16.81c.45,4.59,3.69,7.18,7.46,7.18,2.95,0,4.92-1.19,6.68-2.99l1.97,1.76c-2.13,2.42-4.67,3.98-8.73,3.98-5.78,0-10.58-4.47-10.58-11.03ZM121.83,172.85c-.33-3.81-2.5-7.22-6.77-7.22-3.73,0-6.44,3.12-6.89,7.22h13.65Z"/>
  <path class="st0" d="M130.32,188.31l1.44-2.46c2.46,1.76,5.08,2.71,8.16,2.71,4.72,0,7.71-2.58,7.71-7.54v-2.5c-1.85,2.46-4.43,4.47-8.32,4.47-5.08,0-9.96-3.85-9.96-9.92v-.08c0-6.19,4.88-10,9.96-10,3.98,0,6.52,1.97,8.28,4.26v-3.81h3.16v17.51c0,3.28-.94,5.74-2.71,7.5-1.93,1.93-4.67,2.83-8.08,2.83s-6.81-.98-9.63-2.95ZM147.7,173.01v-.08c0-4.35-3.77-7.17-7.79-7.17s-7.34,2.79-7.34,7.13v.08c0,4.26,3.4,7.22,7.34,7.22s7.79-2.91,7.79-7.17Z"/>
  <path class="st0" d="M156.47,174.12v-.08c0-6.03,4.63-11.07,11.07-11.07s11.03,5,11.03,10.99v.08c0,6.03-4.72,11.07-11.11,11.07s-10.99-5-10.99-10.99ZM175.33,174.12v-.08c0-4.55-3.4-8.28-7.87-8.28s-7.75,3.73-7.75,8.2v.08c0,4.55,3.36,8.24,7.83,8.24s7.79-3.73,7.79-8.16Z"/>
  <path class="st0" d="M181.81,188.18c2.09-.78,2.91-1.8,2.75-3.57h-1.48v-4.31h3.77v3.69c0,3.32-1.44,4.92-4.55,5.62l-.49-1.44Z"/>
  <path class="st0" d="M205.8,163.42h3.16v4.26c1.76-2.5,4.18-4.71,8.12-4.71,5.08,0,10.13,4.02,10.13,10.99v.08c0,6.89-5,11.03-10.13,11.03-3.94,0-6.48-2.09-8.12-4.51v10.62h-3.16v-27.76ZM223.96,174.08v-.08c0-5.04-3.4-8.2-7.46-8.2s-7.67,3.36-7.67,8.16v.08c0,4.92,3.73,8.2,7.67,8.2s7.46-3.03,7.46-8.16Z"/>
  <path class="st0" d="M231.71,174.12v-.08c0-6.03,4.63-11.07,11.07-11.07s11.03,5,11.03,10.99v.08c0,6.03-4.72,11.07-11.11,11.07s-10.99-5-10.99-10.99ZM250.57,174.12v-.08c0-4.55-3.4-8.28-7.87-8.28s-7.75,3.73-7.75,8.2v.08c0,4.55,3.36,8.24,7.83,8.24s7.79-3.73,7.79-8.16Z"/>
  <path class="st0" d="M259.51,163.42h3.16v3.69c1.43-2.3,3.61-4.14,7.26-4.14,5.08,0,8.12,3.44,8.12,8.49v13.16h-3.16v-12.38c0-3.94-2.09-6.4-5.86-6.4s-6.35,2.67-6.35,6.64v12.14h-3.16v-21.2Z"/>
  <path class="st0" d="M285.87,179v-12.79h-2.95v-2.79h2.95v-6.4h3.16v6.4h6.72v2.79h-6.72v12.38c0,2.62,1.44,3.53,3.57,3.53,1.11,0,1.97-.21,3.08-.74v2.71c-1.11.62-2.3.9-3.81.9-3.44,0-5.99-1.68-5.99-5.99Z"/>
  <path class="st0" d="M299.4,174.08v-.08c0-6.11,4.26-11.03,10.17-11.03,6.27,0,9.88,5,9.88,11.19,0,.45,0,.66-.04,1.02h-16.81c.45,4.59,3.69,7.18,7.46,7.18,2.95,0,4.92-1.19,6.68-2.99l1.97,1.76c-2.13,2.42-4.67,3.98-8.73,3.98-5.78,0-10.58-4.47-10.58-11.03ZM316.25,172.85c-.33-3.81-2.5-7.22-6.77-7.22-3.73,0-6.44,3.12-6.89,7.22h13.65Z"/>
  <path class="st0" d="M337.57,154.69h3.16v29.93h-3.16v-29.93Z"/>
  <path class="st0" d="M346.75,174.12v-.08c0-6.03,4.63-11.07,11.07-11.07s11.03,5,11.03,10.99v.08c0,6.03-4.72,11.07-11.11,11.07s-10.99-5-10.99-10.99ZM365.61,174.12v-.08c0-4.55-3.4-8.28-7.87-8.28s-7.75,3.73-7.75,8.2v.08c0,4.55,3.36,8.24,7.83,8.24s7.79-3.73,7.79-8.16Z"/>
  <path class="st0" d="M372.79,181.91l1.6-2.25c2.3,1.76,4.84,2.71,7.34,2.71s4.39-1.27,4.39-3.36v-.08c0-2.09-2.5-2.95-5.29-3.73-3.28-.98-7.01-2.05-7.01-5.99v-.08c0-3.65,3.03-6.07,7.22-6.07,2.62,0,5.45.9,7.63,2.34l-1.44,2.38c-1.97-1.27-4.18-2.05-6.27-2.05-2.5,0-4.1,1.31-4.1,3.08v.08c0,2.01,2.62,2.79,5.45,3.65,3.28.98,6.81,2.25,6.81,6.07v.08c0,4.02-3.32,6.36-7.54,6.36-3.08,0-6.36-1.19-8.77-3.12Z"/>
  <path class="st0" d="M405.67,178.47v-.08c0-4.43,3.69-6.85,9.06-6.85,2.75,0,4.59.37,6.52.9v-.74c0-3.81-2.34-5.78-6.31-5.78-2.5,0-4.47.62-6.44,1.56l-.94-2.58c2.34-1.11,4.59-1.76,7.71-1.76s5.29.78,6.85,2.34c1.43,1.43,2.17,3.53,2.17,6.19v12.96h-3.03v-3.2c-1.48,1.93-3.9,3.65-7.67,3.65s-7.91-2.21-7.91-6.6ZM421.29,176.83v-2.05c-1.6-.45-3.61-.9-6.23-.9-3.98,0-6.19,1.72-6.19,4.39v.08c0,2.67,2.5,4.22,5.33,4.22,3.94,0,7.09-2.38,7.09-5.74Z"/>
  <path class="st0" d="M430.68,176.58v-13.16h3.16v12.38c0,3.94,2.09,6.4,5.86,6.4s6.35-2.67,6.35-6.64v-12.14h3.12v21.2h-3.12v-3.69c-1.43,2.3-3.61,4.14-7.26,4.14-5.08,0-8.12-3.44-8.12-8.49Z"/>
  <path class="st0" d="M455.03,174.08v-.08c0-6.89,5.04-11.03,10.13-11.03,3.94,0,6.48,2.09,8.12,4.51v-12.79h3.16v29.93h-3.16v-4.26c-1.76,2.54-4.18,4.72-8.12,4.72-5.08,0-10.13-4.02-10.13-10.99ZM473.4,174.04v-.08c0-4.88-3.73-8.16-7.67-8.16s-7.46,3.03-7.46,8.16v.08c0,5.04,3.4,8.2,7.46,8.2s7.67-3.32,7.67-8.2Z"/>
  <path class="st0" d="M483.77,163.42h3.16v21.2h-3.16v-21.2ZM487.99,154.27l3.28,1.52-4.67,4.43h-2.46l3.85-5.95Z"/>
  <path class="st0" d="M495.46,166.21h-2.91v-2.75h2.91v-1.84c0-2.42.62-4.22,1.85-5.45,1.11-1.11,2.62-1.64,4.55-1.64,1.48,0,2.46.16,3.49.53v2.75c-1.15-.33-1.97-.53-3.08-.53-2.46,0-3.69,1.52-3.69,4.51v1.72h6.72v2.71h-6.68v18.41h-3.16v-18.41Z"/>
  <path class="st0" d="M507.59,174.12v-.08c0-6.03,4.63-11.07,11.07-11.07s11.03,5,11.03,10.99v.08c0,6.03-4.71,11.07-11.11,11.07s-10.99-5-10.99-10.99ZM526.45,174.12v-.08c0-4.55-3.4-8.28-7.87-8.28s-7.75,3.73-7.75,8.2v.08c0,4.55,3.36,8.24,7.83,8.24s7.79-3.73,7.79-8.16Z"/>
  <path class="st0" d="M535.39,163.42h3.16v3.69c1.43-2.3,3.61-4.14,7.26-4.14,5.08,0,8.12,3.44,8.12,8.49v13.16h-3.16v-12.38c0-3.94-2.09-6.4-5.86-6.4s-6.35,2.67-6.35,6.64v12.14h-3.16v-21.2Z"/>
  <path class="st0" d="M559.33,174.12v-.08c0-6.03,4.63-11.07,11.07-11.07s11.03,5,11.03,10.99v.08c0,6.03-4.72,11.07-11.11,11.07s-10.99-5-10.99-10.99ZM578.19,174.12v-.08c0-4.55-3.4-8.28-7.87-8.28s-7.75,3.73-7.75,8.2v.08c0,4.55,3.36,8.24,7.83,8.24s7.79-3.73,7.79-8.16Z"/>
  <path class="st0" d="M585.37,181.91l1.6-2.25c2.3,1.76,4.84,2.71,7.34,2.71s4.39-1.27,4.39-3.36v-.08c0-2.09-2.5-2.95-5.29-3.73-3.28-.98-7.01-2.05-7.01-5.99v-.08c0-3.65,3.03-6.07,7.22-6.07,2.62,0,5.45.9,7.63,2.34l-1.44,2.38c-1.97-1.27-4.18-2.05-6.27-2.05-2.5,0-4.1,1.31-4.1,3.08v.08c0,2.01,2.62,2.79,5.45,3.65,3.28.98,6.81,2.25,6.81,6.07v.08c0,4.02-3.32,6.36-7.54,6.36-3.08,0-6.36-1.19-8.77-3.12Z"/>
  <path class="st0" d="M607.14,180.31h3.77v4.31h-3.77v-4.31Z"/>
</svg>