<?xml version="1.0" encoding="UTF-8"?>
<svg id="Layer_1" xmlns="http://www.w3.org/2000/svg" version="1.1" viewBox="0 0 720.11 218.81">
  <!-- Generator: Adobe Illustrator 29.7.1, SVG Export Plug-In . SVG Version: 2.1.1 Build 8)  -->
  <defs>
    <style>
      .st0 {
        fill: #fff;
      }
    </style>
  </defs>
  <path class="st0" d="M159.59,53.26l2.52-23.67h4.5l2.52,23.67v1.07h-9.53v-1.07ZM160.02,16.85h8.67v8.57h-8.67v-8.57Z"/>
  <path class="st0" d="M175.87,35.7v-.11c0-10.66,8.03-19.38,19.54-19.38,7.01,0,11.35,2.36,14.78,5.78l-5.25,6.05c-2.94-2.62-5.78-4.23-9.58-4.23-6.32,0-10.87,5.25-10.87,11.67v.11c0,6.42,4.44,11.78,10.87,11.78,4.28,0,6.91-1.66,9.85-4.39l5.25,5.3c-3.86,4.12-8.08,6.69-15.37,6.69-11.03,0-19.22-8.51-19.22-19.28Z"/>
  <path class="st0" d="M214.47,46.09v-.11c0-6.21,4.76-9.16,11.56-9.16,2.95,0,4.93.48,7.01,1.18v-.48c0-3.43-2.09-5.25-6.16-5.25-3.16,0-5.3.54-7.92,1.55l-2.03-6.21c3.16-1.34,6.26-2.3,11.14-2.3,4.5,0,7.6,1.12,9.69,3.21,2.14,2.14,3.11,5.3,3.11,9.16v16.65h-7.87v-3.11c-1.98,2.2-4.66,3.64-8.67,3.64-5.41,0-9.85-3.05-9.85-8.78ZM233.15,44.21v-1.45c-1.45-.64-3.21-1.07-5.19-1.07-3.48,0-5.62,1.39-5.62,3.96v.11c0,2.2,1.82,3.48,4.44,3.48,3.86,0,6.37-2.03,6.37-5.03Z"/>
  <path class="st0" d="M247.88,25.63h8.14v5.78c1.66-3.91,4.28-6.53,9.16-6.32v8.51h-.43c-5.41,0-8.73,3.21-8.73,10.12v10.6h-8.14v-28.7Z"/>
  <path class="st0" d="M269.88,60.01l2.78-6.1c3,1.66,5.84,2.62,9.69,2.62,5.57,0,8.19-2.68,8.19-7.82v-1.39c-2.41,2.94-5.03,4.66-9.37,4.66-6.69,0-12.74-4.82-12.74-13.39v-.11c0-8.57,6.16-13.38,12.74-13.38,4.44,0,7.07,1.87,9.26,4.28v-3.75h8.14v22.22c0,5.09-1.23,8.89-3.64,11.3-2.73,2.73-6.8,3.86-12.37,3.86-4.71,0-9.05-1.07-12.69-3ZM290.55,38.59v-.11c0-3.91-3-6.64-7.01-6.64s-6.96,2.73-6.96,6.64v.11c0,4.02,2.94,6.64,6.96,6.64s7.01-2.73,7.01-6.64Z"/>
  <path class="st0" d="M304.15,46.09v-.11c0-6.21,4.77-9.16,11.57-9.16,2.94,0,4.93.48,7.01,1.18v-.48c0-3.43-2.09-5.25-6.16-5.25-3.16,0-5.3.54-7.92,1.55l-2.04-6.21c3.16-1.34,6.26-2.3,11.14-2.3,4.5,0,7.6,1.12,9.69,3.21,2.14,2.14,3.11,5.3,3.11,9.16v16.65h-7.87v-3.11c-1.98,2.2-4.66,3.64-8.67,3.64-5.41,0-9.85-3.05-9.85-8.78ZM322.83,44.21v-1.45c-1.45-.64-3.21-1.07-5.19-1.07-3.48,0-5.62,1.39-5.62,3.96v.11c0,2.2,1.82,3.48,4.44,3.48,3.85,0,6.37-2.03,6.37-5.03Z"/>
  <path class="st0" d="M352.22,40.14v-.11c0-8.19,5.84-14.94,14.19-14.94,9.58,0,13.97,7.44,13.97,15.58,0,.64-.05,1.34-.11,2.14h-19.97c.8,3.69,3.37,5.62,7.01,5.62,2.73,0,4.66-.86,6.96-2.94l4.66,4.12c-2.73,3.37-6.53,5.36-11.73,5.36-8.62,0-14.99-6.05-14.99-14.83ZM372.46,37.74c-.48-3.64-2.62-6.1-6.05-6.1s-5.57,2.41-6.21,6.1h12.26Z"/>
  <path class="st0" d="M396.88,34.04l5.41-8.41h8.51l-9.69,14.03,10.12,14.67h-8.73l-5.78-8.94-5.78,8.94h-8.51l10.07-14.56-9.69-14.13h8.73l5.35,8.41Z"/>
  <path class="st0" d="M416.26,15.25h8.57v7.23h-8.57v-7.23ZM416.47,25.63h8.14v28.7h-8.14v-28.7Z"/>
  <path class="st0" d="M433.6,46.2v-13.6h-3.43v-6.96h3.43v-7.34h8.14v7.34h6.75v6.96h-6.75v12.26c0,1.87.86,2.78,2.62,2.78,1.45,0,2.78-.32,4.02-1.02v6.53c-1.71,1.02-3.69,1.66-6.43,1.66-4.93,0-8.35-1.98-8.35-8.62Z"/>
  <path class="st0" d="M452.29,40.14v-.11c0-8.25,6.64-14.94,15.58-14.94s15.47,6.53,15.47,14.83v.11c0,8.25-6.64,14.94-15.58,14.94s-15.47-6.53-15.47-14.83ZM475.31,40.14v-.11c0-4.23-3.05-7.92-7.55-7.92s-7.44,3.53-7.44,7.82v.11c0,4.23,3.05,7.92,7.55,7.92s7.44-3.53,7.44-7.82Z"/>
  <path class="st0" d="M486.98,50.53l3.48-5.35c3.16,2.3,6.32,3.43,9.05,3.43,2.36,0,3.43-.86,3.43-2.14v-.11c0-1.77-2.78-2.3-5.94-3.32-4.02-1.12-8.57-3.05-8.57-8.62v-.11c0-5.84,4.71-9.1,10.49-9.1,3.64,0,7.55,1.23,10.71,3.32l-3.11,5.62c-2.84-1.66-5.68-2.68-7.76-2.68-1.98,0-3,.86-3,1.98v.11c0,1.5,2.73,2.46,5.84,3.43,4.02,1.29,8.67,3.27,8.67,8.51v.11c0,6.37-4.77,9.26-10.98,9.26-4.07,0-8.46-1.34-12.32-4.34Z"/>
  <path class="st0" d="M514.39,46.09v-.11c0-6.21,4.76-9.16,11.56-9.16,2.95,0,4.93.48,7.01,1.18v-.48c0-3.43-2.09-5.25-6.16-5.25-3.16,0-5.3.54-7.92,1.55l-2.03-6.21c3.16-1.34,6.26-2.3,11.14-2.3,4.5,0,7.6,1.12,9.69,3.21,2.14,2.14,3.11,5.3,3.11,9.16v16.65h-7.87v-3.11c-1.98,2.2-4.66,3.64-8.67,3.64-5.41,0-9.85-3.05-9.85-8.78ZM533.08,44.21v-1.45c-1.45-.64-3.21-1.07-5.19-1.07-3.48,0-5.62,1.39-5.62,3.96v.11c0,2.2,1.82,3.48,4.44,3.48,3.86,0,6.37-2.03,6.37-5.03Z"/>
  <path class="st0" d="M548.07,17.92v-1.07h9.53v1.07l-2.52,23.67h-4.5l-2.52-23.67ZM548.5,45.77h8.67v8.57h-8.67v-8.57Z"/>
  <path class="st0" d="M20.1,95.34h21.76v3.1h-18.36v10.28h16.43v3.1h-16.43v10.53h18.58v3.1h-21.97v-30.1Z"/>
  <path class="st0" d="M48.66,94.05h3.31v31.39h-3.31v-31.39Z"/>
  <path class="st0" d="M59.75,94.7h3.78v3.66h-3.78v-3.66ZM59.97,103.21h3.31v22.23h-3.31v-22.23Z"/>
  <path class="st0" d="M70.72,129.31l1.5-2.58c2.58,1.85,5.33,2.84,8.56,2.84,4.95,0,8.08-2.71,8.08-7.91v-2.62c-1.93,2.58-4.64,4.69-8.73,4.69-5.33,0-10.45-4.04-10.45-10.41v-.09c0-6.49,5.12-10.49,10.45-10.49,4.17,0,6.84,2.06,8.69,4.47v-4h3.31v18.36c0,3.44-.99,6.02-2.84,7.87-2.02,2.02-4.9,2.97-8.47,2.97s-7.14-1.03-10.1-3.1ZM88.95,113.27v-.09c0-4.56-3.96-7.53-8.17-7.53s-7.7,2.92-7.7,7.48v.09c0,4.47,3.57,7.57,7.7,7.57s8.17-3.05,8.17-7.53Z"/>
  <path class="st0" d="M98.15,114.39v-.09c0-6.41,4.47-11.57,10.66-11.57,6.58,0,10.36,5.25,10.36,11.74,0,.47,0,.69-.04,1.08h-17.63c.47,4.82,3.87,7.53,7.83,7.53,3.1,0,5.16-1.25,7.01-3.14l2.06,1.85c-2.24,2.54-4.9,4.17-9.16,4.17-6.06,0-11.09-4.69-11.09-11.57ZM115.82,113.1c-.34-4-2.62-7.57-7.09-7.57-3.91,0-6.75,3.27-7.22,7.57h14.32Z"/>
  <path class="st0" d="M136.5,114.39v-.09c0-6.41,4.47-11.57,10.66-11.57,6.58,0,10.36,5.25,10.36,11.74,0,.47,0,.69-.04,1.08h-17.63c.47,4.82,3.87,7.53,7.83,7.53,3.1,0,5.16-1.25,7.01-3.14l2.06,1.85c-2.24,2.54-4.9,4.17-9.16,4.17-6.06,0-11.09-4.69-11.09-11.57ZM154.18,113.1c-.34-4-2.62-7.57-7.09-7.57-3.91,0-6.75,3.27-7.22,7.57h14.32Z"/>
  <path class="st0" d="M163.64,94.05h3.31v31.39h-3.31v-31.39Z"/>
  <path class="st0" d="M187.54,103.21h3.31v5.8c1.63-3.7,4.86-6.32,9.07-6.19v3.57h-.26c-4.86,0-8.81,3.48-8.81,10.19v8.86h-3.31v-22.23Z"/>
  <path class="st0" d="M205.04,94.7h3.78v3.66h-3.78v-3.66ZM205.26,103.21h3.31v22.23h-3.31v-22.23Z"/>
  <path class="st0" d="M217.43,119.55v-13.42h-3.1v-2.92h3.1v-6.71h3.31v6.71h7.05v2.92h-7.05v12.99c0,2.75,1.5,3.7,3.74,3.7,1.16,0,2.06-.21,3.23-.77v2.84c-1.16.65-2.41.95-4,.95-3.61,0-6.28-1.76-6.28-6.28Z"/>
  <path class="st0" d="M233.64,103.21h3.31v3.74c1.5-2.24,3.44-4.21,7.18-4.21s5.93,1.89,7.14,4.43c1.63-2.45,3.91-4.43,7.83-4.43,5.16,0,8.26,3.4,8.26,8.94v13.76h-3.31v-12.99c0-4.3-2.15-6.71-5.76-6.71-3.31,0-6.15,2.49-6.15,6.88v12.81h-3.27v-13.07c0-4.17-2.15-6.62-5.72-6.62s-6.19,2.92-6.19,7.01v12.68h-3.31v-22.23Z"/>
  <path class="st0" d="M273.03,114.43v-.09c0-6.32,4.86-11.61,11.61-11.61s11.57,5.25,11.57,11.52v.09c0,6.32-4.94,11.61-11.65,11.61s-11.52-5.25-11.52-11.52ZM292.81,114.43v-.09c0-4.77-3.57-8.69-8.26-8.69s-8.13,3.91-8.13,8.6v.09c0,4.77,3.53,8.64,8.21,8.64s8.17-3.91,8.17-8.56Z"/>
  <path class="st0" d="M332.92,120.97c-1.85,2.67-4.39,4.95-8.51,4.95-5.33,0-10.62-4.21-10.62-11.52v-.09c0-7.22,5.29-11.57,10.62-11.57,4.13,0,6.79,2.19,8.51,4.73v-4.26h3.31v29.11h-3.31v-11.35ZM333.05,114.35v-.09c0-5.12-3.91-8.56-8.04-8.56s-7.83,3.18-7.83,8.56v.09c0,5.29,3.57,8.6,7.83,8.6s8.04-3.48,8.04-8.6Z"/>
  <path class="st0" d="M343.29,117.01v-13.8h3.31v12.99c0,4.13,2.19,6.71,6.15,6.71s6.67-2.79,6.67-6.97v-12.73h3.27v22.23h-3.27v-3.87c-1.5,2.41-3.78,4.34-7.61,4.34-5.33,0-8.51-3.61-8.51-8.9Z"/>
  <path class="st0" d="M368.74,114.39v-.09c0-6.41,4.47-11.57,10.66-11.57,6.58,0,10.36,5.25,10.36,11.74,0,.47,0,.69-.04,1.08h-17.63c.47,4.82,3.87,7.53,7.83,7.53,3.1,0,5.16-1.25,7.01-3.14l2.06,1.85c-2.24,2.54-4.9,4.17-9.16,4.17-6.06,0-11.09-4.69-11.09-11.57ZM386.42,113.1c-.34-4-2.62-7.57-7.09-7.57-3.91,0-6.75,3.27-7.22,7.57h14.32Z"/>
  <path class="st0" d="M409.63,119.55v-13.42h-3.1v-2.92h3.1v-6.71h3.31v6.71h7.05v2.92h-7.05v12.99c0,2.75,1.5,3.7,3.74,3.7,1.16,0,2.06-.21,3.23-.77v2.84c-1.16.65-2.41.95-4,.95-3.61,0-6.28-1.76-6.28-6.28Z"/>
  <path class="st0" d="M423.82,114.39v-.09c0-6.41,4.47-11.57,10.66-11.57,6.58,0,10.36,5.25,10.36,11.74,0,.47,0,.69-.04,1.08h-17.63c.47,4.82,3.87,7.53,7.83,7.53,3.1,0,5.16-1.25,7.01-3.14l2.06,1.85c-2.24,2.54-4.9,4.17-9.16,4.17-6.06,0-11.09-4.69-11.09-11.57ZM441.5,113.1c-.34-4-2.62-7.57-7.09-7.57-3.91,0-6.75,3.27-7.22,7.57h14.32Z"/>
  <path class="st0" d="M463.55,94.05h3.31v13.03c1.5-2.41,3.78-4.34,7.61-4.34,5.33,0,8.51,3.61,8.51,8.9v13.8h-3.31v-12.99c0-4.13-2.19-6.71-6.15-6.71s-6.67,2.79-6.67,6.97v12.73h-3.31v-31.39Z"/>
  <path class="st0" d="M488.37,118.99v-.09c0-4.64,3.87-7.18,9.5-7.18,2.88,0,4.82.39,6.84.95v-.77c0-4-2.45-6.06-6.62-6.06-2.62,0-4.69.65-6.75,1.63l-.99-2.71c2.45-1.16,4.82-1.85,8.08-1.85s5.55.82,7.18,2.45c1.5,1.51,2.28,3.7,2.28,6.49v13.59h-3.18v-3.35c-1.55,2.02-4.08,3.83-8.04,3.83s-8.3-2.32-8.3-6.92ZM504.75,117.27v-2.15c-1.68-.47-3.78-.95-6.54-.95-4.17,0-6.49,1.81-6.49,4.6v.09c0,2.79,2.62,4.43,5.59,4.43,4.13,0,7.44-2.49,7.44-6.02Z"/>
  <path class="st0" d="M514.68,129.31l1.5-2.58c2.58,1.85,5.33,2.84,8.56,2.84,4.95,0,8.08-2.71,8.08-7.91v-2.62c-1.93,2.58-4.64,4.69-8.73,4.69-5.33,0-10.45-4.04-10.45-10.41v-.09c0-6.49,5.12-10.49,10.45-10.49,4.17,0,6.84,2.06,8.69,4.47v-4h3.31v18.36c0,3.44-.99,6.02-2.84,7.87-2.02,2.02-4.9,2.97-8.47,2.97s-7.14-1.03-10.1-3.1ZM532.91,113.27v-.09c0-4.56-3.96-7.53-8.17-7.53s-7.7,2.92-7.7,7.48v.09c0,4.47,3.57,7.57,7.7,7.57s8.17-3.05,8.17-7.53Z"/>
  <path class="st0" d="M541.81,118.99v-.09c0-4.64,3.87-7.18,9.5-7.18,2.88,0,4.82.39,6.84.95v-.77c0-4-2.45-6.06-6.62-6.06-2.62,0-4.69.65-6.75,1.63l-.99-2.71c2.45-1.16,4.82-1.85,8.08-1.85s5.55.82,7.18,2.45c1.5,1.51,2.28,3.7,2.28,6.49v13.59h-3.18v-3.35c-1.55,2.02-4.08,3.83-8.04,3.83s-8.3-2.32-8.3-6.92ZM558.2,117.27v-2.15c-1.68-.47-3.78-.95-6.54-.95-4.17,0-6.49,1.81-6.49,4.6v.09c0,2.79,2.62,4.43,5.59,4.43,4.13,0,7.44-2.49,7.44-6.02Z"/>
  <path class="st0" d="M579.09,103.21h3.66l7.48,18.45,7.53-18.45h3.57l-9.68,22.4h-2.92l-9.63-22.4Z"/>
  <path class="st0" d="M606.61,94.7h3.78v3.66h-3.78v-3.66ZM606.83,103.21h3.31v22.23h-3.31v-22.23Z"/>
  <path class="st0" d="M621.15,121.19v4.26h-3.31v-31.39h3.31v13.63c1.85-2.62,4.39-4.95,8.51-4.95,5.33,0,10.62,4.21,10.62,11.52v.09c0,7.22-5.25,11.57-10.62,11.57-4.13,0-6.79-2.19-8.51-4.73ZM636.89,114.39v-.09c0-5.29-3.57-8.6-7.83-8.6s-8.04,3.53-8.04,8.56v.09c0,5.16,3.91,8.6,8.04,8.6s7.83-3.18,7.83-8.56Z"/>
  <path class="st0" d="M646.39,103.21h3.31v5.8c1.63-3.7,4.86-6.32,9.07-6.19v3.57h-.26c-4.86,0-8.82,3.48-8.82,10.19v8.86h-3.31v-22.23Z"/>
  <path class="st0" d="M661.05,118.99v-.09c0-4.64,3.87-7.18,9.5-7.18,2.88,0,4.82.39,6.84.95v-.77c0-4-2.45-6.06-6.62-6.06-2.62,0-4.69.65-6.75,1.63l-.99-2.71c2.45-1.16,4.82-1.85,8.08-1.85s5.55.82,7.18,2.45c1.5,1.51,2.28,3.7,2.28,6.49v13.59h-3.18v-3.35c-1.55,2.02-4.08,3.83-8.04,3.83s-8.3-2.32-8.3-6.92ZM677.43,117.27v-2.15c-1.68-.47-3.78-.95-6.54-.95-4.17,0-6.49,1.81-6.49,4.6v.09c0,2.79,2.62,4.43,5.59,4.43,4.13,0,7.44-2.49,7.44-6.02Z"/>
  <path class="st0" d="M687.63,103.21h3.31v5.8c1.63-3.7,4.86-6.32,9.07-6.19v3.57h-.26c-4.86,0-8.82,3.48-8.82,10.19v8.86h-3.31v-22.23Z"/>
  <path class="st0" d="M130.96,174.32h3.53l-9.33,22.96c-1.89,4.6-4.08,6.28-7.4,6.28-1.85,0-3.22-.39-4.73-1.12l1.12-2.62c1.08.56,2.06.82,3.48.82,2.02,0,3.23-1.03,4.56-4.17l-10.11-22.14h3.66l8.08,18.53,7.14-18.53Z"/>
  <path class="st0" d="M151.25,185.5v-.09c0-6.41,4.47-11.57,10.66-11.57,6.58,0,10.36,5.25,10.36,11.74,0,.47,0,.69-.04,1.08h-17.63c.47,4.82,3.87,7.52,7.83,7.52,3.1,0,5.16-1.25,7.01-3.14l2.06,1.85c-2.24,2.54-4.9,4.17-9.16,4.17-6.06,0-11.09-4.69-11.09-11.57ZM168.92,184.21c-.34-4-2.62-7.57-7.09-7.57-3.91,0-6.75,3.27-7.22,7.57h14.32Z"/>
  <path class="st0" d="M176.79,185.5v-.09c0-7.22,5.29-11.57,10.62-11.57,4.13,0,6.79,2.19,8.51,4.73v-13.42h3.31v31.39h-3.31v-4.47c-1.85,2.67-4.39,4.94-8.51,4.94-5.33,0-10.62-4.21-10.62-11.52ZM196.06,185.46v-.09c0-5.12-3.91-8.56-8.04-8.56s-7.83,3.18-7.83,8.56v.09c0,5.29,3.57,8.6,7.83,8.6s8.04-3.48,8.04-8.6Z"/>
  <path class="st0" d="M206.94,174.32h3.31v22.23h-3.31v-22.23ZM211.36,164.73l3.44,1.59-4.9,4.64h-2.58l4.04-6.23Z"/>
  <path class="st0" d="M219.1,190.66v-13.42h-3.1v-2.92h3.1v-6.71h3.31v6.71h7.05v2.92h-7.05v12.99c0,2.75,1.5,3.7,3.74,3.7,1.16,0,2.06-.21,3.23-.77v2.84c-1.16.64-2.41.95-4,.95-3.61,0-6.28-1.76-6.28-6.28Z"/>
  <path class="st0" d="M233.64,190.1v-.09c0-4.64,3.87-7.18,9.5-7.18,2.88,0,4.82.39,6.84.95v-.77c0-4-2.45-6.06-6.62-6.06-2.62,0-4.69.64-6.75,1.63l-.99-2.71c2.45-1.16,4.82-1.85,8.08-1.85s5.55.82,7.18,2.45c1.5,1.5,2.28,3.7,2.28,6.49v13.59h-3.18v-3.35c-1.55,2.02-4.08,3.83-8.04,3.83s-8.3-2.32-8.3-6.92ZM250.02,188.38v-2.15c-1.68-.47-3.78-.95-6.54-.95-4.17,0-6.49,1.81-6.49,4.6v.09c0,2.79,2.62,4.43,5.59,4.43,4.13,0,7.44-2.49,7.44-6.02Z"/>
  <path class="st0" d="M260.51,165.16h3.31v31.39h-3.31v-31.39Z"/>
  <path class="st0" d="M270.14,185.54v-.09c0-6.32,4.86-11.61,11.61-11.61s11.57,5.25,11.57,11.52v.09c0,6.32-4.94,11.61-11.65,11.61s-11.52-5.25-11.52-11.52ZM289.92,185.54v-.09c0-4.77-3.57-8.69-8.26-8.69s-8.13,3.91-8.13,8.6v.09c0,4.77,3.53,8.64,8.21,8.64s8.17-3.91,8.17-8.56Z"/>
  <path class="st0" d="M310.82,185.54v-.09c0-6.32,4.86-11.61,11.39-11.61,4.21,0,6.79,1.72,8.9,3.96l-2.19,2.32c-1.76-1.85-3.7-3.35-6.75-3.35-4.51,0-7.96,3.78-7.96,8.6v.09c0,4.82,3.53,8.64,8.17,8.64,2.88,0,5.03-1.42,6.79-3.31l2.11,1.98c-2.24,2.54-4.9,4.3-9.07,4.3-6.54,0-11.39-5.29-11.39-11.52Z"/>
  <path class="st0" d="M334.73,185.54v-.09c0-6.32,4.86-11.61,11.61-11.61s11.57,5.25,11.57,11.52v.09c0,6.32-4.94,11.61-11.65,11.61s-11.52-5.25-11.52-11.52ZM354.51,185.54v-.09c0-4.77-3.57-8.69-8.26-8.69s-8.13,3.91-8.13,8.6v.09c0,4.77,3.53,8.64,8.21,8.64s8.17-3.91,8.17-8.56Z"/>
  <path class="st0" d="M363.88,174.32h3.31v3.74c1.5-2.24,3.44-4.21,7.18-4.21s5.93,1.89,7.14,4.43c1.63-2.45,3.91-4.43,7.83-4.43,5.16,0,8.26,3.4,8.26,8.94v13.76h-3.31v-12.99c0-4.3-2.15-6.71-5.76-6.71-3.31,0-6.15,2.49-6.15,6.88v12.81h-3.27v-13.07c0-4.17-2.15-6.62-5.72-6.62s-6.19,2.92-6.19,7.01v12.68h-3.31v-22.23Z"/>
  <path class="st0" d="M403.27,185.54v-.09c0-6.32,4.86-11.61,11.61-11.61s11.57,5.25,11.57,11.52v.09c0,6.32-4.95,11.61-11.65,11.61s-11.52-5.25-11.52-11.52ZM423.05,185.54v-.09c0-4.77-3.57-8.69-8.26-8.69s-8.13,3.91-8.13,8.6v.09c0,4.77,3.53,8.64,8.21,8.64s8.17-3.91,8.17-8.56Z"/>
  <path class="st0" d="M463.17,192.08c-1.85,2.67-4.39,4.94-8.51,4.94-5.33,0-10.62-4.21-10.62-11.52v-.09c0-7.22,5.29-11.57,10.62-11.57,4.13,0,6.79,2.19,8.51,4.73v-4.26h3.31v29.11h-3.31v-11.35ZM463.3,185.46v-.09c0-5.12-3.91-8.56-8.04-8.56s-7.83,3.18-7.83,8.56v.09c0,5.29,3.57,8.6,7.83,8.6s8.04-3.48,8.04-8.6Z"/>
  <path class="st0" d="M473.53,188.12v-13.8h3.31v12.99c0,4.13,2.19,6.71,6.15,6.71s6.66-2.79,6.66-6.96v-12.73h3.27v22.23h-3.27v-3.87c-1.5,2.41-3.78,4.34-7.61,4.34-5.33,0-8.51-3.61-8.51-8.9Z"/>
  <path class="st0" d="M500.45,165.81h3.78v3.66h-3.78v-3.66ZM500.66,174.32h3.31v22.23h-3.31v-22.23Z"/>
  <path class="st0" d="M510.3,185.5v-.09c0-6.41,4.47-11.57,10.66-11.57,6.58,0,10.36,5.25,10.36,11.74,0,.47,0,.69-.04,1.08h-17.63c.47,4.82,3.87,7.52,7.83,7.52,3.1,0,5.16-1.25,7.01-3.14l2.06,1.85c-2.24,2.54-4.9,4.17-9.16,4.17-6.06,0-11.09-4.69-11.09-11.57ZM527.97,184.21c-.34-4-2.62-7.57-7.09-7.57-3.91,0-6.75,3.27-7.22,7.57h14.32Z"/>
  <path class="st0" d="M537.13,174.32h3.31v5.8c1.63-3.7,4.86-6.32,9.07-6.19v3.57h-.26c-4.86,0-8.82,3.48-8.82,10.19v8.86h-3.31v-22.23Z"/>
  <path class="st0" d="M551.79,190.1v-.09c0-4.64,3.87-7.18,9.5-7.18,2.88,0,4.82.39,6.84.95v-.77c0-4-2.45-6.06-6.62-6.06-2.62,0-4.69.64-6.75,1.63l-.99-2.71c2.45-1.16,4.82-1.85,8.08-1.85s5.55.82,7.18,2.45c1.5,1.5,2.28,3.7,2.28,6.49v13.59h-3.18v-3.35c-1.55,2.02-4.08,3.83-8.04,3.83s-8.3-2.32-8.3-6.92ZM568.17,188.38v-2.15c-1.68-.47-3.78-.95-6.54-.95-4.17,0-6.49,1.81-6.49,4.6v.09c0,2.79,2.62,4.43,5.59,4.43,4.13,0,7.44-2.49,7.44-6.02Z"/>
  <path class="st0" d="M576.52,193.71l1.68-2.37c2.41,1.85,5.07,2.84,7.7,2.84s4.6-1.33,4.6-3.53v-.09c0-2.19-2.62-3.1-5.55-3.91-3.44-1.03-7.35-2.15-7.35-6.28v-.09c0-3.83,3.18-6.36,7.57-6.36,2.75,0,5.72.95,8,2.45l-1.5,2.49c-2.06-1.33-4.39-2.15-6.58-2.15-2.62,0-4.3,1.38-4.3,3.22v.09c0,2.11,2.75,2.92,5.72,3.83,3.44,1.03,7.14,2.36,7.14,6.36v.09c0,4.21-3.48,6.67-7.91,6.67-3.22,0-6.67-1.25-9.2-3.27Z"/>
  <path class="st0" d="M599.35,192.04h3.96v4.51h-3.96v-4.51Z"/>
</svg>