<?xml version="1.0" encoding="UTF-8"?>
<svg id="Layer_1" xmlns="http://www.w3.org/2000/svg" version="1.1" viewBox="0 0 900.83 186.67">
  <!-- Generator: Adobe Illustrator 29.7.1, SVG Export Plug-In . SVG Version: 2.1.1 Build 8)  -->
  <defs>
    <style>
      .st0 {
        fill: #fff;
      }
    </style>
  </defs>
  <path class="st0" d="M296.41,74.39l1.94-18.27h3.47l1.94,18.27v.83h-7.36v-.83ZM296.74,46.28h6.7v6.61h-6.7v-6.61Z"/>
  <path class="st0" d="M308.98,60.83v-.08c0-8.22,6.2-14.96,15.09-14.96,5.42,0,8.76,1.82,11.41,4.46l-4.05,4.67c-2.27-2.03-4.46-3.27-7.4-3.27-4.88,0-8.39,4.05-8.39,9.01v.08c0,4.96,3.43,9.09,8.39,9.09,3.31,0,5.33-1.28,7.61-3.39l4.05,4.09c-2.98,3.18-6.24,5.17-11.86,5.17-8.52,0-14.84-6.57-14.84-14.88Z"/>
  <path class="st0" d="M338.79,68.85v-.08c0-4.79,3.68-7.07,8.93-7.07,2.27,0,3.8.37,5.42.91v-.37c0-2.64-1.61-4.05-4.75-4.05-2.44,0-4.09.41-6.12,1.2l-1.57-4.79c2.44-1.03,4.84-1.78,8.6-1.78,3.47,0,5.87.87,7.48,2.48,1.65,1.65,2.4,4.09,2.4,7.07v12.86h-6.08v-2.4c-1.53,1.7-3.6,2.81-6.7,2.81-4.17,0-7.61-2.36-7.61-6.78ZM353.21,67.41v-1.12c-1.12-.5-2.48-.83-4.01-.83-2.69,0-4.34,1.07-4.34,3.06v.08c0,1.69,1.41,2.69,3.43,2.69,2.98,0,4.92-1.57,4.92-3.88Z"/>
  <path class="st0" d="M364.58,53.06h6.28v4.46c1.28-3.02,3.31-5.04,7.07-4.88v6.57h-.33c-4.17,0-6.74,2.48-6.74,7.81v8.19h-6.28v-22.16Z"/>
  <path class="st0" d="M381.57,79.6l2.15-4.71c2.31,1.28,4.51,2.03,7.48,2.03,4.3,0,6.32-2.07,6.32-6.04v-1.08c-1.86,2.27-3.89,3.6-7.23,3.6-5.17,0-9.84-3.72-9.84-10.33v-.08c0-6.61,4.75-10.33,9.84-10.33,3.43,0,5.46,1.45,7.15,3.31v-2.89h6.28v17.15c0,3.93-.95,6.86-2.81,8.72-2.11,2.11-5.25,2.98-9.55,2.98-3.64,0-6.99-.83-9.8-2.31ZM397.53,63.06v-.08c0-3.02-2.31-5.12-5.42-5.12s-5.37,2.11-5.37,5.12v.08c0,3.1,2.27,5.13,5.37,5.13s5.42-2.11,5.42-5.13Z"/>
  <path class="st0" d="M408.03,68.85v-.08c0-4.79,3.68-7.07,8.93-7.07,2.27,0,3.8.37,5.41.91v-.37c0-2.64-1.61-4.05-4.75-4.05-2.44,0-4.09.41-6.12,1.2l-1.57-4.79c2.44-1.03,4.84-1.78,8.6-1.78,3.47,0,5.87.87,7.48,2.48s2.4,4.09,2.4,7.07v12.86h-6.08v-2.4c-1.53,1.7-3.6,2.81-6.7,2.81-4.17,0-7.61-2.36-7.61-6.78ZM422.45,67.41v-1.12c-1.12-.5-2.48-.83-4.01-.83-2.69,0-4.34,1.07-4.34,3.06v.08c0,1.69,1.41,2.69,3.43,2.69,2.98,0,4.92-1.57,4.92-3.88Z"/>
  <path class="st0" d="M445.15,64.26v-.08c0-6.32,4.51-11.53,10.95-11.53,7.4,0,10.79,5.75,10.79,12.03,0,.5-.04,1.03-.08,1.65h-15.42c.62,2.85,2.6,4.34,5.41,4.34,2.11,0,3.6-.66,5.37-2.27l3.6,3.18c-2.11,2.61-5.04,4.13-9.05,4.13-6.66,0-11.57-4.67-11.57-11.45ZM460.77,62.4c-.37-2.81-2.03-4.71-4.67-4.71s-4.3,1.86-4.79,4.71h9.47Z"/>
  <path class="st0" d="M479.62,59.55l4.18-6.49h6.57l-7.48,10.83,7.81,11.33h-6.74l-4.46-6.9-4.46,6.9h-6.57l7.77-11.24-7.48-10.91h6.74l4.13,6.49Z"/>
  <path class="st0" d="M494.59,45.04h6.61v5.58h-6.61v-5.58ZM494.76,53.06h6.28v22.16h-6.28v-22.16Z"/>
  <path class="st0" d="M507.98,68.93v-10.5h-2.65v-5.37h2.65v-5.66h6.28v5.66h5.21v5.37h-5.21v9.47c0,1.45.66,2.15,2.03,2.15,1.12,0,2.15-.25,3.1-.79v5.04c-1.32.79-2.85,1.28-4.96,1.28-3.8,0-6.45-1.53-6.45-6.65Z"/>
  <path class="st0" d="M522.41,64.26v-.08c0-6.37,5.12-11.53,12.03-11.53s11.95,5.04,11.95,11.45v.08c0,6.37-5.13,11.53-12.03,11.53s-11.95-5.04-11.95-11.45ZM540.18,64.26v-.08c0-3.27-2.36-6.12-5.83-6.12s-5.75,2.73-5.75,6.03v.08c0,3.27,2.36,6.12,5.83,6.12s5.75-2.73,5.75-6.04Z"/>
  <path class="st0" d="M549.2,72.28l2.69-4.13c2.44,1.78,4.88,2.64,6.99,2.64,1.82,0,2.65-.66,2.65-1.65v-.08c0-1.36-2.15-1.78-4.59-2.56-3.1-.87-6.61-2.36-6.61-6.65v-.08c0-4.51,3.64-7.03,8.1-7.03,2.81,0,5.83.95,8.27,2.56l-2.4,4.34c-2.19-1.28-4.38-2.07-5.99-2.07s-2.31.66-2.31,1.53v.08c0,1.16,2.11,1.9,4.5,2.65,3.1.99,6.7,2.52,6.7,6.57v.08c0,4.92-3.68,7.15-8.47,7.15-3.14,0-6.53-1.03-9.51-3.35Z"/>
  <path class="st0" d="M570.36,68.85v-.08c0-4.79,3.68-7.07,8.93-7.07,2.27,0,3.8.37,5.41.91v-.37c0-2.64-1.61-4.05-4.75-4.05-2.44,0-4.09.41-6.12,1.2l-1.57-4.79c2.44-1.03,4.84-1.78,8.6-1.78,3.47,0,5.87.87,7.48,2.48s2.4,4.09,2.4,7.07v12.86h-6.08v-2.4c-1.53,1.7-3.6,2.81-6.7,2.81-4.17,0-7.61-2.36-7.61-6.78ZM584.79,67.41v-1.12c-1.12-.5-2.48-.83-4.01-.83-2.69,0-4.34,1.07-4.34,3.06v.08c0,1.69,1.41,2.69,3.43,2.69,2.98,0,4.92-1.57,4.92-3.88Z"/>
  <path class="st0" d="M596.37,47.11v-.83h7.36v.83l-1.94,18.27h-3.47l-1.94-18.27ZM596.7,68.6h6.7v6.61h-6.7v-6.61Z"/>
  <path class="st0" d="M31.19,115.41h15.37v2.19h-12.97v7.26h11.6v2.19h-11.6v7.44h13.12v2.19h-15.52v-21.27Z"/>
  <path class="st0" d="M51.36,114.5h2.34v22.18h-2.34v-22.18Z"/>
  <path class="st0" d="M59.2,114.95h2.67v2.58h-2.67v-2.58ZM59.35,120.97h2.34v15.71h-2.34v-15.71Z"/>
  <path class="st0" d="M66.95,139.41l1.06-1.82c1.82,1.31,3.77,2,6.05,2,3.49,0,5.71-1.91,5.71-5.59v-1.85c-1.37,1.82-3.28,3.31-6.17,3.31-3.77,0-7.38-2.86-7.38-7.35v-.06c0-4.59,3.62-7.41,7.38-7.41,2.95,0,4.83,1.46,6.14,3.16v-2.83h2.34v12.97c0,2.43-.7,4.25-2,5.56-1.43,1.43-3.46,2.1-5.98,2.1s-5.04-.73-7.14-2.19ZM79.83,128.08v-.06c0-3.22-2.79-5.32-5.77-5.32s-5.44,2.07-5.44,5.29v.06c0,3.16,2.52,5.35,5.44,5.35s5.77-2.16,5.77-5.32Z"/>
  <path class="st0" d="M86.33,128.86v-.06c0-4.53,3.16-8.17,7.53-8.17,4.65,0,7.32,3.71,7.32,8.29,0,.33,0,.49-.03.76h-12.46c.33,3.4,2.73,5.32,5.53,5.32,2.19,0,3.65-.88,4.95-2.22l1.46,1.31c-1.58,1.79-3.46,2.95-6.47,2.95-4.28,0-7.84-3.31-7.84-8.17ZM98.81,127.95c-.24-2.83-1.85-5.35-5.01-5.35-2.76,0-4.77,2.31-5.1,5.35h10.12Z"/>
  <path class="st0" d="M113.42,128.86v-.06c0-4.53,3.16-8.17,7.53-8.17,4.65,0,7.32,3.71,7.32,8.29,0,.33,0,.49-.03.76h-12.46c.33,3.4,2.73,5.32,5.53,5.32,2.19,0,3.65-.88,4.95-2.22l1.46,1.31c-1.58,1.79-3.46,2.95-6.47,2.95-4.28,0-7.84-3.31-7.84-8.17ZM125.91,127.95c-.24-2.83-1.85-5.35-5.01-5.35-2.76,0-4.77,2.31-5.1,5.35h10.12Z"/>
  <path class="st0" d="M132.59,114.5h2.34v22.18h-2.34v-22.18Z"/>
  <path class="st0" d="M149.48,120.97h2.34v4.1c1.15-2.61,3.43-4.47,6.41-4.38v2.52h-.18c-3.43,0-6.23,2.46-6.23,7.2v6.26h-2.34v-15.71Z"/>
  <path class="st0" d="M161.85,114.95h2.67v2.58h-2.67v-2.58ZM162,120.97h2.34v15.71h-2.34v-15.71Z"/>
  <path class="st0" d="M170.59,132.51v-9.48h-2.19v-2.07h2.19v-4.74h2.34v4.74h4.98v2.07h-4.98v9.17c0,1.95,1.06,2.61,2.64,2.61.82,0,1.46-.15,2.28-.55v2c-.82.46-1.7.67-2.83.67-2.55,0-4.44-1.25-4.44-4.44Z"/>
  <path class="st0" d="M182.05,120.97h2.34v2.64c1.06-1.58,2.43-2.98,5.07-2.98s4.19,1.34,5.04,3.13c1.15-1.73,2.76-3.13,5.53-3.13,3.65,0,5.83,2.4,5.83,6.32v9.72h-2.34v-9.18c0-3.04-1.52-4.74-4.07-4.74-2.34,0-4.34,1.76-4.34,4.86v9.05h-2.31v-9.24c0-2.95-1.52-4.68-4.04-4.68s-4.37,2.07-4.37,4.95v8.96h-2.34v-15.71Z"/>
  <path class="st0" d="M209.87,128.9v-.06c0-4.47,3.43-8.2,8.2-8.2s8.17,3.71,8.17,8.14v.06c0,4.46-3.49,8.2-8.23,8.2s-8.14-3.71-8.14-8.14ZM223.85,128.9v-.06c0-3.37-2.52-6.14-5.83-6.14s-5.74,2.76-5.74,6.08v.06c0,3.37,2.49,6.11,5.8,6.11s5.77-2.76,5.77-6.04Z"/>
  <path class="st0" d="M252.19,133.51c-1.31,1.88-3.1,3.49-6.02,3.49-3.77,0-7.5-2.98-7.5-8.14v-.06c0-5.1,3.74-8.17,7.5-8.17,2.92,0,4.8,1.55,6.02,3.34v-3.01h2.34v20.57h-2.34v-8.02ZM252.28,128.84v-.06c0-3.62-2.76-6.05-5.68-6.05s-5.53,2.25-5.53,6.05v.06c0,3.74,2.52,6.08,5.53,6.08s5.68-2.46,5.68-6.08Z"/>
  <path class="st0" d="M259.51,130.72v-9.75h2.34v9.17c0,2.92,1.55,4.74,4.34,4.74s4.71-1.97,4.71-4.92v-8.99h2.31v15.71h-2.31v-2.73c-1.06,1.7-2.67,3.07-5.38,3.07-3.77,0-6.02-2.55-6.02-6.29Z"/>
  <path class="st0" d="M277.49,128.86v-.06c0-4.53,3.16-8.17,7.53-8.17,4.65,0,7.32,3.71,7.32,8.29,0,.33,0,.49-.03.76h-12.46c.33,3.4,2.73,5.32,5.53,5.32,2.19,0,3.65-.88,4.95-2.22l1.46,1.31c-1.58,1.79-3.46,2.95-6.47,2.95-4.28,0-7.84-3.31-7.84-8.17ZM289.98,127.95c-.24-2.83-1.85-5.35-5.01-5.35-2.76,0-4.77,2.31-5.1,5.35h10.12Z"/>
  <path class="st0" d="M306.38,132.51v-9.48h-2.19v-2.07h2.19v-4.74h2.34v4.74h4.98v2.07h-4.98v9.17c0,1.95,1.06,2.61,2.64,2.61.82,0,1.46-.15,2.28-.55v2c-.82.46-1.7.67-2.83.67-2.55,0-4.44-1.25-4.44-4.44Z"/>
  <path class="st0" d="M316.41,128.86v-.06c0-4.53,3.16-8.17,7.53-8.17,4.65,0,7.32,3.71,7.32,8.29,0,.33,0,.49-.03.76h-12.46c.33,3.4,2.73,5.32,5.53,5.32,2.19,0,3.65-.88,4.95-2.22l1.46,1.31c-1.58,1.79-3.46,2.95-6.47,2.95-4.28,0-7.84-3.31-7.84-8.17ZM328.89,127.95c-.24-2.83-1.85-5.35-5.01-5.35-2.76,0-4.77,2.31-5.1,5.35h10.12Z"/>
  <path class="st0" d="M344.47,114.5h2.34v9.21c1.06-1.7,2.67-3.07,5.38-3.07,3.77,0,6.02,2.55,6.02,6.29v9.75h-2.34v-9.18c0-2.92-1.55-4.74-4.34-4.74s-4.71,1.97-4.71,4.92v8.99h-2.34v-22.18Z"/>
  <path class="st0" d="M362,132.12v-.06c0-3.28,2.73-5.07,6.71-5.07,2.04,0,3.4.27,4.83.67v-.55c0-2.83-1.73-4.28-4.68-4.28-1.85,0-3.31.46-4.77,1.15l-.7-1.91c1.73-.82,3.4-1.31,5.71-1.31s3.92.58,5.07,1.73c1.06,1.06,1.61,2.61,1.61,4.59v9.6h-2.25v-2.37c-1.09,1.43-2.89,2.7-5.68,2.7s-5.86-1.64-5.86-4.89ZM373.58,130.9v-1.52c-1.19-.33-2.67-.67-4.62-.67-2.95,0-4.59,1.28-4.59,3.25v.06c0,1.97,1.85,3.13,3.95,3.13,2.92,0,5.26-1.76,5.26-4.25Z"/>
  <path class="st0" d="M380.59,139.41l1.06-1.82c1.82,1.31,3.77,2,6.05,2,3.49,0,5.71-1.91,5.71-5.59v-1.85c-1.37,1.82-3.28,3.31-6.17,3.31-3.77,0-7.38-2.86-7.38-7.35v-.06c0-4.59,3.62-7.41,7.38-7.41,2.95,0,4.83,1.46,6.14,3.16v-2.83h2.34v12.97c0,2.43-.7,4.25-2,5.56-1.43,1.43-3.46,2.1-5.98,2.1s-5.04-.73-7.14-2.19ZM393.47,128.08v-.06c0-3.22-2.79-5.32-5.77-5.32s-5.44,2.07-5.44,5.29v.06c0,3.16,2.52,5.35,5.44,5.35s5.77-2.16,5.77-5.32Z"/>
  <path class="st0" d="M399.76,132.12v-.06c0-3.28,2.73-5.07,6.71-5.07,2.04,0,3.4.27,4.83.67v-.55c0-2.83-1.73-4.28-4.68-4.28-1.85,0-3.31.46-4.77,1.15l-.7-1.91c1.73-.82,3.4-1.31,5.71-1.31s3.92.58,5.07,1.73c1.06,1.06,1.61,2.61,1.61,4.59v9.6h-2.25v-2.37c-1.09,1.43-2.89,2.7-5.68,2.7s-5.86-1.64-5.86-4.89ZM411.34,130.9v-1.52c-1.18-.33-2.67-.67-4.62-.67-2.95,0-4.59,1.28-4.59,3.25v.06c0,1.97,1.85,3.13,3.95,3.13,2.92,0,5.26-1.76,5.26-4.25Z"/>
  <path class="st0" d="M426.1,120.97h2.58l5.29,13.03,5.32-13.03h2.52l-6.83,15.83h-2.07l-6.81-15.83Z"/>
  <path class="st0" d="M445.54,114.95h2.67v2.58h-2.67v-2.58ZM445.69,120.97h2.34v15.71h-2.34v-15.71Z"/>
  <path class="st0" d="M455.81,133.67v3.01h-2.34v-22.18h2.34v9.63c1.31-1.85,3.1-3.49,6.01-3.49,3.77,0,7.5,2.98,7.5,8.14v.06c0,5.1-3.71,8.17-7.5,8.17-2.92,0-4.8-1.55-6.01-3.34ZM466.93,128.86v-.06c0-3.74-2.52-6.08-5.53-6.08s-5.68,2.49-5.68,6.05v.06c0,3.64,2.76,6.08,5.68,6.08s5.53-2.25,5.53-6.05Z"/>
  <path class="st0" d="M473.64,120.97h2.34v4.1c1.15-2.61,3.43-4.47,6.41-4.38v2.52h-.18c-3.43,0-6.23,2.46-6.23,7.2v6.26h-2.34v-15.71Z"/>
  <path class="st0" d="M484,132.12v-.06c0-3.28,2.73-5.07,6.71-5.07,2.04,0,3.4.27,4.83.67v-.55c0-2.83-1.73-4.28-4.68-4.28-1.85,0-3.31.46-4.77,1.15l-.7-1.91c1.73-.82,3.4-1.31,5.71-1.31s3.92.58,5.07,1.73c1.06,1.06,1.61,2.61,1.61,4.59v9.6h-2.25v-2.37c-1.09,1.43-2.89,2.7-5.68,2.7s-5.86-1.64-5.86-4.89ZM495.57,130.9v-1.52c-1.18-.33-2.67-.67-4.62-.67-2.95,0-4.59,1.28-4.59,3.25v.06c0,1.97,1.85,3.13,3.95,3.13,2.92,0,5.26-1.76,5.26-4.25Z"/>
  <path class="st0" d="M502.77,120.97h2.34v4.1c1.15-2.61,3.43-4.47,6.41-4.38v2.52h-.18c-3.43,0-6.23,2.46-6.23,7.2v6.26h-2.34v-15.71Z"/>
  <path class="st0" d="M535.94,120.97h2.49l-6.59,16.22c-1.34,3.25-2.89,4.44-5.23,4.44-1.31,0-2.28-.27-3.34-.79l.79-1.85c.76.39,1.46.58,2.46.58,1.43,0,2.28-.73,3.22-2.95l-7.14-15.65h2.58l5.71,13.09,5.04-13.09Z"/>
  <path class="st0" d="M550.28,128.86v-.06c0-4.53,3.16-8.17,7.53-8.17,4.65,0,7.32,3.71,7.32,8.29,0,.33,0,.49-.03.76h-12.46c.33,3.4,2.73,5.32,5.53,5.32,2.19,0,3.65-.88,4.95-2.22l1.46,1.31c-1.58,1.79-3.46,2.95-6.47,2.95-4.28,0-7.84-3.31-7.84-8.17ZM562.77,127.95c-.24-2.83-1.85-5.35-5.01-5.35-2.76,0-4.77,2.31-5.1,5.35h10.12Z"/>
  <path class="st0" d="M568.32,128.86v-.06c0-5.1,3.74-8.17,7.5-8.17,2.92,0,4.8,1.55,6.02,3.34v-9.48h2.34v22.18h-2.34v-3.16c-1.31,1.88-3.1,3.49-6.02,3.49-3.77,0-7.5-2.98-7.5-8.14ZM581.93,128.84v-.06c0-3.62-2.76-6.05-5.68-6.05s-5.53,2.25-5.53,6.05v.06c0,3.74,2.52,6.08,5.53,6.08s5.68-2.46,5.68-6.08Z"/>
  <path class="st0" d="M589.62,120.97h2.34v15.71h-2.34v-15.71ZM592.75,114.19l2.43,1.12-3.46,3.28h-1.82l2.86-4.41Z"/>
  <path class="st0" d="M598.22,132.51v-9.48h-2.19v-2.07h2.19v-4.74h2.34v4.74h4.98v2.07h-4.98v9.17c0,1.95,1.06,2.61,2.64,2.61.82,0,1.46-.15,2.28-.55v2c-.82.46-1.7.67-2.82.67-2.55,0-4.44-1.25-4.44-4.44Z"/>
  <path class="st0" d="M608.48,132.12v-.06c0-3.28,2.73-5.07,6.71-5.07,2.04,0,3.4.27,4.83.67v-.55c0-2.83-1.73-4.28-4.68-4.28-1.85,0-3.31.46-4.77,1.15l-.7-1.91c1.73-.82,3.4-1.31,5.71-1.31s3.92.58,5.07,1.73c1.06,1.06,1.61,2.61,1.61,4.59v9.6h-2.25v-2.37c-1.09,1.43-2.88,2.7-5.68,2.7s-5.86-1.64-5.86-4.89ZM620.06,130.9v-1.52c-1.19-.33-2.67-.67-4.62-.67-2.95,0-4.59,1.28-4.59,3.25v.06c0,1.97,1.85,3.13,3.95,3.13,2.92,0,5.26-1.76,5.26-4.25Z"/>
  <path class="st0" d="M627.47,114.5h2.34v22.18h-2.34v-22.18Z"/>
  <path class="st0" d="M634.27,128.9v-.06c0-4.47,3.43-8.2,8.2-8.2s8.17,3.71,8.17,8.14v.06c0,4.46-3.49,8.2-8.23,8.2s-8.14-3.71-8.14-8.14ZM648.25,128.9v-.06c0-3.37-2.52-6.14-5.83-6.14s-5.74,2.76-5.74,6.08v.06c0,3.37,2.49,6.11,5.8,6.11s5.77-2.76,5.77-6.04Z"/>
  <path class="st0" d="M663.01,128.9v-.06c0-4.47,3.43-8.2,8.05-8.2,2.98,0,4.8,1.21,6.29,2.79l-1.55,1.64c-1.25-1.31-2.61-2.37-4.77-2.37-3.19,0-5.62,2.67-5.62,6.08v.06c0,3.4,2.49,6.11,5.77,6.11,2.04,0,3.55-1,4.8-2.34l1.49,1.4c-1.58,1.79-3.46,3.04-6.41,3.04-4.62,0-8.05-3.74-8.05-8.14Z"/>
  <path class="st0" d="M679.9,128.9v-.06c0-4.47,3.43-8.2,8.2-8.2s8.17,3.71,8.17,8.14v.06c0,4.46-3.49,8.2-8.23,8.2s-8.14-3.71-8.14-8.14ZM693.87,128.9v-.06c0-3.37-2.52-6.14-5.83-6.14s-5.74,2.76-5.74,6.08v.06c0,3.37,2.49,6.11,5.8,6.11s5.77-2.76,5.77-6.04Z"/>
  <path class="st0" d="M700.5,120.97h2.34v2.64c1.06-1.58,2.43-2.98,5.07-2.98s4.19,1.34,5.04,3.13c1.15-1.73,2.76-3.13,5.53-3.13,3.65,0,5.83,2.4,5.83,6.32v9.72h-2.34v-9.18c0-3.04-1.52-4.74-4.07-4.74-2.34,0-4.34,1.76-4.34,4.86v9.05h-2.31v-9.24c0-2.95-1.52-4.68-4.04-4.68s-4.38,2.07-4.38,4.95v8.96h-2.34v-15.71Z"/>
  <path class="st0" d="M728.32,128.9v-.06c0-4.47,3.43-8.2,8.2-8.2s8.17,3.71,8.17,8.14v.06c0,4.46-3.49,8.2-8.23,8.2s-8.14-3.71-8.14-8.14ZM742.3,128.9v-.06c0-3.37-2.52-6.14-5.83-6.14s-5.74,2.76-5.74,6.08v.06c0,3.37,2.49,6.11,5.8,6.11s5.77-2.76,5.77-6.04Z"/>
  <path class="st0" d="M770.64,133.51c-1.31,1.88-3.1,3.49-6.02,3.49-3.77,0-7.5-2.98-7.5-8.14v-.06c0-5.1,3.74-8.17,7.5-8.17,2.92,0,4.8,1.55,6.02,3.34v-3.01h2.34v20.57h-2.34v-8.02ZM770.73,128.84v-.06c0-3.62-2.76-6.05-5.68-6.05s-5.53,2.25-5.53,6.05v.06c0,3.74,2.52,6.08,5.53,6.08s5.68-2.46,5.68-6.08Z"/>
  <path class="st0" d="M777.96,130.72v-9.75h2.34v9.17c0,2.92,1.55,4.74,4.34,4.74s4.71-1.97,4.71-4.92v-8.99h2.31v15.71h-2.31v-2.73c-1.06,1.7-2.67,3.07-5.38,3.07-3.77,0-6.02-2.55-6.02-6.29Z"/>
  <path class="st0" d="M796.98,114.95h2.67v2.58h-2.67v-2.58ZM797.13,120.97h2.34v15.71h-2.34v-15.71Z"/>
  <path class="st0" d="M803.93,128.86v-.06c0-4.53,3.16-8.17,7.54-8.17,4.65,0,7.32,3.71,7.32,8.29,0,.33,0,.49-.03.76h-12.46c.33,3.4,2.73,5.32,5.53,5.32,2.19,0,3.65-.88,4.95-2.22l1.46,1.31c-1.58,1.79-3.46,2.95-6.47,2.95-4.28,0-7.84-3.31-7.84-8.17ZM816.42,127.95c-.24-2.83-1.85-5.35-5.01-5.35-2.77,0-4.77,2.31-5.1,5.35h10.12Z"/>
  <path class="st0" d="M822.89,120.97h2.34v4.1c1.15-2.61,3.43-4.47,6.41-4.38v2.52h-.18c-3.43,0-6.23,2.46-6.23,7.2v6.26h-2.34v-15.71Z"/>
  <path class="st0" d="M833.25,132.12v-.06c0-3.28,2.73-5.07,6.71-5.07,2.04,0,3.4.27,4.83.67v-.55c0-2.83-1.73-4.28-4.68-4.28-1.85,0-3.31.46-4.77,1.15l-.7-1.91c1.73-.82,3.4-1.31,5.71-1.31s3.92.58,5.07,1.73c1.06,1.06,1.61,2.61,1.61,4.59v9.6h-2.25v-2.37c-1.09,1.43-2.89,2.7-5.68,2.7s-5.86-1.64-5.86-4.89ZM844.82,130.9v-1.52c-1.19-.33-2.67-.67-4.62-.67-2.95,0-4.59,1.28-4.59,3.25v.06c0,1.97,1.85,3.13,3.95,3.13,2.92,0,5.26-1.76,5.26-4.25Z"/>
  <path class="st0" d="M850.71,134.67l1.18-1.67c1.7,1.31,3.59,2,5.44,2s3.25-.94,3.25-2.49v-.06c0-1.55-1.85-2.19-3.92-2.77-2.43-.73-5.19-1.52-5.19-4.44v-.06c0-2.7,2.25-4.5,5.35-4.5,1.94,0,4.04.67,5.65,1.73l-1.06,1.76c-1.46-.94-3.1-1.52-4.65-1.52-1.85,0-3.04.97-3.04,2.28v.06c0,1.49,1.94,2.07,4.04,2.7,2.43.73,5.04,1.67,5.04,4.5v.06c0,2.98-2.46,4.71-5.59,4.71-2.28,0-4.71-.88-6.5-2.31Z"/>
  <path class="st0" d="M866.84,133.48h2.79v3.19h-2.79v-3.19Z"/>
</svg>