<?xml version="1.0" encoding="UTF-8"?>
<svg id="Layer_1" xmlns="http://www.w3.org/2000/svg" version="1.1" viewBox="0 0 250 250">
  <!-- Generator: Adobe Illustrator 29.7.1, SVG Export Plug-In . SVG Version: 2.1.1 Build 8)  -->
  <defs>
    <style>
      .st0 {
        fill: #70899e;
      }
    </style>
  </defs>
  <path class="st0" d="M201.27,141.54c-3.39-3.38-8.87-3.38-12.26,0-3.39,3.39-3.39,8.88,0,12.26l14.23,14.22h-30.58L66.9,62.27c-1.62-1.62-3.83-2.54-6.13-2.54H25.83c-4.79,0-8.67,3.88-8.67,8.67s3.88,8.67,8.67,8.67h31.34l105.75,105.75c1.63,1.62,3.83,2.54,6.13,2.54h34.18l-14.23,14.23c-3.39,3.39-3.39,8.88,0,12.26,1.7,1.69,3.91,2.54,6.13,2.54s4.44-.85,6.13-2.54l29.02-29.03c3.39-3.39,3.39-8.88,0-12.26l-29.02-29.02Z"/>
  <path class="st0" d="M141.68,109.36c2.22,0,4.44-.85,6.13-2.54l24.84-24.85h30.58l-14.23,14.22c-3.39,3.39-3.39,8.88,0,12.26,1.7,1.69,3.91,2.54,6.13,2.54s4.44-.85,6.13-2.54l29.02-29.02c3.39-3.39,3.39-8.88,0-12.26l-29.02-29.03c-3.39-3.38-8.87-3.38-12.26,0-3.39,3.39-3.39,8.88,0,12.26l14.23,14.23h-34.18c-2.3,0-4.51.91-6.13,2.54l-27.38,27.38c-3.39,3.39-3.39,8.88,0,12.26,1.7,1.69,3.91,2.54,6.13,2.54Z"/>
  <path class="st0" d="M90.57,139.54l-33.39,33.39h-31.34c-4.79,0-8.67,3.88-8.67,8.67s3.88,8.67,8.67,8.67h34.93c2.3,0,4.5-.91,6.13-2.54l35.93-35.93c3.39-3.39,3.39-8.88,0-12.26-3.39-3.38-8.87-3.38-12.26,0Z"/>
</svg>