<?xml version="1.0" encoding="UTF-8"?>
<svg id="Layer_1" xmlns="http://www.w3.org/2000/svg" version="1.1" viewBox="0 0 250 250">
  <!-- Generator: Adobe Illustrator 29.7.1, SVG Export Plug-In . SVG Version: 2.1.1 Build 8)  -->
  <defs>
    <style>
      .st0 {
        fill: #70899e;
      }
    </style>
  </defs>
  <path class="st0" d="M176.54,64.06h-63.2l14.06-14.06c3.35-3.35,3.35-8.77,0-12.12-3.36-3.34-8.78-3.34-12.12,0l-28.68,28.67c-.21.21-.4.42-.59.65,0,0,0,0,0,0-.18.21-.34.44-.5.67-.02.03-.03.05-.05.08-.14.21-.26.42-.38.64-.01.02-.02.05-.03.07-.12.22-.23.45-.33.69,0,.01,0,.02-.01.04-.1.24-.19.49-.27.75,0,.02,0,.04-.01.06-.07.25-.14.5-.19.75-.01.06-.02.12-.03.18-.04.22-.08.43-.1.65-.03.28-.04.57-.04.85s.01.57.04.85c.02.22.06.44.1.65.01.06.02.12.03.18.05.26.12.51.19.75,0,.02,0,.04.01.06.08.26.17.51.27.75,0,.01,0,.02.01.04.1.24.21.47.33.69.01.02.02.05.03.07.12.22.25.43.38.63.02.03.03.06.05.09.15.23.32.45.5.67,0,0,0,0,0,0,.19.23.38.44.59.65l28.68,28.67c1.67,1.67,3.86,2.51,6.06,2.51s4.38-.84,6.07-2.51c3.34-3.35,3.34-8.77,0-12.12l-14.06-14.06h63.2c24.16,0,43.8,19.65,43.8,43.8,0,15.02-7.57,28.83-20.25,36.94-3.99,2.55-5.16,7.85-2.61,11.84,1.64,2.56,4.4,3.96,7.23,3.96,1.58,0,3.18-.44,4.6-1.35,17.64-11.27,28.16-30.48,28.16-51.38,0-33.6-27.33-60.94-60.94-60.94Z"/>
  <path class="st0" d="M146.82,142.62c-3.34-3.34-8.77-3.34-12.11,0-3.35,3.35-3.35,8.77,0,12.12l14.06,14.06h-71.65c-24.16,0-43.8-19.65-43.8-43.81,0-16.8,9.37-31.87,24.46-39.31,4.24-2.09,5.99-7.23,3.89-11.47-2.08-4.24-7.22-6-11.47-3.89-20.99,10.35-34.02,31.3-34.02,54.68,0,33.6,27.33,60.94,60.94,60.94h71.65l-14.06,14.06c-3.35,3.35-3.35,8.77,0,12.12,1.67,1.67,3.86,2.51,6.06,2.51s4.38-.84,6.06-2.51l28.69-28.69c3.35-3.35,3.35-8.77,0-12.12l-28.69-28.69Z"/>
</svg>