<?xml version="1.0" encoding="UTF-8"?>
<svg id="Layer_1" xmlns="http://www.w3.org/2000/svg" version="1.1" viewBox="0 0 968.49 191.78">
  <!-- Generator: Adobe Illustrator 29.7.1, SVG Export Plug-In . SVG Version: 2.1.1 Build 8)  -->
  <defs>
    <style>
      .st0 {
        fill: #fff;
      }
    </style>
  </defs>
  <rect class="st0" x="358.03" y="14.89" width="1.32" height="78.99"/>
  <g>
    <rect class="st0" x="15.75" y="14.55" width="15.08" height="15.08"/>
    <g>
      <path class="st0" d="M30.46,93.13v-54.32h-14.28v54.32h14.28ZM125.35,93.66v-13.31c-2.09,0-3.86-.11-5.15-.32-1.5-.21-2.63-.75-3.38-1.5-.75-.75-1.23-1.82-1.5-3.22-.21-1.34-.32-3.11-.32-5.26v-19h10.36v-12.24h-10.36v-21.2h-14.33v52.54c0,4.45.38,8.21,1.13,11.22.75,2.95,2.04,5.37,3.81,7.19,1.77,1.82,4.13,3.11,6.98,3.92,2.9.81,6.55,1.18,10.9,1.18h1.88ZM207.36,93.13V13.42h-14.33v79.7h14.33ZM86.87,44.12c-3.97-4.29-9.55-6.44-16.64-6.44-3.44,0-6.55.7-9.39,2.09-2.79,1.4-5.21,3.33-7.08,5.8l-.81,1.02v-7.78h-14.12v54.32h14.22v-28.93,1.99-.97c.16-5.1,1.4-8.86,3.76-11.27,2.52-2.58,5.58-3.86,9.07-3.86,4.13,0,7.3,1.29,9.39,3.76,2.04,2.47,3.11,5.96,3.11,10.41h0v.11h0v28.71h14.44v-30.81c.05-7.73-1.99-13.85-5.96-18.14ZM185.63,65.86c0-3.92-.7-7.57-2.04-11-1.4-3.38-3.33-6.39-5.74-8.96-2.47-2.58-5.42-4.56-8.86-6.01-3.44-1.45-7.25-2.15-11.38-2.15-3.92,0-7.62.75-11.06,2.2-3.44,1.5-6.44,3.49-8.96,6.01-2.52,2.52-4.56,5.53-6.01,8.96-1.5,3.44-2.2,7.14-2.2,11.06s.7,7.62,2.09,11.06c1.4,3.44,3.38,6.44,5.85,8.96,2.47,2.52,5.53,4.56,9.07,6.01,3.54,1.5,7.46,2.25,11.65,2.25,12.13,0,19.64-5.53,24.15-10.68l-10.31-7.84c-2.15,2.58-7.3,6.06-13.74,6.06-4.03,0-7.35-.91-9.88-2.79-2.52-1.82-4.24-4.4-5.15-7.57l-.16-.48h42.67v-5.1h0ZM143.06,60.87c0-3.97,4.56-10.9,14.38-10.95,9.82,0,14.44,6.92,14.44,10.9l-28.82.05Z"/>
      <path class="st0" d="M223.68,86.04c-.27-.64-.64-1.18-1.13-1.66-.48-.48-1.02-.86-1.66-1.13-.64-.27-1.34-.43-2.04-.43-.75,0-1.4.16-2.04.43-.64.27-1.18.64-1.66,1.13-.48.48-.86,1.02-1.13,1.66-.27.64-.43,1.34-.43,2.04,0,.75.16,1.4.43,2.04.27.64.64,1.18,1.13,1.66.48.48,1.02.86,1.66,1.13.64.27,1.34.43,2.04.43.75,0,1.4-.16,2.04-.43.64-.27,1.18-.64,1.66-1.13.48-.48.86-1.02,1.13-1.66.27-.64.43-1.34.43-2.04s-.16-1.4-.43-2.04ZM222.82,89.8c-.21.54-.54,1.02-.91,1.4-.38.38-.86.7-1.4.91-.54.21-1.07.32-1.72.32-.59,0-1.18-.11-1.72-.32-.54-.21-1.02-.54-1.4-.91s-.7-.86-.91-1.4c-.21-.54-.32-1.07-.32-1.72,0-.59.11-1.18.32-1.72.21-.54.54-1.02.91-1.4.38-.38.86-.7,1.4-.91s1.07-.32,1.72-.32c.59,0,1.18.11,1.72.32.54.21,1.02.54,1.4.91.38.38.7.86.91,1.4.21.54.32,1.07.32,1.72.05.64-.11,1.18-.32,1.72ZM219.81,88.51c.43-.05.75-.21,1.02-.48.27-.27.43-.64.43-1.18,0-.59-.16-1.02-.54-1.34-.32-.32-.91-.48-1.61-.48h-2.36v6.06h1.13v-2.47h.81l1.5,2.47h1.18l-1.56-2.58ZM219.22,87.65h-1.34v-1.72h1.34c.16,0,.32.05.48.11.16.05.27.16.32.27s.11.27.11.48-.05.38-.11.48c-.11.11-.21.21-.32.27-.16.05-.32.11-.48.11Z"/>
    </g>
  </g>
  <g>
    <g>
      <path class="st0" d="M650.88,76.65h-9.78l-9.53-36.29-9.64,36.29h-9.99l-13.11-47.17h8.87l9.45,37.52,10.32-37.52h8.96l9.7,37.74,8.98-37.74h8.56l-12.79,47.17Z"/>
      <path class="st0" d="M676.2,32.93c0,1.28-.47,2.34-1.41,3.19-.92.85-2.04,1.28-3.36,1.28s-2.44-.43-3.36-1.28c-.92-.85-1.38-1.91-1.38-3.19s.46-2.38,1.38-3.26c.94-.87,2.06-1.31,3.36-1.31,1.36,0,2.49.45,3.39,1.34.92.89,1.38,1.97,1.38,3.22h0ZM667.35,76.65v-33.99h7.93v33.99h-7.93Z"/>
      <path class="st0" d="M705.78,76.65v-18.93c0-4.96-1.54-9.24-6.53-9.24s-8.12,4.48-8.12,9v19.16h-7.75v-33.99h7.75v4.81h.13c2.57-3.98,6.29-5.38,11.14-5.38,3.65,0,6.47.9,8.46,3.22,2.01,2.33,2.9,5.86,2.9,10.6v20.74h-7.97Z"/>
      <path class="st0" d="M744.71,76.65v-4.38h-.13c-2.46,4.14-7.48,5.09-10.99,5.09-10.41,0-14.23-8.09-14.23-16.69,0-5.7,1.42-10.27,4.26-13.69,2.86-3.45,6.69-4.94,11.48-4.94,7.45,0,9.48,4.15,9.48,4.15h.13v-19.67h8.04v50.13h-8.04ZM744.77,57.28c0-4.11-2.64-8.77-8.21-8.77-6.37,0-8.85,5.54-8.85,11.93,0,5.58,2.34,10.64,8.4,10.73,5.95,0,8.6-5.67,8.65-10.36v-3.53Z"/>
      <path class="st0" d="M793.31,59.5c0,11.77-7.04,18.15-17.61,18.15-11.49,0-17.38-6.88-17.38-17.42,0-12.05,7.06-18.32,18.22-18.32,10.23,0,16.77,6.54,16.77,17.58ZM785.06,59.77c0-5.24-1.86-11.06-8.95-11.06s-9.44,5.06-9.44,11.26c0,6.74,3.17,11.02,9.39,11.02,6.66,0,8.95-5.12,9-11.23h0Z"/>
      <path class="st0" d="M835.85,76.65h-8.75l-6.69-24.6-7.17,24.6h-8.49l-9.89-33.89h8.3l6.46,26.33,7.55-26.33h7.78l6.73,26.26,6.3-26.26h7.61l-9.74,33.89Z"/>
      <path class="st0" d="M870.48,67.19c0,7.57-6.86,10.52-13.74,10.52-4.48,0-8.94-1.73-8.94-1.73v-8.05s3.88,3.38,9.3,3.42c3.71,0,5.39-1.17,5.39-3.4.09-1.79-1-2.78-2.3-3.51-.89-.54-2.29-1.2-4.19-1.98-2.24-.96-3.9-1.89-5-2.79-1.07-.89-1.88-1.95-2.42-3.15-.51-1.21-.89-2.54-.89-4.15,0-6.11,5.1-10.43,13.24-10.43,5.38,0,7.72,1.32,7.72,1.32v7.65s-3.83-2.64-7.8-2.67c-2.85,0-5,1.04-5.04,3.38-.02,3.03,3.69,4.5,5.9,5.4,3.22,1.3,5.58,2.68,6.9,4.27,1.32,1.59,1.89,3.19,1.89,5.9h0Z"/>
      <path class="st0" d="M901.66,28.1v48.55h-8.11v-38.72s-2.78,2.57-9.92,4.43v-6.91c10.61-3.92,14.41-7.34,14.41-7.34h3.61Z"/>
      <rect class="st0" x="495.57" y="13.45" width="37.55" height="37.55"/>
      <rect class="st0" x="537.25" y="13.45" width="37.55" height="37.55"/>
      <rect class="st0" x="495.57" y="55.13" width="37.55" height="37.55"/>
      <rect class="st0" x="537.25" y="55.13" width="37.55" height="37.55"/>
      <path class="st0" d="M925.61,28.1v48.55h-8.11v-38.72s-2.78,2.57-9.92,4.43v-6.91c10.61-3.92,14.41-7.34,14.41-7.34h3.61Z"/>
    </g>
    <g>
      <path class="st0" d="M474.56,160.06h-5.81v5.15h5.37v1.57h-5.37v6.59h-1.74v-14.88h7.55v1.58Z"/>
      <path class="st0" d="M486.6,173.36h-1.7v-1.68h-.04c-.71,1.29-1.8,1.93-3.28,1.93-2.53,0-3.8-1.51-3.8-4.52v-6.35h1.69v6.08c0,2.24.86,3.36,2.57,3.36.83,0,1.51-.31,2.05-.92.54-.61.8-1.41.8-2.4v-6.12h1.7v10.62Z"/>
      <path class="st0" d="M499.7,173.36h-1.7v-6.06c0-2.26-.82-3.38-2.47-3.38-.85,0-1.55.32-2.11.96s-.83,1.45-.83,2.42v6.06h-1.7v-10.62h1.7v1.76h.04c.8-1.34,1.96-2.01,3.49-2.01,1.16,0,2.05.37,2.67,1.13.62.75.92,1.83.92,3.25v6.5Z"/>
      <path class="st0" d="M511,172.87c-.82.49-1.78.74-2.91.74-1.51,0-2.74-.49-3.67-1.48s-1.4-2.26-1.4-3.83c0-1.75.5-3.16,1.5-4.22,1-1.06,2.34-1.59,4.02-1.59.93,0,1.76.17,2.47.52v1.74c-.79-.55-1.63-.83-2.53-.83-1.09,0-1.98.39-2.67,1.17-.69.78-1.04,1.8-1.04,3.07s.33,2.23.98,2.95,1.53,1.08,2.63,1.08c.93,0,1.8-.31,2.61-.92v1.62Z"/>
      <path class="st0" d="M515.29,160.04c-.3,0-.56-.1-.78-.31-.21-.21-.32-.47-.32-.79s.11-.58.32-.79c.21-.21.47-.32.78-.32s.58.11.79.32c.22.21.33.48.33.79s-.11.56-.33.78c-.22.21-.48.32-.79.32ZM516.12,173.36h-1.7v-10.62h1.7v10.62Z"/>
      <path class="st0" d="M524.86,173.61c-1.57,0-2.82-.5-3.76-1.49-.94-.99-1.41-2.31-1.41-3.95,0-1.78.49-3.18,1.46-4.18.98-1,2.29-1.5,3.95-1.5s2.82.49,3.71,1.46c.89.98,1.33,2.33,1.33,4.06s-.48,3.05-1.44,4.07c-.96,1.02-2.24,1.53-3.85,1.53ZM524.98,163.92c-1.09,0-1.96.37-2.59,1.12-.64.74-.95,1.77-.95,3.08s.32,2.25.96,2.98c.64.73,1.5,1.09,2.58,1.09s1.95-.36,2.54-1.07c.59-.71.89-1.73.89-3.04s-.3-2.35-.89-3.07-1.44-1.08-2.54-1.08Z"/>
      <path class="st0" d="M542.54,173.36h-1.7v-6.06c0-2.26-.82-3.38-2.47-3.38-.85,0-1.55.32-2.11.96s-.83,1.45-.83,2.42v6.06h-1.7v-10.62h1.7v1.76h.04c.8-1.34,1.96-2.01,3.49-2.01,1.16,0,2.05.37,2.67,1.13.62.75.92,1.83.92,3.25v6.5Z"/>
      <path class="st0" d="M554.2,173.36h-1.7v-1.66h-.04c-.74,1.27-1.83,1.91-3.27,1.91-1.06,0-1.89-.28-2.48-.84-.6-.56-.9-1.3-.9-2.23,0-1.99,1.17-3.14,3.51-3.47l3.19-.45c0-1.81-.73-2.71-2.19-2.71-1.28,0-2.43.44-3.46,1.31v-1.74c1.04-.66,2.25-1,3.61-1,2.5,0,3.75,1.32,3.75,3.96v6.91ZM552.5,167.98l-2.56.35c-.79.11-1.38.31-1.78.59-.4.28-.6.78-.6,1.49,0,.52.19.94.56,1.27s.86.49,1.48.49c.84,0,1.54-.3,2.09-.89.55-.59.83-1.34.83-2.25v-1.06Z"/>
      <path class="st0" d="M572.17,172.87c-.82.49-1.78.74-2.91.74-1.51,0-2.74-.49-3.67-1.48s-1.4-2.26-1.4-3.83c0-1.75.5-3.16,1.5-4.22,1-1.06,2.34-1.59,4.02-1.59.93,0,1.76.17,2.47.52v1.74c-.79-.55-1.63-.83-2.53-.83-1.09,0-1.98.39-2.67,1.17-.69.78-1.04,1.8-1.04,3.07s.33,2.23.98,2.95,1.53,1.08,2.63,1.08c.93,0,1.8-.31,2.61-.92v1.62Z"/>
      <path class="st0" d="M580.03,173.61c-1.57,0-2.82-.5-3.76-1.49-.94-.99-1.41-2.31-1.41-3.95,0-1.78.49-3.18,1.46-4.18.98-1,2.29-1.5,3.95-1.5s2.82.49,3.71,1.46c.89.98,1.33,2.33,1.33,4.06s-.48,3.05-1.44,4.07c-.96,1.02-2.24,1.53-3.85,1.53ZM580.16,163.92c-1.09,0-1.96.37-2.59,1.12-.64.74-.95,1.77-.95,3.08s.32,2.25.96,2.98c.64.73,1.5,1.09,2.58,1.09s1.95-.36,2.54-1.07c.59-.71.89-1.73.89-3.04s-.3-2.35-.89-3.07-1.44-1.08-2.54-1.08Z"/>
      <path class="st0" d="M603.98,173.36h-1.7v-6.1c0-1.18-.18-2.03-.54-2.55s-.97-.79-1.83-.79c-.73,0-1.34.33-1.85,1s-.76,1.46-.76,2.39v6.06h-1.7v-6.31c0-2.09-.81-3.13-2.42-3.13-.75,0-1.36.31-1.85.94-.48.63-.73,1.44-.73,2.44v6.06h-1.7v-10.62h1.7v1.68h.04c.75-1.29,1.85-1.93,3.3-1.93.73,0,1.36.2,1.9.61.54.4.91.93,1.11,1.59.79-1.47,1.96-2.2,3.53-2.2,2.34,0,3.51,1.44,3.51,4.33v6.55Z"/>
      <path class="st0" d="M612.48,173.61c-1.57,0-2.82-.5-3.76-1.49-.94-.99-1.41-2.31-1.41-3.95,0-1.78.49-3.18,1.46-4.18.98-1,2.29-1.5,3.95-1.5s2.82.49,3.71,1.46c.89.98,1.33,2.33,1.33,4.06s-.48,3.05-1.44,4.07c-.96,1.02-2.24,1.53-3.85,1.53ZM612.61,163.92c-1.09,0-1.96.37-2.59,1.12-.64.74-.95,1.77-.95,3.08s.32,2.25.96,2.98c.64.73,1.5,1.09,2.58,1.09s1.95-.36,2.54-1.07c.59-.71.89-1.73.89-3.04s-.3-2.35-.89-3.07-1.44-1.08-2.54-1.08Z"/>
      <path class="st0" d="M636.6,173.36h-1.7v-1.68h-.04c-.71,1.29-1.8,1.93-3.28,1.93-2.53,0-3.8-1.51-3.8-4.52v-6.35h1.69v6.08c0,2.24.86,3.36,2.57,3.36.83,0,1.51-.31,2.05-.92.54-.61.8-1.41.8-2.4v-6.12h1.7v10.62Z"/>
      <path class="st0" d="M649.71,173.36h-1.7v-6.06c0-2.26-.82-3.38-2.47-3.38-.85,0-1.55.32-2.11.96s-.83,1.45-.83,2.42v6.06h-1.7v-10.62h1.7v1.76h.04c.8-1.34,1.96-2.01,3.49-2.01,1.16,0,2.05.37,2.67,1.13.62.75.92,1.83.92,3.25v6.5Z"/>
      <path class="st0" d="M662.41,167.73v5.62h-1.74v-14.88h4.09c1.59,0,2.82.39,3.7,1.16.88.78,1.31,1.87,1.31,3.28s-.49,2.57-1.46,3.46c-.97.9-2.28,1.35-3.94,1.35h-1.96ZM662.41,160.06v6.1h1.83c1.2,0,2.12-.27,2.75-.83.63-.55.95-1.33.95-2.33,0-1.96-1.16-2.95-3.49-2.95h-2.04Z"/>
      <path class="st0" d="M678.72,164.45c-.3-.23-.73-.34-1.29-.34-.73,0-1.33.34-1.82,1.03-.49.68-.73,1.62-.73,2.8v5.42h-1.7v-10.62h1.7v2.19h.04c.24-.75.61-1.33,1.11-1.75s1.05-.63,1.67-.63c.44,0,.78.05,1.02.15v1.76Z"/>
      <path class="st0" d="M685.58,173.61c-1.57,0-2.82-.5-3.76-1.49-.94-.99-1.41-2.31-1.41-3.95,0-1.78.49-3.18,1.46-4.18.98-1,2.29-1.5,3.95-1.5s2.82.49,3.71,1.46c.89.98,1.33,2.33,1.33,4.06s-.48,3.05-1.44,4.07c-.96,1.02-2.24,1.53-3.85,1.53ZM685.71,163.92c-1.09,0-1.96.37-2.59,1.12-.64.74-.95,1.77-.95,3.08s.32,2.25.96,2.98c.64.73,1.5,1.09,2.58,1.09s1.95-.36,2.54-1.07c.59-.71.89-1.73.89-3.04s-.3-2.35-.89-3.07-1.44-1.08-2.54-1.08Z"/>
      <path class="st0" d="M709.57,162.73l-4.89,12.33c-.87,2.2-2.1,3.3-3.67,3.3-.44,0-.81-.05-1.11-.14v-1.52c.37.12.7.19,1.01.19.86,0,1.5-.51,1.93-1.54l.85-2.01-4.15-10.6h1.89l2.87,8.18c.03.1.11.37.22.81h.06c.03-.17.1-.43.21-.79l3.02-8.2h1.76Z"/>
      <path class="st0" d="M726.52,173.36h-1.7v-1.66h-.04c-.74,1.27-1.83,1.91-3.27,1.91-1.06,0-1.89-.28-2.48-.84-.6-.56-.9-1.3-.9-2.23,0-1.99,1.17-3.14,3.51-3.47l3.19-.45c0-1.81-.73-2.71-2.19-2.71-1.28,0-2.43.44-3.46,1.31v-1.74c1.04-.66,2.25-1,3.61-1,2.5,0,3.75,1.32,3.75,3.96v6.91ZM724.82,167.98l-2.56.35c-.79.11-1.38.31-1.78.59-.4.28-.6.78-.6,1.49,0,.52.19.94.56,1.27s.86.49,1.48.49c.84,0,1.54-.3,2.09-.89.55-.59.83-1.34.83-2.25v-1.06Z"/>
      <path class="st0" d="M737.82,172.87c-.82.49-1.78.74-2.91.74-1.51,0-2.74-.49-3.67-1.48s-1.4-2.26-1.4-3.83c0-1.75.5-3.16,1.5-4.22,1-1.06,2.34-1.59,4.02-1.59.93,0,1.76.17,2.47.52v1.74c-.79-.55-1.63-.83-2.53-.83-1.09,0-1.98.39-2.67,1.17-.69.78-1.04,1.8-1.04,3.07s.33,2.23.98,2.95,1.53,1.08,2.63,1.08c.93,0,1.8-.31,2.61-.92v1.62Z"/>
      <path class="st0" d="M746.17,173.25c-.4.22-.93.33-1.59.33-1.86,0-2.79-1.04-2.79-3.11v-6.29h-1.83v-1.45h1.83v-2.59l1.7-.55v3.14h2.68v1.45h-2.68v5.99c0,.71.12,1.22.36,1.53s.64.46,1.2.46c.43,0,.8-.12,1.11-.35v1.45Z"/>
      <path class="st0" d="M757.88,173.36h-1.7v-1.68h-.04c-.71,1.29-1.8,1.93-3.28,1.93-2.53,0-3.8-1.51-3.8-4.52v-6.35h1.69v6.08c0,2.24.86,3.36,2.57,3.36.83,0,1.51-.31,2.05-.92.54-.61.8-1.41.8-2.4v-6.12h1.7v10.62Z"/>
      <path class="st0" d="M769.77,173.36h-1.7v-1.66h-.04c-.74,1.27-1.83,1.91-3.27,1.91-1.06,0-1.89-.28-2.48-.84-.6-.56-.9-1.3-.9-2.23,0-1.99,1.17-3.14,3.51-3.47l3.19-.45c0-1.81-.73-2.71-2.19-2.71-1.28,0-2.43.44-3.46,1.31v-1.74c1.04-.66,2.25-1,3.61-1,2.5,0,3.75,1.32,3.75,3.96v6.91ZM768.07,167.98l-2.56.35c-.79.11-1.38.31-1.78.59-.4.28-.6.78-.6,1.49,0,.52.19.94.56,1.27s.86.49,1.48.49c.84,0,1.54-.3,2.09-.89.55-.59.83-1.34.83-2.25v-1.06Z"/>
      <path class="st0" d="M775.53,173.36h-1.7v-15.73h1.7v15.73Z"/>
      <path class="st0" d="M780.7,160.04c-.3,0-.56-.1-.78-.31-.21-.21-.32-.47-.32-.79s.11-.58.32-.79c.21-.21.47-.32.78-.32s.58.11.79.32c.22.21.33.48.33.79s-.11.56-.33.78c-.22.21-.48.32-.79.32ZM781.53,173.36h-1.7v-10.62h1.7v10.62Z"/>
      <path class="st0" d="M793.23,163.22l-6.29,8.68h6.23v1.45h-8.73v-.53l6.29-8.64h-5.7v-1.45h8.2v.49Z"/>
      <path class="st0" d="M803.88,173.36h-1.7v-1.66h-.04c-.74,1.27-1.83,1.91-3.27,1.91-1.06,0-1.89-.28-2.48-.84-.6-.56-.9-1.3-.9-2.23,0-1.99,1.17-3.14,3.51-3.47l3.19-.45c0-1.81-.73-2.71-2.19-2.71-1.28,0-2.43.44-3.46,1.31v-1.74c1.04-.66,2.25-1,3.61-1,2.5,0,3.75,1.32,3.75,3.96v6.91ZM802.18,167.98l-2.56.35c-.79.11-1.38.31-1.78.59-.4.28-.6.78-.6,1.49,0,.52.19.94.56,1.27s.86.49,1.48.49c.84,0,1.54-.3,2.09-.89.55-.59.83-1.34.83-2.25v-1.06Z"/>
      <path class="st0" d="M822.21,173.36h-1.7v-1.66h-.04c-.74,1.27-1.83,1.91-3.27,1.91-1.06,0-1.89-.28-2.48-.84-.6-.56-.9-1.3-.9-2.23,0-1.99,1.17-3.14,3.51-3.47l3.19-.45c0-1.81-.73-2.71-2.19-2.71-1.28,0-2.43.44-3.46,1.31v-1.74c1.04-.66,2.25-1,3.61-1,2.5,0,3.75,1.32,3.75,3.96v6.91ZM820.51,167.98l-2.56.35c-.79.11-1.38.31-1.78.59-.4.28-.6.78-.6,1.49,0,.52.19.94.56,1.27s.86.49,1.48.49c.84,0,1.54-.3,2.09-.89.55-.59.83-1.34.83-2.25v-1.06Z"/>
      <path class="st0" d="M850.81,158.48l-4.2,14.88h-2.04l-3.06-10.87c-.13-.46-.21-.97-.24-1.52h-.04c-.04.51-.13,1.01-.27,1.49l-3.08,10.89h-2.02l-4.36-14.88h1.92l3.16,11.41c.13.48.21.98.25,1.49h.05c.03-.37.14-.86.32-1.49l3.29-11.41h1.67l3.15,11.5c.11.39.19.86.25,1.39h.04c.03-.36.12-.84.28-1.43l3.04-11.45h1.89Z"/>
      <path class="st0" d="M854.51,160.04c-.3,0-.56-.1-.78-.31-.21-.21-.32-.47-.32-.79s.11-.58.32-.79c.21-.21.47-.32.78-.32s.58.11.79.32c.22.21.33.48.33.79s-.11.56-.33.78c-.22.21-.48.32-.79.32ZM855.34,173.36h-1.7v-10.62h1.7v10.62Z"/>
      <path class="st0" d="M868.46,173.36h-1.7v-6.06c0-2.26-.82-3.38-2.47-3.38-.85,0-1.55.32-2.11.96s-.83,1.45-.83,2.42v6.06h-1.7v-10.62h1.7v1.76h.04c.8-1.34,1.96-2.01,3.49-2.01,1.16,0,2.05.37,2.67,1.13.62.75.92,1.83.92,3.25v6.5Z"/>
      <path class="st0" d="M881.58,173.36h-1.7v-1.81h-.04c-.79,1.37-2.01,2.05-3.65,2.05-1.34,0-2.4-.48-3.2-1.43-.8-.95-1.2-2.25-1.2-3.89,0-1.76.44-3.16,1.33-4.22.88-1.06,2.06-1.59,3.54-1.59s2.52.57,3.19,1.72h.04v-6.58h1.7v15.73ZM879.88,168.55v-1.57c0-.86-.28-1.58-.85-2.18-.57-.59-1.29-.89-2.16-.89-1.04,0-1.85.38-2.45,1.14-.6.76-.89,1.81-.89,3.15,0,1.22.29,2.19.86,2.9.57.71,1.34,1.06,2.3,1.06s1.72-.34,2.31-1.03.89-1.55.89-2.59Z"/>
      <path class="st0" d="M890.31,173.61c-1.57,0-2.82-.5-3.76-1.49-.94-.99-1.41-2.31-1.41-3.95,0-1.78.49-3.18,1.46-4.18.98-1,2.29-1.5,3.95-1.5s2.82.49,3.71,1.46c.89.98,1.33,2.33,1.33,4.06s-.48,3.05-1.44,4.07c-.96,1.02-2.24,1.53-3.85,1.53ZM890.44,163.92c-1.09,0-1.96.37-2.59,1.12-.64.74-.95,1.77-.95,3.08s.32,2.25.96,2.98c.64.73,1.5,1.09,2.58,1.09s1.95-.36,2.54-1.07c.59-.71.89-1.73.89-3.04s-.3-2.35-.89-3.07-1.44-1.08-2.54-1.08Z"/>
      <path class="st0" d="M912.56,162.73l-3.19,10.62h-1.76l-2.19-7.6c-.08-.29-.14-.62-.17-.99h-.04c-.02.25-.09.57-.22.96l-2.38,7.63h-1.7l-3.22-10.62h1.78l2.2,7.99c.07.24.12.56.15.95h.08c.02-.31.08-.63.19-.98l2.45-7.97h1.56l2.2,8.01c.07.26.12.57.16.95h.08c.01-.27.07-.59.18-.95l2.16-8.01h1.68Z"/>
      <path class="st0" d="M914.74,172.97v-1.83c.93.68,1.95,1.03,3.06,1.03,1.49,0,2.24-.5,2.24-1.49,0-.28-.06-.52-.19-.72-.13-.2-.3-.37-.52-.52-.22-.15-.47-.29-.77-.41-.29-.12-.61-.25-.95-.38-.47-.19-.88-.37-1.24-.57-.36-.19-.65-.41-.89-.64s-.42-.51-.54-.81c-.12-.3-.18-.66-.18-1.07,0-.5.11-.94.34-1.32.23-.38.53-.71.91-.96.38-.26.81-.46,1.3-.59.49-.13.99-.2,1.51-.2.92,0,1.74.16,2.47.48v1.72c-.78-.51-1.68-.77-2.7-.77-.32,0-.61.04-.86.11-.26.07-.48.17-.66.31-.18.13-.33.29-.43.47-.1.18-.15.39-.15.61,0,.28.05.51.15.7s.25.35.44.5c.19.15.43.28.71.39.28.12.59.25.94.38.47.18.89.36,1.27.56.37.19.69.4.95.64.26.24.47.51.61.83.14.31.21.68.21,1.11,0,.53-.12.98-.35,1.37-.23.39-.54.71-.93.96-.39.26-.83.45-1.34.57-.51.12-1.03.19-1.59.19-1.09,0-2.04-.21-2.84-.63Z"/>
      <path class="st0" d="M940.44,173.36h-8.41v-1.49h3.36v-11.56l-3.45,1.03v-1.62l5.15-1.57v13.72h3.35v1.49Z"/>
      <path class="st0" d="M952.74,173.36h-8.41v-1.49h3.36v-11.56l-3.45,1.03v-1.62l5.15-1.57v13.72h3.35v1.49Z"/>
    </g>
  </g>
</svg>