<?xml version="1.0" encoding="UTF-8"?>
<svg id="Layer_1" xmlns="http://www.w3.org/2000/svg" version="1.1" viewBox="0 0 87.46 262.38">
  <!-- Generator: Adobe Illustrator 29.7.1, SVG Export Plug-In . SVG Version: 2.1.1 Build 8)  -->
  <defs>
    <style>
      .st0 {
        fill: #e2211b;
      }

      .st1 {
        fill: #fff;
      }
    </style>
  </defs>
  <rect class="st0" width="87.46" height="262.38"/>
  <path class="st1" d="M29.48,148.07c0,3.87,1.8,8.28,5.39,10.98h0s0,0,0,0h-4.83s0,9.24,0,9.24h33.66v-9.24h-19.15c-3.45,0-7.11-2.67-7.11-7.62,0-3.82,2.66-7.78,7.11-7.78h19.15v-9.24h-20.87c-7.74,0-13.36,5.54-13.36,13.67"/>
  <polygon class="st1" points="30.08 68.63 52.97 77.09 30 85.34 29.96 95.9 63.67 82.2 63.71 72.08 30.13 58.07 30.08 68.63"/>
  <path class="st1" d="M40.18,195.88c-2.11-1.57-3.35-4.08-3.35-7.11,0-3.33,1.9-5.86,4.71-7.16l6.7,16.15c-3.44.44-6.13-.44-8.05-1.87M53.35,178.13c2.88,3.89,3.57,6.11,3.57,9.66,0,3.19-.99,5.69-2.73,7.45l-9.8-23.63c-3.65.51-6.92,1.9-9.4,4.04-3.61,3.1-5.51,7.7-5.51,13.29,0,10.16,7.5,17.83,17.4,17.83s17.4-7.68,17.4-18.85c0-6.26-2.96-12.65-6.43-15.64l-4.49,5.84Z"/>
  <polygon class="st1" points="55.21 207.65 55.21 228.66 19.97 228.66 19.97 238.03 63.7 238.03 63.7 207.65 55.21 207.65"/>
  <path class="st1" d="M37.39,41.55c0,5.16,3.91,8.91,9.48,8.91s9.48-3.97,9.48-9.03-4.02-8.91-9.48-8.91-9.48,3.97-9.48,9.03M64.27,41.55c0,10.11-7.53,18.03-17.4,18.03s-17.4-7.97-17.4-18.15,7.53-18.03,17.4-18.03,17.4,7.97,17.4,18.15"/>
  <path class="st1" d="M37.39,112.72c0,5.16,3.91,8.91,9.48,8.91s9.48-3.97,9.48-9.03-4.02-8.91-9.48-8.91-9.48,3.97-9.48,9.03M64.27,112.72c0,10.11-7.53,18.03-17.4,18.03s-17.4-7.97-17.4-18.15,7.53-18.03,17.4-18.03,17.4,7.97,17.4,18.15"/>
</svg>